<svg width="325" height="325" viewBox="0 0 325 325" fill="none" xmlns="http://www.w3.org/2000/svg">
<g clip-path="url(#clip0_1260_3262)">
<path d="M325 0H0V325H325V0Z" fill="#F5F5F5"/>
<path fill-rule="evenodd" clip-rule="evenodd" d="M101.336 206.077C62.0025 215.246 39.4978 202.444 33.8224 167.671C25.3093 115.51 54.1479 60.7119 93.7169 55.4586C133.286 50.2057 149.92 65.19 177.731 84.007C205.542 102.824 286.149 147.099 295.307 154.613C304.465 162.127 324.059 191.49 284.867 210.089C258.738 222.488 226.234 220.153 187.353 203.083C173.686 197.107 161.239 193.945 150.014 193.596C138.789 193.247 122.563 197.408 101.336 206.077Z" fill="#FADEB4"/>
<path d="M146.172 139.856C149.707 142.163 151.129 145.149 150.437 148.811C147.126 153.774 145.47 158.072 145.47 161.705C145.47 165.337 145.221 170.062 144.723 175.88L117.203 176.461L117.145 176.427C116.41 176.441 115.686 176.452 114.976 176.461C108.851 176.541 103.417 177.352 103.161 177.392C101.155 177.703 97.5414 173.983 96.5382 172.722C94.9266 170.697 94.1605 168.3 93.8199 165.691C93.4988 163.23 93.9521 160.942 94.8417 158.749C95.8813 156.186 97.508 153.968 99.5711 152.015C101.834 149.941 104.269 148.248 107 147C107.106 146.951 109.066 145.986 109.16 145.999C109.223 146.008 112.357 147.012 116.715 149.047C121.661 145.532 127.01 141.812 132.764 137.887C138.168 136.892 142.637 137.548 146.172 139.856Z" fill="#F5F5F5"/>
<path fill-rule="evenodd" clip-rule="evenodd" d="M110.563 199.748C114.89 200.639 117.498 198.941 118.388 194.654C119.724 188.223 111.657 189.373 109.188 186.063C106.719 182.754 112.195 182.09 118.388 184.076C124.588 183.805 126.377 184.16 126.733 182.451C127.089 180.741 123.859 179.664 115.233 179.946C106.607 180.228 107.875 180.239 108.532 187.447C108.969 192.251 109.646 196.352 110.563 199.748Z" fill="#F5F5F5"/>
<path d="M218.103 213.481C214.778 210.731 212.435 209 211.18 207.894C208.182 205.251 205.11 202.692 202.086 200.079C201.464 199.542 200.86 198.964 200.348 198.324C199.706 197.521 199.852 196.967 200.866 196.576C201.666 196.267 202.541 196.126 203.395 195.989C205.941 195.582 208.492 195.202 211.045 194.836C212.167 194.675 213.298 194.581 214.422 194.441C214.623 194.416 214.815 194.316 215.011 194.25C214.914 194.092 214.839 193.913 214.716 193.779C213.731 192.715 212.737 191.66 211.744 190.603C211.657 190.51 211.564 190.422 211.474 190.331C211.615 190.297 211.755 190.252 211.898 190.23C214.511 189.845 217.124 189.457 219.74 189.08C221.457 188.833 223.173 188.578 224.896 188.375C226.659 188.168 228.427 188 230.196 187.854C231.778 187.723 233.366 187.669 234.948 187.537C235.961 187.452 236.965 187.253 237.979 187.171C239.246 187.068 240.519 187.052 241.788 186.965C243.372 186.857 244.954 186.697 246.539 186.591C247.871 186.503 249.207 186.478 250.54 186.388C251.614 186.316 252.683 186.157 253.758 186.092C254.808 186.029 255.863 186.036 256.915 186.011C259.641 185.947 262.365 185.869 265.091 185.824C266.758 185.797 268.44 185.694 270.089 185.871C270.949 185.964 271.932 186.408 272.545 187.013C274.093 188.542 275.466 190.25 276.906 191.89C277.789 192.896 278.673 193.9 279.541 194.917C281.372 197.062 283.189 199.218 285.021 201.361C285.59 202.027 286.199 202.658 286.771 203.322C286.934 203.512 287.03 203.761 287.158 203.983C286.977 203.835 286.44 203.376 286.619 203.539C304.293 219.618 229.861 223.037 218.103 213.481Z" fill="#F5F5F5"/>
<path d="M16.7704 154.066C16.8307 152.41 16.8819 150.755 16.9462 149.099C16.967 148.564 17.0275 148.031 17.0605 147.496C17.3346 143.058 17.862 138.647 18.9979 134.344C19.9044 130.911 21.1013 127.571 22.556 124.308C24.2154 120.587 26.2328 117.087 28.5573 113.76C29.7417 112.065 31.0352 110.431 32.4115 108.886C34.0675 107.027 35.7689 105.186 37.6247 103.53C39.7434 101.64 42.0203 99.9173 44.3066 98.2265C44.8157 97.8499 45.7158 97.6662 46.3233 97.8235C47.3902 98.0995 47.5444 99.0268 46.7285 99.7349C44.8755 101.343 43.9937 103.396 43.8581 105.78C43.7831 107.097 43.9062 108.425 43.8334 109.742C43.592 114.084 44.8599 118.08 46.7376 121.893C48.5324 125.537 51.1463 128.539 54.8968 130.293C57.0487 131.298 59.3502 132.005 61.6165 132.749C63.5847 133.396 65.6019 133.895 67.5913 134.48C69.543 135.054 71.4657 135.574 73.5336 134.884C74.5944 134.531 75.3904 135.48 74.984 136.508C73.4478 140.396 72.1387 144.431 69.4403 147.709C67.8218 149.676 65.949 151.496 63.9457 153.075C61.0042 155.393 57.6225 157.045 54.2446 158.673C50.9496 160.261 47.729 162.003 44.4197 163.559C40.6914 165.312 36.9133 166.962 33.1327 168.601C30.0826 169.924 27.0035 171.182 23.9213 172.429C23.1843 172.728 22.3948 172.937 21.6094 173.067C20.8224 173.197 19.0935 171.963 18.7846 171.148C18.0008 169.078 17.468 166.949 17.2479 164.744C17.114 163.401 16.9338 162.063 16.7266 160.723C16.6787 160.628 16.6787 160.533 16.7266 160.39C16.8062 158.554 16.8397 156.765 16.8619 154.977C16.8625 154.928 16.7425 154.877 16.6787 154.827C16.6787 154.605 16.6787 154.383 16.6787 154.114C16.7106 154.066 16.7704 154.067 16.7704 154.066Z" fill="#F5F5F5"/>
<path fill-rule="evenodd" clip-rule="evenodd" d="M144.393 175.822L202.308 174.346H204.683C208.146 176.925 211.946 178.037 216.082 177.681C222.286 177.146 227.764 170.299 229.043 160.752C229.232 160.008 229.689 159.829 230.415 160.216C231.215 161.774 232.633 162.454 234.67 162.255C235.555 162.159 236.047 162.367 236.547 163.326C237.046 164.287 239.686 165.494 241.341 164.525C242.996 163.556 250.625 151.198 250.625 149.119C250.625 147.04 251.053 142.498 251.39 142.205C251.726 141.912 252.36 142.15 253.59 141.76C254.819 141.37 255.871 141.758 259.813 131.41C263.756 121.061 269.788 105.59 270.43 94.758C271.073 83.9251 263.421 87.754 259.813 92.2741C256.206 96.7946 246.15 108.434 236.843 114.755C235.704 115.605 234.775 116.005 234.054 115.954C233.622 113.264 231.853 112.262 228.747 112.947C227.54 113.164 226.552 112.21 225.783 110.085C223.792 99.0497 219.253 91.0651 212.165 86.1307C201.533 78.7285 183.417 74.4983 179.058 89.9748C176.152 100.292 177.9 112.828 184.3 127.58L181.635 129.887C171.15 133.514 162.585 137.991 155.939 143.319C145.971 151.31 145.78 159.106 145.251 165.536C144.899 169.822 144.612 173.251 144.393 175.822Z" fill="#F5F5F5"/>
<path d="M122.962 131.262C123.051 130.424 123.091 129.58 123.188 128.743C123.193 128.698 123.619 128.601 123.742 128.686C124.882 129.469 126.009 130.271 127.114 131.103C127.413 131.329 127.437 131.553 127.572 130.963C127.785 130.041 129.097 129.783 129.883 130.439C131.685 131.942 132.595 133.963 133.254 136.161C133.826 138.068 133.6 140.005 133.656 141.932C133.691 143.167 134.849 144.1 136.065 144.15C136.963 144.187 137.908 144.581 138.717 145.027C140.672 146.106 141.93 147.808 142.548 149.952C143.214 152.261 142.594 154.317 141.256 156.235C140.039 157.98 138.93 159.808 137.164 161.087C136.186 161.796 135.061 162.383 134.295 163.277C133.474 164.237 132.531 164.863 131.412 165.294C128.656 166.358 125.645 164.978 124.296 162.68C122.87 159.649 117.782 162.119 115.811 157.647C114.816 156.171 114.429 154.933 114.644 154.81C114.905 154.659 114.543 154.277 114.079 153.79C112.055 151.663 110.257 149.36 109.027 146.664C108.832 146.238 108.632 145.799 108.547 145.345C108.495 145.067 108.573 144.668 108.754 144.476C108.867 144.355 109.32 144.442 109.549 144.567C109.892 144.754 110.164 145.068 110.481 145.309C111.021 145.719 111.32 145.544 111.174 144.904C110.758 143.086 111.14 141.359 111.78 139.69C112.125 138.79 112.686 137.969 113.208 137.148C113.257 137.07 113.758 137.189 113.976 137.33C114.381 137.591 114.731 137.937 115.104 138.247C115.129 137.75 115.137 137.252 115.186 136.757C115.214 136.462 115.287 136.168 115.376 135.886C115.823 134.469 116.062 134.397 117.245 135.286C117.403 135.405 117.593 135.482 117.768 135.579C117.792 135.399 117.824 135.219 117.84 135.038C117.97 133.481 117.658 132.068 116.52 130.912C116.507 130.899 116.754 130.492 116.896 130.481C118.535 130.352 120.175 130.284 121.675 131.161C121.981 131.34 122.287 131.52 122.641 131.747C122.783 131.617 122.943 131.447 122.962 131.262Z" fill="#F5F5F5"/>
<path fill-rule="evenodd" clip-rule="evenodd" d="M147.274 73.994C142.432 78.0067 140.237 83.816 140.687 91.4223C141.362 102.831 154.635 110.959 161.055 107.519C167.475 104.078 174.564 99.0667 175.411 88.3985C175.77 98.5497 176.834 103.491 163.147 110.852C149.46 118.215 135.151 106.791 133.082 102.083C131.013 97.3745 126.03 86.9806 136.142 74.9218C137.526 73.3271 141.237 73.0177 147.274 73.994Z" fill="#F5F5F5"/>
<path fill-rule="evenodd" clip-rule="evenodd" d="M262.632 207.482C263.803 207.354 264.882 207.251 265.953 207.092C268.385 206.731 270.812 206.334 273.244 205.968C274.692 205.75 276.161 205.645 277.587 205.337C278.588 205.121 279.495 205.261 280.417 205.565C280.565 205.614 280.679 205.768 280.809 205.873C280.653 205.96 280.504 206.105 280.341 206.126C278.202 206.395 276.058 206.62 273.923 206.912C271.777 207.206 269.64 207.577 267.495 207.884C266 208.098 264.497 208.25 263 208.449C262.22 208.553 261.448 208.721 260.668 208.825C259.563 208.972 258.452 209.071 257.347 209.219C256.051 209.394 254.761 209.611 253.466 209.79C252.425 209.934 251.378 210.039 250.337 210.181C249.01 210.362 247.687 210.568 246.36 210.754C245.382 210.891 244.402 211.015 243.422 211.14C242.39 211.272 241.354 211.375 240.326 211.535C239.704 211.631 239.131 211.626 238.947 210.911C238.778 210.258 239.111 209.747 239.747 209.606C240.618 209.413 241.511 209.308 242.4 209.224C243.456 209.124 244.517 209.081 245.576 209.024C246.88 208.954 248.187 208.918 249.489 208.824C250.874 208.724 252.256 208.565 253.64 208.447C255.268 208.309 256.9 208.208 258.526 208.051C259.372 207.97 260.208 207.799 261.05 207.676C261.544 207.604 262.04 207.546 262.632 207.482Z" fill="#89A1C1"/>
<path fill-rule="evenodd" clip-rule="evenodd" d="M237.226 198.463C238.397 198.4 239.475 198.355 240.549 198.268C241.69 198.176 242.826 198.022 243.967 197.933C245.248 197.834 246.533 197.794 247.815 197.698C249.268 197.59 250.718 197.438 252.172 197.326C253.246 197.243 254.325 197.214 255.399 197.128C256.747 197.02 258.09 196.864 259.438 196.756C260.512 196.671 261.591 196.643 262.665 196.557C264.085 196.444 265.5 196.233 266.921 196.185C268.542 196.131 270.171 195.626 271.791 196.185C271.984 196.252 272.159 196.369 272.343 196.463C272.168 196.496 271.995 196.541 271.819 196.56C270.59 196.691 269.358 196.801 268.131 196.946C266.64 197.121 265.154 197.35 263.661 197.503C262.569 197.614 261.465 197.607 260.372 197.711C258.873 197.853 257.381 198.069 255.883 198.219C254.796 198.329 253.702 198.375 252.613 198.465C251.192 198.583 249.772 198.712 248.352 198.845C247.058 198.965 245.764 199.086 244.472 199.226C242.823 199.405 241.178 199.625 239.527 199.788C237.961 199.943 236.387 200.029 234.821 200.181C233.73 200.286 232.649 200.486 231.558 200.571C231.133 200.605 230.658 200.513 230.268 200.339C229.989 200.215 229.813 199.861 229.591 199.609C229.872 199.417 230.141 199.085 230.438 199.057C232.247 198.884 234.062 198.786 235.874 198.648C236.295 198.617 236.711 198.527 237.226 198.463Z" fill="#89A1C1"/>
<path fill-rule="evenodd" clip-rule="evenodd" d="M137.586 222.441C137.487 222.519 137.436 222.58 137.387 222.578C136.939 222.565 136.492 222.541 136.045 222.52C136.472 222.226 136.863 221.772 137.333 221.664C139.186 221.241 140.854 220.493 142.4 219.389C144.419 217.948 145.666 216.058 146.119 213.643C146.189 213.271 146.085 213.104 145.636 213.107C144.995 213.11 144.352 213.005 143.712 212.933C142.46 212.791 141.463 211.905 141.353 210.849C141.282 210.172 142.299 208.754 143.05 208.388C144.797 207.537 146.738 209.217 147.234 210.673C147.434 211.259 147.53 211.047 147.793 210.805C149.04 209.666 149.448 208.203 149.349 206.595C149.243 204.878 148.487 203.497 146.997 202.53C146.48 202.195 146.282 201.718 146.682 201.11C147.119 200.446 148.33 200.401 148.803 200.988C149.443 201.781 150.004 202.696 150.357 203.647C151.214 205.953 150.994 208.195 149.554 210.258C149.451 210.406 149.366 210.576 149.233 210.691C148.102 211.673 147.493 212.895 147.033 214.334C145.67 218.603 142.541 221.124 138.299 222.386C138.095 222.446 137.856 222.393 137.586 222.441ZM143.356 209.529C142.537 210.014 142.314 211.406 143.088 211.648C143.984 211.927 145.018 211.773 145.992 211.782C146.034 211.783 146.104 211.538 146.117 211.403C146.244 210.094 145.017 209.191 143.356 209.529Z" fill="#FFB61D"/>
<path fill-rule="evenodd" clip-rule="evenodd" d="M251.859 202.636C254.561 202.379 257.167 202.103 259.776 201.873C261.625 201.71 263.481 201.627 265.331 201.475C266.473 201.381 267.61 201.231 268.748 201.095C270.319 200.909 271.891 200.56 273.459 200.578C274.353 200.588 275.393 200.879 276.002 201.784C276.049 201.854 276.102 201.921 276.153 201.989C276.035 202.012 275.908 202.076 275.8 202.053C273.755 201.62 271.744 202.039 269.715 202.226C268.301 202.356 266.863 202.201 265.439 202.265C264.01 202.329 262.587 202.513 261.16 202.635C259.585 202.769 258.006 202.873 256.433 203.029C255.588 203.112 254.754 203.3 253.91 203.4C252.656 203.549 251.395 203.645 250.141 203.795C248.707 203.967 247.271 204.14 245.847 204.377C244.154 204.659 242.476 205.033 240.784 205.323C239.107 205.61 237.428 205.917 235.737 206.066C234.967 206.134 234.151 205.894 233.381 205.696C232.789 205.543 232.924 205.127 233.301 204.853C233.605 204.632 233.979 204.441 234.344 204.383C235.445 204.211 236.556 204.108 237.663 203.983C238.833 203.852 240.003 203.706 241.176 203.603C242.846 203.456 244.52 203.359 246.189 203.206C247.204 203.114 248.211 202.94 249.225 202.833C250.068 202.745 250.917 202.7 251.859 202.636Z" fill="#89A1C1"/>
<path fill-rule="evenodd" clip-rule="evenodd" d="M233.934 194.683C236.164 194.428 238.297 194.16 240.433 193.924C241.82 193.771 243.216 193.683 244.604 193.53C245.415 193.441 246.217 193.274 247.026 193.159C247.581 193.079 248.142 193.035 248.698 192.964C250.4 192.745 252.1 192.496 253.805 192.307C255.54 192.115 257.283 191.997 259.019 191.814C260.609 191.647 262.191 191.387 263.784 191.274C264.356 191.233 264.96 191.469 265.528 191.647C265.717 191.706 265.84 191.976 265.994 192.15C265.776 192.221 265.562 192.341 265.341 192.357C264.101 192.446 262.858 192.49 261.619 192.588C260.311 192.692 259.005 192.826 257.7 192.968C256.7 193.077 255.705 193.229 254.706 193.344C253.507 193.482 252.303 193.576 251.107 193.734C249.352 193.966 247.604 194.245 245.85 194.489C243.951 194.754 242.046 194.973 240.151 195.263C238.514 195.514 236.891 195.851 235.258 196.124C233.11 196.484 230.958 196.809 228.811 197.169C228.027 197.301 227.551 196.854 227.48 196.231C227.416 195.667 227.913 195.461 228.548 195.419C230.215 195.308 231.874 195.067 233.535 194.867C233.642 194.854 233.738 194.746 233.934 194.683Z" fill="#89A1C1"/>
<path fill-rule="evenodd" clip-rule="evenodd" d="M258.842 214.683C256.762 214.943 254.777 215.197 252.794 215.465C251.949 215.579 251.109 215.798 250.265 215.809C249.99 215.813 249.445 215.249 249.488 215.044C249.574 214.627 249.931 214.006 250.257 213.949C251.647 213.708 253.067 213.647 254.474 213.51C255.745 213.387 257.013 213.247 258.283 213.123C259.691 212.987 261.099 212.856 262.509 212.733C264.086 212.596 265.664 212.463 267.244 212.345C268.326 212.264 269.411 212.232 270.492 212.141C271.764 212.034 273.03 211.871 274.302 211.761C275.319 211.673 276.341 211.651 277.358 211.554C278.406 211.455 279.449 211.3 280.495 211.173C280.621 211.158 280.76 211.141 280.877 211.177C281.281 211.301 281.679 211.448 282.078 211.586C281.726 211.708 281.382 211.893 281.02 211.941C278.879 212.222 276.732 212.464 274.589 212.734C273.163 212.915 271.743 213.141 270.316 213.311C269.007 213.468 267.69 213.558 266.38 213.715C265.691 213.797 265.015 214.001 264.326 214.077C262.858 214.239 261.384 214.347 259.915 214.492C259.586 214.524 259.263 214.617 258.842 214.683Z" fill="#89A1C1"/>
<path fill-rule="evenodd" clip-rule="evenodd" d="M99.5711 152.015C101.834 149.941 104.269 148.248 107 147C107.106 146.951 107.215 146.834 107.309 146.847C107.719 146.903 108.125 146.996 108.532 147.075C108.237 147.276 107.963 147.521 107.645 147.672C104.485 149.17 101.542 150.987 99.1477 153.59C96.8212 156.12 95.1528 158.959 94.7849 162.503C94.4465 165.761 94.8599 168.809 96.7033 171.557C97.6926 173.032 99.0281 174.133 100.651 174.863C100.78 174.921 100.901 174.996 101.026 175.063C100.881 175.093 100.737 175.128 100.591 175.151C98.5857 175.462 97.5414 173.983 96.5382 172.722C94.9266 170.697 94.1605 168.3 93.8199 165.691C93.4988 163.23 93.9521 160.942 94.8417 158.749C95.8813 156.186 97.508 153.968 99.5711 152.015Z" fill="black"/>
<path fill-rule="evenodd" clip-rule="evenodd" d="M225.044 194.111C224.703 193.362 225.197 192.531 225.981 192.539C227.32 192.552 228.659 192.641 229.997 192.708C231.022 192.76 232.045 192.828 233.069 192.888C233.192 192.895 233.348 192.857 233.433 192.914C233.718 193.107 233.978 193.333 234.247 193.546C233.987 193.674 233.735 193.892 233.467 193.912C232.637 193.974 231.794 194.034 230.969 193.959C229.509 193.827 228.129 194.155 226.78 194.567C226.046 194.792 225.584 194.558 225.044 194.111Z" fill="#89A1C1"/>
<path fill-rule="evenodd" clip-rule="evenodd" d="M31.6418 132.345C31.4508 133.505 31.2394 134.565 31.0763 135.634C30.973 136.311 30.9498 136.999 30.8761 137.681C30.7557 138.794 30.5441 139.903 30.5118 141.018C30.4335 143.717 30.4581 146.42 30.4005 149.12C30.3449 151.724 30.8468 154.244 31.4539 156.753C31.5718 157.24 31.6075 157.814 31.8965 158.178C32.3401 158.735 31.9282 159.006 31.6168 159.092C31.3193 159.173 30.7388 159.027 30.6195 158.803C30.2927 158.189 30.0712 157.494 29.9372 156.807C29.5977 155.065 29.1861 153.319 29.0668 151.556C28.9052 149.172 29.0172 146.77 28.9612 144.377C28.8934 141.476 29.3208 138.628 29.7193 135.768C30.3771 131.048 31.3176 126.394 32.8092 121.864C32.9893 121.317 33.3936 120.789 33.824 120.393C34.3498 119.91 35.1599 120.352 35.2758 121.082C35.4128 121.945 35.0192 122.607 34.5446 123.26C33.1157 125.226 32.4013 127.467 32.0238 129.836C31.8957 130.641 31.7691 131.446 31.6418 132.345Z" fill="#89A1C1"/>
<path fill-rule="evenodd" clip-rule="evenodd" d="M41.2769 152.929C41.2096 153.522 42.2763 154.233 41.087 154.457C40.7654 154.517 40.0617 153.875 39.9138 153.439C39.4657 152.119 39.0318 150.756 38.9114 149.386C38.745 147.492 38.8696 145.575 38.8696 143.668C38.8696 143.447 38.8696 143.226 38.8696 143.005C38.8696 140.002 38.8833 137 38.8605 133.999C38.8544 133.203 38.6682 132.406 38.6915 131.613C38.7086 131.029 38.8296 130.404 39.0981 129.887C39.2899 129.517 39.7856 129.108 40.1786 129.076C40.4486 129.054 40.9904 129.623 41.0344 129.97C41.1497 130.88 41.1033 131.816 41.0352 132.736C40.9824 133.45 40.7316 134.152 40.6885 134.866C40.5808 136.65 40.5339 138.437 40.4763 140.223C40.4018 142.535 40.1911 144.855 40.3204 147.158C40.4272 149.06 40.9425 150.943 41.2769 152.929Z" fill="#89A1C1"/>
<path fill-rule="evenodd" clip-rule="evenodd" d="M50.3789 149.078C48.5719 146.283 47.2246 143.333 46.3818 140.166C46.2119 139.527 46.3597 138.717 46.5993 138.081C46.7142 137.775 47.5137 137.432 47.7724 137.568C48.1234 137.753 48.4029 138.365 48.4514 138.822C48.6382 140.589 48.7586 142.338 49.3415 144.057C50.0495 146.147 51.2642 147.89 52.4402 149.681C52.6851 150.054 53.4174 150.422 52.9009 150.895C52.3861 151.366 51.863 150.82 51.4752 150.387C51.1103 149.981 50.7741 149.547 50.3789 149.078Z" fill="#89A1C1"/>
<path fill-rule="evenodd" clip-rule="evenodd" d="M58.6725 143.091C57.5857 142.034 56.4976 141.07 55.5248 139.995C55.0186 139.436 55.1135 138.726 55.7219 138.192C56.3282 137.661 56.7078 138.157 57.0575 138.562C58.3796 140.093 59.683 141.642 60.9878 143.189C61.0619 143.277 61.1399 143.498 61.1213 143.511C60.9081 143.658 60.6325 143.931 60.4574 143.877C59.8598 143.694 59.2961 143.394 58.6725 143.091Z" fill="#89A1C1"/>
<path fill-rule="evenodd" clip-rule="evenodd" d="M115.925 271.644C118.383 272.259 120.754 272.841 123.096 273.52C123.525 273.645 123.831 274.164 124.193 274.501C123.685 274.533 123.143 274.69 122.672 274.576C120.24 273.994 117.805 273.41 115.413 272.696C113.065 271.996 110.768 271.141 108.45 270.35C108.34 270.312 108.248 270.227 108.142 270.174C107.575 269.89 106.97 269.602 107.417 268.84C107.829 268.138 108.471 268.155 109.106 268.514C110.037 269.04 110.894 269.704 111.864 270.146C113.145 270.728 114.504 271.152 115.925 271.644Z" fill="#89A1C1"/>
<path fill-rule="evenodd" clip-rule="evenodd" d="M119.135 264.408C120.134 264.984 121.092 265.497 122.028 266.049C122.227 266.167 122.345 266.425 122.5 266.619C122.169 266.751 121.765 267.079 121.517 266.984C119.531 266.227 117.568 265.403 115.61 264.571C114.534 264.114 113.471 263.623 112.422 263.104C111.835 262.814 111.167 262.509 111.675 261.611C111.992 261.05 112.744 260.911 113.444 261.293C115.322 262.32 117.205 263.338 119.135 264.408Z" fill="#89A1C1"/>
<path fill-rule="evenodd" clip-rule="evenodd" d="M113.613 253.761C113.574 252.382 114.458 251.799 115.605 252.48C117.558 253.638 119.459 254.881 121.366 256.114C121.935 256.482 122.472 256.907 122.978 257.357C123.168 257.526 123.228 257.841 123.347 258.089C123.016 258.083 122.64 258.178 122.363 258.053C120.73 257.316 119.115 256.539 117.505 255.752C116.216 255.121 114.942 254.458 113.613 253.761Z" fill="#89A1C1"/>
<path fill-rule="evenodd" clip-rule="evenodd" d="M120.23 244.156C121.907 244.178 122.795 245.294 123.754 246.28C124.029 246.564 124.251 246.919 124.417 247.277C124.58 247.632 124.802 248.117 124.347 248.357C124.142 248.466 123.689 248.251 123.415 248.081C122.628 247.59 121.887 247.031 121.104 246.534C120.823 246.356 120.43 246.34 120.165 246.147C119.778 245.866 119.461 245.493 119.114 245.159C119.455 244.825 119.796 244.49 120.23 244.156Z" fill="#89A1C1"/>
<path fill-rule="evenodd" clip-rule="evenodd" d="M125.591 216.915C126.975 219.786 128.084 222.748 128.454 225.941C128.652 227.653 128.879 229.364 129.015 231.082C129.138 232.642 129.233 234.212 129.198 235.774C129.156 237.643 128.955 239.508 128.84 241.376C128.76 242.675 128.747 243.979 128.637 245.275C128.482 247.097 128.234 248.913 128.084 250.736C127.97 252.116 127.894 253.504 127.897 254.888C127.9 256.464 128.014 258.039 128.073 259.614C128.141 261.412 127.989 263.25 128.314 264.999C128.802 267.617 129.47 270.225 130.338 272.742C131.613 276.442 133.82 279.659 136.254 282.686C137.758 284.557 139.493 286.218 141.937 286.862C141.969 286.871 141.996 287.165 141.933 287.22C141.032 288.008 139.91 287.687 138.96 287.56C136.834 287.277 134.731 286.774 132.643 286.264C127.337 284.966 122.038 283.638 116.748 282.275C114.171 281.612 111.621 280.839 109.055 280.133C108.677 280.029 108.19 279.857 107.894 280.003C106.397 280.736 105.241 279.93 104.141 279.184C101.731 277.55 100.363 275.177 99.6541 272.389C98.676 268.541 99.4621 264.87 100.882 261.312C101.818 258.966 102.934 256.687 104.055 254.42C105.193 252.12 106.621 249.994 108.352 248.093C108.937 247.451 109.648 246.925 110.283 246.327C111.155 245.506 111.201 244.38 111.273 243.308C111.356 242.066 111.168 240.793 111.346 239.57C111.952 235.414 113.786 231.683 115.714 228.03C116.675 226.209 117.897 224.478 119.253 222.928C120.259 221.778 121.582 220.847 123.14 220.405C123.617 220.27 123.753 220.16 123.396 219.564C122.881 218.702 122.155 217.699 123.067 216.545C124.158 215.453 124.946 215.575 125.591 216.915ZM127.041 225.582C127.004 225.619 126.942 225.651 126.933 225.694C126.863 226.059 126.854 226.445 126.73 226.788C126.178 228.309 125.752 229.902 124.989 231.311C123.459 234.136 121.505 236.681 119.197 238.933C117.185 240.897 115.144 242.832 113.149 244.812C112.012 245.942 110.842 247.061 109.862 248.321C108.29 250.343 106.639 252.356 105.436 254.597C104.039 257.199 102.991 260.006 101.979 262.793C101.344 264.543 100.913 266.399 100.647 268.245C100.361 270.227 100.743 272.206 101.64 274.013C102.301 275.346 103.232 276.45 104.757 276.93C106.581 277.505 108.371 278.183 110.191 278.772C114.228 280.079 118.251 281.436 122.324 282.621C125.374 283.509 128.484 284.194 131.583 284.902C133.338 285.303 135.123 285.574 136.899 285.879C137.039 285.903 137.212 285.735 137.37 285.656C137.291 285.543 137.222 285.421 137.13 285.32C136.482 284.601 135.759 283.937 135.19 283.161C133.624 281.023 131.907 278.956 130.64 276.647C128.39 272.549 126.883 268.156 126.545 263.43C126.44 261.975 126.294 260.523 126.167 258.879C126.167 257.054 126.093 255.226 126.189 253.406C126.271 251.846 126.552 250.297 126.737 248.742C126.871 247.619 126.916 246.479 127.137 245.373C127.558 243.259 127.36 242.407 125.562 241.201C124.726 240.641 123.677 240.1 123.636 238.927C123.619 238.43 124.017 237.841 124.392 237.457C124.505 237.341 125.307 237.664 125.568 237.976C126.16 238.681 126.607 239.507 127.125 240.276C127.208 240.4 127.351 240.484 127.467 240.586C127.543 240.458 127.672 240.335 127.684 240.201C127.764 239.307 127.874 238.41 127.869 237.514C127.862 236.362 127.748 235.213 127.694 234.061C127.623 232.519 127.572 230.975 127.499 229.432C127.448 228.333 127.386 227.235 127.3 226.139C127.286 225.948 127.131 225.767 127.041 225.582ZM123.115 221.652C121.071 222.356 119.665 223.858 118.558 225.594C116.35 229.059 114.593 232.765 113.445 236.714C112.91 238.554 112.683 240.489 113.399 242.379C113.441 242.49 113.735 242.628 113.756 242.606C116.493 239.713 119.243 236.831 121.932 233.894C124.676 230.897 125.712 227.321 125.199 223.313C124.967 221.495 124.839 221.449 123.115 221.652ZM270.09 185.871C270.949 185.964 271.932 186.408 272.545 187.013C274.094 188.542 275.467 190.251 276.906 191.89C277.789 192.896 278.673 193.9 279.542 194.918C281.372 197.062 283.189 199.218 285.022 201.361C285.59 202.027 286.199 202.658 286.771 203.322C286.935 203.512 287.031 203.761 287.158 203.983C286.978 203.836 286.783 203.703 286.619 203.539C282.29 199.204 277.978 194.853 273.63 190.537C272.206 189.124 270.588 187.929 268.635 187.372C266.577 186.785 264.479 186.585 262.323 186.939C261.236 187.117 260.095 186.933 258.982 186.978C256.503 187.076 254.027 187.24 251.549 187.331C250.096 187.384 248.638 187.3 247.187 187.367C245.635 187.439 244.086 187.614 242.537 187.747C241.111 187.87 239.684 187.985 238.261 188.124C237.133 188.234 236.009 188.389 234.881 188.5C233.447 188.642 232.008 188.727 230.578 188.897C229.365 189.041 228.165 189.279 226.957 189.46C225.614 189.662 224.266 189.837 222.923 190.04C220.855 190.351 218.789 190.673 216.725 191.012C216.648 191.024 216.521 191.323 216.565 191.386C216.947 191.936 217.34 192.482 217.772 192.995C219.927 195.554 222.111 198.088 224.253 200.658C226.683 203.57 229.035 206.549 231.506 209.426C233.24 211.444 234.949 213.527 237.397 214.771C237.476 214.811 237.546 214.867 237.619 214.916C237.53 214.931 237.431 214.979 237.353 214.957C235.858 214.518 234.298 214.338 233.206 212.924C231.191 210.314 229.02 207.824 226.947 205.258C224.382 202.083 221.943 198.799 218.895 196.05C218.647 195.826 218.388 195.594 218.093 195.447C217.441 195.122 216.84 195.013 216.331 195.784C215.318 197.322 214.212 198.797 213.2 200.335C212.524 201.361 212.743 201.864 213.965 202.695C217.181 204.883 220.673 206.44 224.41 207.502C225.966 207.944 227.51 208.504 228.615 209.814C228.693 209.907 228.777 209.995 228.859 210.086C228.728 210.073 228.587 210.086 228.466 210.044C223.434 208.264 218.395 206.501 213.38 204.674C212.556 204.374 211.797 203.843 211.077 203.322C210.618 202.99 210.639 202.492 210.939 201.957C211.97 200.122 212.956 198.26 213.949 196.404C214.016 196.277 214.045 195.986 214.022 195.978C213.769 195.891 213.489 195.765 213.241 195.803C212.199 195.962 211.15 196.111 210.133 196.377C207.837 196.976 205.558 197.638 203.277 198.293C203.144 198.331 203.057 198.531 202.948 198.656C203.525 199.106 204.102 199.556 204.727 200.055C207.144 202.159 209.515 204.212 211.881 206.271C213.149 207.373 214.409 208.485 215.672 209.593C215.723 209.638 215.777 209.682 215.83 209.726C215.711 209.745 215.582 209.806 215.474 209.779C213.94 209.391 212.436 209 211.18 207.894C208.182 205.251 205.111 202.692 202.086 200.079C201.464 199.542 200.86 198.965 200.348 198.324C199.706 197.522 199.852 196.967 200.866 196.576C201.666 196.268 202.541 196.126 203.395 195.989C205.941 195.582 208.492 195.202 211.045 194.836C212.167 194.675 213.298 194.581 214.422 194.441C214.623 194.416 214.815 194.316 215.011 194.25C214.914 194.092 214.839 193.913 214.716 193.779C213.731 192.715 212.737 191.66 211.744 190.603C211.657 190.51 211.565 190.422 211.474 190.332C211.616 190.297 211.755 190.252 211.898 190.231C214.512 189.845 217.125 189.457 219.74 189.081C221.457 188.834 223.174 188.578 224.896 188.376C226.659 188.168 228.427 188 230.196 187.854C231.778 187.723 233.366 187.669 234.948 187.537C235.961 187.453 236.965 187.253 237.979 187.171C239.246 187.069 240.519 187.052 241.788 186.965C243.373 186.857 244.954 186.698 246.539 186.592C247.871 186.503 249.208 186.478 250.54 186.388C251.615 186.316 252.684 186.157 253.758 186.092C254.809 186.029 255.863 186.036 256.915 186.011C259.641 185.948 262.366 185.87 265.091 185.825C266.759 185.797 268.44 185.694 270.09 185.871ZM111.575 179.439C112.301 179.514 113.045 179.416 113.777 179.459C115.563 179.565 117.345 179.729 119.131 179.829C120.793 179.922 122.463 179.903 124.121 180.044C125.817 180.188 126.834 180.896 126.725 182.93C126.627 184.765 126.593 186.602 126.528 188.439C126.467 190.147 126.401 191.856 126.341 193.565C126.333 193.817 126.342 194.072 126.358 194.324C126.372 194.543 126.408 194.76 126.435 194.978C126.372 194.979 126.261 194.997 126.253 194.976C126.163 194.74 126.047 194.503 126.019 194.257C125.919 193.395 125.855 192.529 125.772 191.665C125.648 190.375 125.523 189.086 125.393 187.798C125.328 187.146 125.253 186.495 125.176 185.845C125.128 185.441 125.082 185.035 125.011 184.635C124.98 184.465 124.886 184.306 124.821 184.142C124.687 184.218 124.527 184.267 124.424 184.374C123.171 185.675 122.315 187.193 121.987 189C121.951 189.198 121.831 189.38 121.751 189.57C121.684 189.402 121.629 189.228 121.549 189.068C120.085 186.14 117.78 184.194 114.633 183.529C113.194 183.225 111.641 183.484 110.14 183.475C109.385 183.47 109.26 183.904 109.325 184.549C109.468 185.953 109.576 187.361 109.71 188.766C109.893 190.677 110.089 192.588 110.275 194.499C110.405 195.841 110.511 197.185 110.664 198.523C110.707 198.9 110.878 199.261 110.986 199.63C111.036 199.803 111.074 199.98 111.118 200.154C110.926 200.021 110.614 199.924 110.563 199.748C110.304 198.862 110.113 197.955 109.897 197.056C109.646 196.012 109.394 194.968 109.141 193.829C108.89 192.051 108.543 190.376 108.408 188.685C108.218 186.293 107.853 183.876 108.385 181.495C108.687 180.147 110.225 179.298 111.575 179.439ZM106.449 184.136C106.842 184.275 107.139 184.695 107.478 184.992C107.244 185.263 107.049 185.59 106.769 185.796C106.153 186.245 105.419 186.55 104.866 187.062C103.554 188.278 104.175 190.693 105.537 191.332C106.165 191.626 106.793 191.925 107.4 192.262C107.619 192.383 107.777 192.619 107.963 192.803C107.737 192.809 107.51 192.815 107.284 192.821C105.83 192.858 104.739 192.186 103.925 191.017C102.697 189.256 103.349 187.533 104.794 186.155C104.93 186.025 105.053 185.881 105.193 185.755C105.372 185.592 105.561 185.441 105.746 185.285C105.387 185.239 104.99 185.071 104.674 185.168C103.494 185.535 102.825 186.52 102.466 187.599C101.236 191.304 104.144 194.304 107.443 193.918C107.792 193.877 108.168 194.082 108.532 194.173C108.444 194.227 108.363 194.303 108.268 194.334C105.506 195.235 103.152 194.214 101.818 191.545C101.726 191.361 101.6 191.194 101.49 190.925C100.852 187.653 102.215 185.212 105.207 184.237C105.599 184.109 106.088 184.009 106.449 184.136ZM109.813 180.423C109.227 180.557 109.021 181.189 109.332 181.751C109.756 182.519 110.41 182.548 111.198 182.47C112.442 182.347 113.71 182.251 114.949 182.357C116.521 182.491 118.068 182.92 119.64 183.069C120.949 183.192 122.279 183.094 123.694 182.998C124.247 182.966 124.799 182.925 125.352 182.905C126.017 182.88 126.397 182.348 126.039 181.779C125.819 181.429 125.366 181.065 124.98 181.017C123.364 180.815 121.736 180.696 120.109 180.613C118.958 180.555 117.8 180.648 116.65 180.591C114.908 180.505 113.171 180.323 111.429 180.233C110.894 180.206 110.34 180.301 109.813 180.423ZM196.023 173.504C197.947 173.542 199.866 173.853 201.786 174.052C201.929 174.067 202.084 174.112 202.204 174.19C202.454 174.354 202.685 174.549 202.924 174.731C202.619 174.761 202.314 174.799 202.009 174.82C200.093 174.951 198.178 175.09 196.261 175.196C195.943 175.214 195.612 175.009 195.294 175.026C193.313 175.132 191.336 175.289 189.355 175.388C188.909 175.411 188.452 175.197 188.007 175.22C186.09 175.319 184.176 175.478 182.259 175.582C181.909 175.601 181.547 175.394 181.196 175.413C179.216 175.517 177.238 175.674 175.258 175.775C174.844 175.796 174.418 175.585 174.005 175.607C172.087 175.707 170.173 175.867 168.256 175.968C167.875 175.989 167.481 175.78 167.099 175.799C165.118 175.903 163.14 176.058 161.16 176.162C160.81 176.181 160.448 175.974 160.098 175.993C158.117 176.097 156.139 176.25 154.159 176.356C153.84 176.373 153.51 176.168 153.192 176.185C151.211 176.292 149.233 176.449 147.253 176.548C146.807 176.57 146.35 176.357 145.905 176.38C143.988 176.479 142.074 176.638 140.156 176.742C139.806 176.761 139.444 176.554 139.094 176.572C137.114 176.677 135.136 176.832 133.156 176.935C132.773 176.955 132.379 176.746 131.998 176.766C130.049 176.868 128.103 177.026 126.154 177.128C125.772 177.148 125.378 176.939 124.996 176.959C123.016 177.062 121.038 177.219 119.058 177.321C118.676 177.341 118.282 177.132 117.9 177.153C115.983 177.255 114.069 177.411 112.152 177.515C111.802 177.534 111.439 177.327 111.089 177.346C109.109 177.45 107.131 177.601 105.15 177.709C104.864 177.725 104.565 177.521 104.279 177.538C102.645 177.638 101.015 177.791 99.3819 177.894C98.2704 177.963 97.1516 177.933 96.0431 178.029C94.4588 178.167 92.8715 178.318 91.3042 178.578C90.0778 178.782 88.8896 179.224 87.6624 179.418C87.3166 179.473 86.8075 179.098 86.5475 178.776C86.4378 178.639 86.6853 178.012 86.9314 177.81C87.9406 176.979 89.1557 176.838 90.5081 176.947C91.3497 176.883 92.0967 176.822 92.8425 176.753C94.198 176.627 95.5504 176.456 96.9085 176.377C98.7003 176.273 100.496 176.179 102.29 176.188C105.301 176.203 108.313 176.345 111.324 176.353C113.562 176.36 115.801 176.242 118.039 176.173C119.929 176.114 121.818 176.044 123.707 175.981C125.692 175.915 127.676 175.853 129.661 175.787C131.55 175.724 133.44 175.679 135.328 175.589C137.573 175.482 139.816 175.321 142.061 175.22C142.539 175.199 143.026 175.407 143.505 175.389C146.353 175.284 149.199 175.14 152.047 175.018C152.565 174.996 153.086 175.044 153.602 175.009C155.297 174.895 156.989 174.74 158.684 174.641C159.065 174.618 159.46 174.83 159.841 174.808C161.568 174.709 163.292 174.551 165.018 174.447C165.336 174.427 165.668 174.635 165.986 174.616C167.68 174.512 169.372 174.353 171.067 174.254C171.449 174.232 171.844 174.444 172.225 174.422C173.952 174.322 175.675 174.161 177.401 174.061C177.783 174.039 178.178 174.251 178.559 174.229C180.223 174.13 181.882 173.965 183.546 173.868C183.959 173.844 184.385 174.059 184.798 174.035C186.462 173.938 188.122 173.778 189.785 173.673C190.071 173.655 190.371 173.861 190.657 173.843C192.447 173.737 194.237 173.468 196.023 173.504ZM195.991 78.7882C200.185 79.176 204.137 80.5202 207.775 82.5963C209.912 83.817 211.9 85.3259 213.847 86.843C216.868 89.1964 219.24 92.1453 221.289 95.3606C222.816 97.7587 224.152 100.263 224.945 102.99C225.667 105.469 226.312 107.989 226.714 110.534C227.005 112.372 226.833 114.282 226.887 116.159C226.942 118.078 226.741 119.97 226.537 121.878C226.038 126.537 225.164 131.101 223.855 135.603C223.287 137.556 223.697 139.577 224.07 141.555C224.396 143.287 224.997 144.906 225.919 146.412C226.031 146.594 226.021 146.848 226.068 147.069C225.832 147.053 225.583 147.081 225.361 147.016C223.762 146.549 223.243 145.244 222.862 143.816C222.588 142.792 222.341 141.746 221.923 140.777C221.445 139.669 221.26 139.775 220.211 140.297C218.052 141.372 215.857 142.393 213.616 143.284C210.58 144.492 207.387 145.118 204.158 145.623C202.405 145.898 200.634 146.432 199.314 147.712C198.7 148.307 198.225 149.151 197.963 149.97C197.636 150.996 197.561 152.077 198.171 153.138C198.532 153.767 198.912 153.874 199.513 153.708C202.43 152.906 205.326 152.015 208.271 151.331C210.533 150.806 212.865 150.585 215.149 150.147C217.52 149.692 219.907 149.581 222.309 149.591C222.489 149.592 222.67 149.64 222.85 149.665C222.687 149.703 222.524 149.744 222.36 149.778C220.127 150.235 217.893 150.683 215.663 151.149C213.641 151.571 211.625 152.019 209.604 152.443C207.346 152.916 205.078 153.353 202.825 153.849C201.725 154.091 200.626 154.371 199.565 154.745C198.086 155.266 197.621 156.184 197.539 157.862C197.448 159.75 197.774 161.517 198.228 163.269C199.044 166.415 200.441 169.282 202.702 171.708C204.601 173.747 206.743 175.399 209.466 176.102C210.934 176.481 212.47 176.72 213.984 176.778C215.872 176.849 217.708 176.496 219.499 175.743C221.743 174.8 223.476 173.317 224.763 171.334C226.175 169.155 227.105 166.745 227.44 164.164C227.718 162.022 228.008 159.858 227.991 157.706C227.968 154.603 227.324 151.575 226.124 148.686C226.05 148.506 225.758 148.253 226.33 148.236C227.844 148.193 229.346 149.572 229.366 151.144C229.385 152.584 229.433 154.026 229.356 155.461C229.219 158.061 231.996 161.46 234.286 162.047C234.786 162.175 234.831 161.998 234.708 161.739C233.313 158.787 234.169 155.9 234.998 153.048C236.599 147.54 238.793 142.247 240.989 136.955C243.138 131.779 245.2 126.568 247.286 121.367C249.055 116.955 250.796 112.532 252.564 108.12C254.266 103.871 255.987 99.6298 257.702 95.3862C257.757 95.2501 257.847 95.1283 257.9 94.9918C258.002 94.7336 258.089 94.4697 258.183 94.2084C257.917 94.3882 257.586 94.5178 257.393 94.7565C255.102 97.5823 252.969 100.549 250.517 103.228C247.897 106.091 245.052 108.763 242.17 111.371C240.112 113.233 237.833 114.855 235.648 116.578C235.443 116.739 235.207 116.86 234.985 117C235.007 116.743 235.053 116.484 235.045 116.227C234.978 114.257 236.807 114.081 237.908 113.22C239.564 111.925 241.286 110.708 242.888 109.349C245.872 106.817 248.247 103.727 250.666 100.682C251.32 99.8595 252.021 99.073 252.748 98.2219C254.869 95.9192 256.865 93.587 259.039 91.4324C260.946 89.5435 263.064 87.8917 265.741 87.1143C266.934 86.7676 269.103 87.5632 269.906 88.8212C270.744 90.1342 271.077 91.5733 271.073 93.1385C271.064 96.3872 270.403 99.5345 269.716 102.68C268.966 106.113 268.24 109.552 267.405 112.965C266.916 114.967 266.34 116.961 265.619 118.891C263.904 123.48 262.163 128.064 260.267 132.582C259.188 135.152 257.854 137.626 256.496 140.068C255.744 141.422 254.633 142.454 252.845 142.372C252.113 142.339 251.642 143.191 251.541 144.231C251.394 145.743 251.27 147.269 250.958 148.752C250.326 151.754 248.98 154.483 247.365 157.069C246.146 159.023 244.79 160.893 243.531 162.823C242.659 164.16 241.505 165.239 239.923 165.323C238.932 165.375 237.902 164.747 236.896 164.403C236.733 164.346 236.589 164.194 236.469 164.057C235.976 163.494 235.597 162.661 234.982 162.422C234.408 162.199 233.571 162.761 232.879 162.691C231.696 162.573 230.708 161.96 229.984 160.972C229.843 160.779 229.683 160.331 229.529 161.067C229.113 163.066 228.585 165.045 228.022 167.01C226.996 170.59 225.097 173.668 222.194 176.012C220.395 177.464 218.322 178.427 215.893 178.56C213.43 178.695 211.222 178.028 209.018 177.048C205.898 175.662 203.157 173.773 200.595 171.531C196.921 168.314 194.135 164.461 192.223 160.038C191.153 157.564 190.526 154.892 189.801 152.281C189.072 149.649 188.153 147.126 186.644 144.819C185.275 142.728 184.278 140.442 183.899 137.967C183.773 137.142 184.054 136.224 184.278 135.383C184.726 133.71 184.974 132.021 184.595 130.327C184.407 129.483 183.89 128.716 183.591 127.89C182.39 124.576 181.128 121.28 180.064 117.923C179.33 115.607 178.823 113.213 178.335 110.83C178.022 109.304 177.925 107.734 177.74 106.183C177.605 105.051 177.44 103.921 177.366 102.785C177.261 101.153 177.284 99.5111 177.151 97.8817C176.98 95.7805 177.291 93.6992 177.809 91.7241C178.314 89.7923 179.302 87.9606 180.249 86.1744C181.346 84.1052 182.848 82.3285 184.879 81.0706C186.693 79.9469 188.63 79.1123 190.783 78.9546C192.515 78.8276 194.274 78.6292 195.991 78.7882ZM182.183 129.499C182.063 129.698 181.99 129.984 181.814 130.081C180.782 130.651 179.751 131.231 178.675 131.706C176.849 132.514 174.99 133.247 173.05 134.011C170.017 135.362 167.02 136.596 164.161 138.095C161.312 139.587 158.664 141.419 156.192 143.515C152.573 146.583 149.653 150.183 147.767 154.53C146.996 156.306 146.468 158.252 146.21 160.172C145.87 162.711 145.911 165.302 145.774 167.87C145.658 170.026 145.531 172.18 145.39 174.334C145.337 175.147 144.705 174.544 144.373 174.691C144.347 174.703 144.072 174.376 144.088 174.226C144.248 172.793 144.535 171.369 144.609 169.934C144.703 168.124 144.617 166.306 144.635 164.492C144.669 161.014 145.331 157.676 146.778 154.494C148.125 151.531 149.942 148.907 152.098 146.478C155.353 142.812 159.249 140.006 163.497 137.643C167.515 135.407 171.68 133.497 175.992 131.898C177.863 131.204 179.684 130.377 181.532 129.622C181.733 129.54 181.966 129.538 182.183 129.499ZM233.194 171.58C234.845 171.812 236.489 172.1 238.14 172.348C239.146 172.499 240.155 172.688 241.167 172.732C242.651 172.798 244.141 172.724 245.627 172.757C246.717 172.782 247.805 172.874 248.892 172.95C249.663 173.004 250.432 173.125 251.202 173.138C252.986 173.166 254.77 173.166 256.553 173.143C260.731 173.089 264.908 172.971 269.086 172.978C270.154 172.979 271.221 173.346 272.289 173.543C272.35 173.554 272.441 173.516 272.476 173.549C272.72 173.781 272.953 174.027 273.189 174.268C272.88 174.292 272.571 174.336 272.262 174.336C270.15 174.343 268.036 174.358 265.924 174.33C265.089 174.32 264.257 174.17 263.423 174.148C260.36 174.064 257.297 174.002 254.234 173.945C253.14 173.925 252.046 173.942 250.857 173.942C249.487 173.942 248.213 173.966 246.939 173.936C244.991 173.891 243.043 173.777 241.094 173.751C238.631 173.718 236.167 173.79 233.705 173.722C232.552 173.691 231.4 173.467 230.257 173.274C229.619 173.167 229.469 172.575 229.681 172.093C229.828 171.761 230.318 171.412 230.669 171.394C231.506 171.351 232.357 171.462 233.194 171.58ZM184.3 131.691C184.232 131.729 184.144 131.75 184.099 131.806C182.708 133.563 181.161 135.223 179.974 137.109C178.378 139.642 177.061 142.355 176.273 145.271C175.847 146.848 175.539 148.456 175.168 150.048C174.925 151.092 174.375 151.954 173.473 152.532C172.275 153.3 171.006 153.961 169.825 154.753C166.887 156.728 165.025 159.522 163.94 162.838C163.333 164.693 162.951 166.591 163.302 168.579C163.515 169.786 163.604 171.016 163.738 172.237C163.759 172.432 163.719 172.633 163.707 172.831C163.449 172.808 163.067 172.882 162.957 172.742C162.654 172.36 162.326 171.908 162.257 171.447C162.051 170.069 161.97 168.674 161.826 167.287C161.796 166.998 161.709 166.715 161.649 166.429C161.392 166.714 161.097 166.975 160.884 167.289C159.457 169.391 158.052 171.509 156.623 173.608C156.518 173.762 156.273 173.82 156.094 173.923C156.047 173.602 155.858 173.207 155.98 172.974C156.432 172.108 156.927 171.25 157.516 170.471C158.893 168.65 160.455 166.955 161.706 165.055C162.531 163.803 162.978 162.293 163.537 160.877C164.109 159.427 165.014 158.24 166.183 157.23C167.657 155.957 169.126 154.675 170.644 153.349C171.676 152.256 172.78 151.296 173.615 150.142C174.716 148.62 175.108 146.766 175.554 144.959C176.497 141.139 178.175 137.676 180.654 134.608C181.271 133.844 181.856 133.042 182.56 132.366C182.942 131.998 183.541 131.852 184.049 131.621C184.109 131.593 184.215 131.665 184.3 131.691ZM46.3233 97.8241C47.3902 98.1001 47.5444 99.0275 46.7285 99.736C44.8755 101.344 43.9937 103.397 43.8581 105.781C43.7831 107.097 43.9062 108.426 43.8334 109.742C43.592 114.084 44.8599 118.081 46.7376 121.893C48.5324 125.538 51.1463 128.54 54.8968 130.293C57.0487 131.299 59.3502 132.005 61.6165 132.75C63.5847 133.396 65.6019 133.896 67.5913 134.481C69.543 135.054 71.4657 135.575 73.5336 134.885C74.5944 134.531 75.3904 135.48 74.984 136.508C73.4478 140.396 72.1387 144.432 69.4403 147.71C67.8218 149.676 65.949 151.496 63.9457 153.075C61.0042 155.393 57.6225 157.046 54.2446 158.674C50.9496 160.262 47.729 162.003 44.4197 163.559C40.6914 165.312 36.9133 166.962 33.1327 168.602C30.0826 169.925 27.0035 171.182 23.9213 172.43C23.1843 172.728 22.3948 172.937 21.6094 173.068C20.8224 173.198 19.0935 171.964 18.7846 171.148C18.0008 169.078 17.468 166.95 17.2479 164.744C17.114 163.402 16.9338 162.064 16.7266 160.724C16.6787 160.628 16.6787 160.533 16.7266 160.391C16.8062 158.555 16.8397 156.766 16.8619 154.978C16.8625 154.928 16.7425 154.878 16.6787 154.828V154.115C16.7106 154.067 16.7704 154.068 16.7704 154.067C16.8307 152.411 16.8819 150.755 16.9462 149.1C16.967 148.565 17.0275 148.032 17.0605 147.497C17.3346 143.059 17.862 138.648 18.9979 134.345C19.9044 130.911 21.1013 127.571 22.556 124.309C24.2154 120.588 26.2328 117.088 28.5573 113.761C29.7417 112.066 31.0352 110.432 32.4115 108.887C34.0675 107.028 35.7689 105.187 37.6247 103.531C39.7434 101.641 42.0203 99.918 44.3066 98.2271C44.8157 97.8505 45.7158 97.6672 46.3233 97.8241ZM43.543 100.433C43.4356 100.481 43.3141 100.511 43.2228 100.581C40.348 102.759 37.4906 104.961 35.1101 107.695C33.6313 109.393 32.1196 111.068 30.7234 112.832C27.3302 117.12 24.7043 121.845 22.7049 127.06C22.637 127.254 22.5583 127.445 22.5029 127.643C21.6438 130.712 20.7348 133.77 19.9552 136.859C19.6093 138.229 19.5101 139.663 19.3286 141.072C19.129 142.623 18.9066 144.173 18.8008 145.731C18.7137 147.015 18.8311 148.311 18.77 149.598C18.6941 151.196 18.4731 152.788 18.4195 154.386C18.3834 155.466 18.5576 156.55 18.5842 157.634C18.6163 158.944 18.5674 160.255 18.5994 161.565C18.6258 162.639 18.6515 163.72 18.8004 164.781C18.9828 166.081 19.3077 167.36 19.5449 168.653C19.8875 170.52 20.6543 171.242 22.482 171.374C23.7628 171.467 24.7364 170.71 24.9157 169.51C24.9375 169.364 25.1671 169.11 25.197 169.124C26.8118 169.882 28.2134 169.119 29.6286 168.519C32.6357 167.242 35.6563 165.995 38.6333 164.653C43.0627 162.655 47.4738 160.616 51.863 158.533C53.917 157.558 55.9338 156.496 57.9106 155.375C61.7686 153.187 65.2955 150.592 68.1516 147.142C70.3655 144.467 71.734 141.427 72.527 138.101C72.6773 137.469 72.4559 136.92 71.7002 136.758C69.6527 136.318 67.6099 135.856 65.5594 135.431C61.3916 134.569 57.3625 133.367 53.6167 131.263C48.8072 128.561 45.7262 124.481 43.8758 119.44C42.9982 117.049 42.2931 114.572 42.3114 111.968C42.325 110.013 42.1529 108.041 42.3613 106.108C42.5538 104.321 43.1442 102.578 43.5521 100.814C43.5799 100.694 43.5474 100.56 43.543 100.433ZM123.742 128.687C124.882 129.47 126.009 130.272 127.114 131.104C127.413 131.33 127.437 131.554 127.572 130.964C127.785 130.042 129.097 129.784 129.883 130.439C131.685 131.943 132.595 133.964 133.255 136.162C133.827 138.068 133.6 140.006 133.656 141.932C133.692 143.169 134.849 144.101 136.065 144.15C136.963 144.187 137.908 144.582 138.717 145.028C140.673 146.107 141.931 147.809 142.548 149.953C143.214 152.262 142.594 154.318 141.256 156.236C140.039 157.981 138.931 159.809 137.164 161.088C136.187 161.796 135.061 162.383 134.296 163.277C133.474 164.237 132.531 164.863 131.412 165.295C128.657 166.358 125.645 164.979 124.296 162.682C123.08 160.611 120.152 161.066 119.018 162.744C118.523 163.476 118.387 164.443 118.017 165.271C117.79 165.779 118.011 165.702 118.351 165.651C120.035 165.401 121.721 165.161 123.406 164.923C123.493 164.911 123.586 164.945 123.676 164.957C123.609 165.008 123.547 165.068 123.475 165.109C121.803 166.054 119.993 166.587 118.101 166.813C116.667 166.984 115.202 167.258 113.788 167.113C112.674 166.999 111.541 166.446 110.557 165.854C109.397 165.155 109.048 163.969 109.071 162.582C109.114 159.891 110.147 157.62 111.852 155.651C112.343 155.084 113.21 154.845 113.899 154.448C114.162 154.297 114.543 154.277 114.08 153.791C112.056 151.664 110.257 149.361 109.027 146.665C108.833 146.239 108.632 145.8 108.547 145.346C108.495 145.067 108.573 144.669 108.754 144.477C108.868 144.356 109.32 144.443 109.549 144.568C109.892 144.755 110.164 145.069 110.481 145.31C111.021 145.72 111.32 145.545 111.174 144.905C110.759 143.086 111.14 141.359 111.78 139.691C112.125 138.791 112.687 137.969 113.208 137.15C113.257 137.072 113.759 137.189 113.977 137.33C114.381 137.592 114.731 137.938 115.104 138.248C115.129 137.751 115.137 137.252 115.186 136.757C115.215 136.464 115.287 136.169 115.376 135.886C115.823 134.47 116.063 134.398 117.245 135.286C117.403 135.405 117.593 135.483 117.769 135.58L117.82 135.219C117.828 135.159 117.835 135.099 117.84 135.039C117.97 133.482 117.659 132.069 116.52 130.913C116.507 130.9 116.754 130.493 116.896 130.482C118.535 130.353 120.175 130.286 121.675 131.161C121.982 131.34 122.287 131.521 122.641 131.748C122.784 131.618 122.943 131.448 122.963 131.263C123.051 130.425 123.091 129.581 123.188 128.744C123.194 128.699 123.619 128.602 123.742 128.687ZM112.819 155.798C112.782 155.867 112.758 155.949 112.706 156.004C110.841 157.973 109.971 160.312 110.04 163.025C110.077 164.498 110.863 165.583 112.336 165.852C113.272 166.023 114.244 166.015 115.2 166.041C115.316 166.044 115.505 165.774 115.549 165.603C115.831 164.507 115.811 163.285 116.985 162.445C117.313 162.318 117.641 162.192 117.968 162.064C118.117 162.006 118.381 161.953 118.387 161.879C118.401 161.723 118.326 161.48 118.206 161.406C117.884 161.207 117.533 160.988 117.171 160.938C115.502 160.706 114.318 159.827 113.639 158.313C113.316 157.593 113.14 156.807 112.898 156.051C112.871 155.967 112.845 155.882 112.819 155.798ZM117.27 163.111C117.144 163.592 116.999 164.068 116.909 164.554C116.893 164.635 117.149 164.87 117.224 164.847C117.526 164.755 117.624 163.299 117.27 163.111ZM124.188 129.723C124.29 130.072 124.435 130.416 124.486 130.773C124.602 131.582 124.533 132.356 123.737 132.833C123.102 133.214 122.626 132.756 122.193 132.422C121.212 131.662 120.051 131.563 118.899 131.419C118.27 131.34 118.241 131.599 118.447 132.141C118.749 132.937 119.126 133.783 119.102 134.598C119.087 135.109 118.434 135.636 117.999 136.09C117.593 136.513 117.204 136.313 116.882 135.895C116.833 135.831 116.674 135.851 116.566 135.833C116.574 136.004 116.551 136.184 116.594 136.347C116.845 137.314 116.484 138.249 115.47 138.806C114.767 139.191 114.272 138.603 113.845 138.148C113.524 137.806 113.495 138.014 113.359 138.274C112.173 140.543 112.037 142.915 112.667 145.354C112.823 145.96 112.544 146.262 112.044 146.239C111.461 146.212 110.89 145.983 110.308 145.866C110.039 145.812 109.758 145.816 109.482 145.794C109.557 146.059 109.592 146.345 109.713 146.587C110.719 148.588 112.012 150.398 113.691 151.869C114.681 152.737 115.289 153.498 115.259 154.995C115.22 156.951 116.261 158.55 118.066 159.614C119.504 160.46 121.033 160.283 122.55 160.336C123.326 160.362 123.89 160.631 124.352 161.246L124.536 161.492C125.482 162.763 126.419 164.028 128.115 164.472C130.026 164.973 131.774 164.772 133.248 163.425C133.555 163.145 133.558 162.474 133.571 161.98C133.574 161.89 132.951 161.731 132.608 161.693C131.235 161.539 129.855 161.888 128.469 161.513C126.51 160.983 124.711 160.202 123.227 158.79C122.947 158.523 122.712 158.21 122.456 157.919C122.908 158.025 123.36 158.128 123.809 158.24C123.922 158.268 124.05 158.301 124.131 158.376C126.229 160.309 128.691 161.152 131.537 160.927C134.425 160.699 135.913 159.183 136.062 156.648C136.216 154.03 135.71 151.495 134.506 149.122C134.332 148.779 134.333 148.303 134.375 147.901C134.539 146.34 134.93 144.764 133.255 143.653C132.973 143.467 132.895 142.843 132.876 142.414C132.819 141.141 132.418 140.667 131.176 140.552C130.419 140.481 129.995 140.028 129.822 139.317C129.772 139.111 129.774 138.892 129.753 138.679C129.551 138.861 129.295 139.009 129.157 139.23C128.454 140.354 127.407 141.05 126.305 141.722C125.747 142.063 125.567 142.024 125.428 141.393C125.363 141.096 125.122 140.838 124.961 140.562C124.805 140.783 124.644 141 124.496 141.226C124.3 141.524 124.162 141.876 123.916 142.122C123.036 142.996 122.148 143.866 121.2 144.663C120.994 144.836 120.375 144.839 120.218 144.669C120.011 144.445 120.039 143.973 120.029 143.606C120.019 143.241 120.11 142.873 120.111 142.507C120.112 142.363 119.999 142.104 119.925 142.099C119.769 142.09 119.526 142.167 119.454 142.288L119.082 142.916C118.709 143.545 118.343 144.179 118.043 144.842C117.24 146.617 116.911 148.504 116.867 150.452C116.861 150.727 116.568 151.022 116.348 151.249C116.272 151.327 115.884 151.269 115.86 151.199C115.757 150.891 115.677 150.553 115.698 150.232C115.732 149.725 115.864 149.225 115.938 148.719C116.389 145.667 117.71 143.071 119.99 140.983C120.074 140.907 120.366 140.901 120.371 140.918C120.578 141.626 120.772 142.338 120.946 143.055C120.985 143.216 120.949 143.396 120.948 143.568C121.101 143.499 121.271 143.454 121.404 143.356C122.846 142.288 124 140.974 124.828 139.372C125.027 138.986 125.307 138.641 125.549 138.277L125.975 139.052C126.116 139.311 126.255 139.57 126.388 139.833C126.439 139.934 126.359 140.101 126.408 140.204C126.444 140.281 126.658 140.367 126.682 140.343C127.419 139.582 128.127 138.792 128.875 138.043C129.161 137.756 129.702 137.283 129.838 137.367C130.283 137.639 130.61 138.117 130.947 138.544C131.024 138.642 130.9 138.889 130.971 139.003C131.101 139.211 131.379 139.556 131.471 139.52C131.934 139.341 132.398 139.107 132.771 138.787C132.921 138.659 132.837 138.259 132.764 137.887C132.38 135.46 131.422 133.315 129.673 131.556C129.563 131.446 129.449 131.338 129.337 131.229C129.307 131.376 129.277 131.522 129.247 131.668C129.08 132.473 128.213 132.959 127.588 132.471C126.798 131.855 126.172 131.034 125.417 130.368C125.08 130.07 124.602 129.933 124.188 129.723ZM191.014 149.604C190.946 149.671 190.832 149.73 190.819 149.807C190.775 150.079 190.708 150.367 190.751 150.632C190.986 152.085 191.282 153.529 191.5 154.985C191.88 157.523 192.516 159.987 193.827 162.21C194.292 162.997 195.047 163.617 195.68 164.303C195.752 164.381 195.893 164.396 196.002 164.44C195.997 164.373 196 164.304 195.987 164.238C195.833 163.445 195.773 162.619 195.504 161.866C194.861 160.072 194.12 158.312 193.323 156.444C192.845 155.149 192.34 153.864 191.899 152.557C191.595 151.658 191.38 150.728 191.122 149.814C191.101 149.739 191.051 149.673 191.014 149.604ZM242.17 145.34C242.167 145.427 241.985 145.499 241.901 145.591C241.672 145.842 241.404 146.073 241.233 146.36C239.35 149.52 238.361 153 237.595 156.556C237.391 157.5 237.211 158.449 237.019 159.585C236.955 160.13 236.827 160.676 236.845 161.218C236.866 161.848 236.86 162.553 237.137 163.085C237.914 164.577 239.999 164.534 241.278 163.749C242.462 163.022 243.03 161.85 243.672 160.744C244.764 158.858 245.676 156.866 246.811 155.007C248.355 152.48 249.878 149.963 250.575 147.044C250.784 146.166 250.337 145.567 249.399 145.594C247.194 145.658 245.05 145.223 242.904 144.821C242.182 144.685 242.199 144.648 242.17 145.34ZM135.494 144.944C135.113 146.586 135.357 148.153 135.83 149.701C136.518 151.958 137.269 154.198 137.038 156.609C136.877 158.297 136.12 159.63 134.67 160.561C134.447 160.704 134.347 161.039 134.19 161.285C134.484 161.346 134.779 161.46 135.07 161.449C135.249 161.442 135.443 161.268 135.593 161.128C136.665 160.132 137.867 159.233 138.755 158.09C139.647 156.941 140.224 155.546 141.034 154.164C141.219 153.28 141.439 152.402 141.584 151.511C141.91 149.513 140.909 147.59 139.086 146.911C137.892 146.467 136.585 146.301 136.078 144.852C135.995 144.615 135.686 144.118 135.494 144.944ZM77.7499 101.601C80.08 101.878 82.426 102.31 84.6616 103.01C87.0575 103.76 89.1566 105.188 90.8557 107.068C93.1718 109.632 94.6829 112.612 95.3541 116.034C95.6384 117.483 95.7281 118.921 95.7003 120.378C95.683 121.303 95.5877 122.226 95.5179 123.149C95.3684 125.123 95.8637 127.001 96.3538 128.882C96.8556 130.809 96.6727 132.739 96.4959 134.696C96.2351 137.587 95.1474 140.202 93.9679 142.774C93.2082 144.43 92.1799 145.967 91.2214 147.526C90.4106 148.844 89.5271 150.119 88.6283 151.46C87.4159 153.368 86.2329 155.218 85.0949 157.095C84.5936 157.923 84.1854 158.807 83.7325 159.663C83.6771 159.768 83.622 159.88 83.5406 159.963C83.2598 160.251 82.9673 160.527 82.6791 160.808C82.6518 160.397 82.4897 159.939 82.6184 159.585C83.6498 156.76 85.2388 154.238 86.9617 151.79C89.0478 148.827 91.2643 145.943 92.7437 142.597C93.7157 140.4 94.4827 138.138 94.7531 135.738C94.9099 134.347 95.0859 132.952 95.1179 131.556C95.15 130.169 95.0139 128.779 94.9433 127.391C94.9398 127.322 94.8198 127.196 94.8133 127.2C94.6582 127.289 94.4796 127.365 94.3678 127.496C93.7742 128.196 93.2078 128.917 92.6133 129.616C91.1031 131.391 89.2645 132.586 86.944 133.103C84.6516 133.613 82.7246 132.946 81.0957 131.452C79.0322 129.558 79.0634 127.243 80.483 125.051C81.7821 123.046 83.6645 121.983 86.0855 121.643C88.4524 121.31 90.6013 121.967 92.7502 122.668C93.5445 122.928 94.0333 123.206 94.071 122.083C94.1139 120.811 94.035 119.522 94.217 118.271C94.4506 116.662 93.8899 115.258 93.4362 113.797C92.5387 110.907 90.8045 108.645 88.4845 106.732C86.7043 105.264 84.7075 104.255 82.53 103.663C80.2819 103.053 78.0004 102.773 75.6088 103.015C71.7348 103.408 68.3683 104.891 65.3094 107.159C63.1423 108.766 61.4562 110.847 59.9616 113.085C59.7389 113.418 59.3714 113.655 59.072 113.938C58.698 114.291 58.1992 114.393 57.9319 113.98C57.7295 113.666 57.6558 112.997 57.8539 112.742L58.3149 112.147C59.2392 110.957 60.1813 109.767 61.2789 108.754C62.6236 107.513 64.1649 106.468 65.6916 105.444C68.2435 103.733 71.0393 102.581 74.0965 102.113C75.3168 101.926 76.5691 101.461 77.7499 101.601ZM114.463 157.166C114.448 157.287 114.409 157.41 114.423 157.527C114.552 158.619 115.267 159.342 116.077 159.947C116.347 160.15 116.822 160.079 117.203 160.133C117.002 159.823 116.814 159.504 116.595 159.207C116.465 159.031 116.287 158.89 116.13 158.543C115.664 158.139 115.199 157.734 114.73 157.335C114.651 157.267 114.552 157.222 114.463 157.166ZM264.764 89.5011C263.743 90.3504 262.728 91.2101 261.76 92.1171C260.171 93.6047 259.164 95.5079 258.332 97.4579C256.582 101.558 254.964 105.715 253.308 109.854C250.867 115.955 248.44 122.062 246.007 128.356C245.879 128.558 245.716 128.745 245.63 128.963C244.083 132.895 242.551 136.831 241.004 140.763C239.811 143.793 238.546 146.796 237.419 149.849C236.376 152.673 235.701 155.604 235.308 158.591C235.27 158.879 235.368 159.185 235.402 159.482C235.431 159.229 235.421 158.963 235.503 158.728C235.558 158.571 235.811 158.48 235.862 158.323C236.831 155.327 237.721 152.303 238.762 149.332C239.478 147.286 240.378 145.303 241.235 143.309C241.635 142.378 241.993 142.288 242.892 142.733C243.5 143.034 244.119 143.315 244.713 143.641C245.652 144.156 246.646 144.352 247.708 144.257C248.464 144.19 249.41 143.317 249.428 142.505C249.447 141.71 249.093 141.073 248.173 140.989C247.597 140.936 247.007 140.965 246.444 140.855C246.028 140.774 245.645 140.53 245.247 140.358C245.506 140.16 245.747 139.928 246.032 139.776C246.208 139.682 246.45 139.711 246.662 139.687C248.086 139.522 249.294 140.203 250.546 140.691C252.8 141.569 254.071 141.401 255.216 139.898C255.831 139.09 256.244 138.11 256.651 137.166C258.498 132.883 260.458 128.641 262.094 124.278C263.786 119.765 265.363 115.186 266.602 110.533C267.936 105.528 269.396 100.516 269.654 95.2843C269.725 93.8435 269.602 92.449 269.19 91.0268C268.526 88.7367 266.365 88.169 264.764 89.5011ZM186.397 135.349C186.315 135.505 186.212 135.655 186.156 135.82C185.44 137.942 185.552 140.066 186.543 142.03C187.58 144.087 188.851 146.027 190.031 148.011C190.082 148.096 190.249 148.111 190.361 148.158C190.398 148.005 190.499 147.833 190.46 147.702C190.122 146.544 189.738 145.398 189.421 144.235C189.356 143.994 189.427 143.594 189.594 143.445C189.842 143.224 190.259 143.01 190.558 143.06C191.424 143.204 192.143 144.233 192.228 145.26C192.369 146.956 192.419 148.666 192.676 150.345C193.088 153.045 194.153 155.545 195.336 157.992C195.399 158.125 195.525 158.228 195.621 158.345C195.716 158.193 195.855 158.054 195.897 157.889C196.045 157.313 196.072 156.691 196.303 156.153C197.116 154.26 197.103 152.439 196.108 150.605C195.564 149.602 195.14 148.533 194.567 147.398C194.162 146.234 193.97 144.927 193.303 143.937C192.275 142.411 190.889 141.128 189.715 139.694C188.679 138.427 187.725 137.094 186.734 135.791L186.397 135.349ZM132.118 153.424C132.336 153.797 132.504 154.142 132.781 154.345C133.819 155.103 133.703 157.147 132.681 157.777C132.452 157.918 132.057 157.799 131.738 157.8C131.738 157.542 131.659 157.251 131.751 157.03C132.398 155.473 131.727 154.198 130.032 153.79C129.766 153.726 129.525 153.564 129.272 153.448C129.505 153.305 129.732 153.154 129.97 153.023C130.224 152.881 130.488 152.757 130.749 152.627C131.729 152.138 131.886 152.218 132.118 153.424ZM133.835 145.284C133.988 146.17 133.941 147.127 133.782 148.018C133.658 148.713 131.835 149.096 130.844 148.967C129.797 148.831 129.152 148.206 128.501 147.54C127.934 146.959 127.288 146.503 126.488 146.825C125.676 147.153 125.645 147.96 125.683 148.818C125.456 150.328 125.017 151.55 123.698 152.444C121.953 153.628 119.941 152.761 119.157 151.326C119.068 151.164 118.911 151.039 118.785 150.897C118.69 151.036 118.566 151.164 118.505 151.316C118.034 152.508 117.522 153.686 117.132 154.904C116.889 155.662 117.235 156.007 118.011 156C118.529 155.994 119.047 155.99 119.565 156.004C119.701 156.008 119.835 156.083 119.97 156.125C119.895 156.251 119.849 156.448 119.74 156.493C119.251 156.694 118.671 157.098 118.258 156.978C117.171 156.663 116.219 156.068 116.157 154.722C116.056 152.529 117.233 150.873 118.485 149.26C119.912 147.423 122.017 146.774 124.139 146.173C126.805 145.418 129.47 144.66 132.137 143.907C132.692 143.75 133.683 144.41 133.835 145.284ZM123.639 146.991C122.688 147.368 121.748 147.784 120.84 148.251C119.271 149.059 119.106 150.487 120.412 151.619C121.771 152.797 123.515 152.398 124.028 150.715C124.316 149.772 124.377 148.76 124.54 147.59C124.585 146.882 124.138 146.792 123.639 146.991ZM127.579 147.692C127.663 147.725 127.744 147.768 127.83 147.79C129.121 148.119 130.124 150.221 129.511 151.359C129.39 151.583 129.142 151.736 128.952 151.923C128.905 151.737 128.853 151.553 128.811 151.366C128.69 150.813 128.573 150.259 128.411 149.659C128.117 149.055 127.865 148.497 127.62 147.936C127.588 147.863 127.592 147.774 127.579 147.692ZM131.59 144.491C130.52 144.865 129.491 145.354 128.255 145.795C128.222 145.939 128.121 146.113 128.17 146.221C128.786 147.573 131.102 148.527 132.49 148.017C133.308 147.717 133.762 146.679 133.492 145.723C133.305 145.06 132.207 144.276 131.59 144.491ZM229.924 111.739C231.767 111.919 233.239 112.724 234.361 114.31C234.977 115.182 234.508 115.904 234.364 116.636C233.841 119.275 233.21 121.892 232.611 124.516C232.118 126.675 231.615 128.833 231.11 130.991C230.438 133.865 229.762 136.739 229.081 139.612C228.591 141.679 228.095 143.744 227.59 145.807C227.537 146.023 227.402 146.218 227.306 146.423C227.217 146.207 227.035 145.984 227.053 145.779C227.192 144.15 227.334 142.52 227.546 140.9C227.769 139.196 228.042 137.496 228.346 135.804C228.71 133.786 229.092 131.768 229.533 129.766C230.534 125.232 231.826 120.785 233.304 116.386C233.891 114.639 232.223 113.486 230.873 113.516C230.012 113.535 229.267 113.732 228.475 113.925C228.345 113.958 228.138 113.668 227.967 113.431C227.967 113.274 227.947 113.201 227.97 113.148C228.154 112.731 227.487 111.966 228.469 111.874C228.955 111.829 229.448 111.693 229.924 111.739ZM135.375 137.115C136.532 137.133 137.688 137.286 138.843 137.276C140.496 137.26 142.073 137.611 143.549 138.262C144.847 138.834 146.046 139.625 147.337 140.367C148.842 141.707 149.988 143.207 150.429 145.128C150.487 145.38 150.209 145.707 150.087 145.999C149.89 145.824 149.568 145.678 149.513 145.466C148.464 141.4 145.51 139.421 141.652 138.429C139.545 137.886 137.413 138.02 135.273 138.211C134.996 138.235 134.376 138.602 134.352 137.871C134.331 137.201 134.898 137.108 135.375 137.115ZM190.361 80.1333C186.603 80.6667 183.824 82.823 181.718 85.9187C179.423 89.2926 178.655 93.1272 178.555 97.0679C178.483 99.8811 178.819 102.713 179.099 105.524C179.308 107.625 179.605 109.73 180.067 111.789C180.648 114.383 181.45 116.927 182.134 119.499C183.278 123.799 184.719 127.998 186.545 132.056C188.492 136.381 191.051 140.299 194.647 143.468C195.808 144.491 197.154 145.23 198.719 145.385C200.668 145.579 202.562 145.212 204.425 144.642C208.413 143.422 212.443 142.326 216.391 140.99C219.996 139.77 222.241 137.154 223.042 133.439C223.642 130.654 224.149 127.844 224.568 125.026C224.926 122.628 225.215 120.208 225.316 117.789C225.394 115.939 225.152 114.073 225.011 112.217C224.904 110.802 224.732 109.393 224.589 107.791C224.125 104.975 223.281 102.281 222.171 99.6463C220.484 95.6436 218.16 92.1214 215.018 89.082C211.593 85.7692 207.5 83.6615 203.048 82.212C200.536 81.3938 197.936 80.7919 195.334 80.3179C193.714 80.0223 191.981 79.9032 190.361 80.1333ZM78.4784 105.896C78.3666 106.071 78.2669 106.255 78.1412 106.418C75.8034 109.459 73.3286 112.404 71.1572 115.559C68.5958 119.281 66.4551 123.268 64.7933 127.56C64.1463 128.906 63.5539 130.207 62.9434 131.5C62.6205 132.185 61.9484 132.099 61.4904 131.878C60.9947 131.639 61.0558 131.134 61.353 130.602C63.7996 126.223 66.1479 121.788 68.6512 117.442C70.187 114.777 71.8458 112.168 73.6376 109.67C74.5961 108.333 75.9481 107.278 77.1389 106.112C77.2971 105.957 77.5441 105.848 77.7647 105.815C77.9935 105.78 78.2396 105.864 78.4784 105.896ZM84.7509 123.376C82.1296 124.071 80.8266 125.99 81.0537 128.513C81.1967 130.104 81.8259 131.122 83.3339 131.55C85.062 132.042 86.7875 131.817 88.4147 131.163C90.7491 130.224 92.6588 128.804 93.2381 125.956C93.2984 125.189 93.0778 124.627 92.394 124.128C89.9708 122.356 87.4133 122.669 84.7509 123.376ZM139.395 73.4149C139.331 73.4946 139.267 73.5262 139.204 73.6055C138.999 73.6978 138.745 73.6805 138.596 73.7966C134.89 76.6922 132.566 80.4747 131.344 84.9693C130.764 87.1034 130.501 89.2805 130.598 91.4762C130.767 95.3398 131.979 98.8715 134.177 102.085C136.578 105.596 139.768 108.18 143.577 109.993C145.759 111.032 148.076 111.779 150.53 111.91C151.634 111.969 152.764 111.787 153.847 111.948C155.928 112.258 157.864 111.698 159.786 111.139C163.657 110.013 167.063 108.068 169.981 105.257C172.133 103.183 173.995 100.928 175.224 98.1929C175.249 98.1391 175.279 98.088 175.306 98.036C175.343 98.1066 175.418 98.1829 175.41 98.2479C175.227 99.6363 175.315 101.042 174.328 102.281C171.272 106.117 167.727 109.348 163.135 111.224C161.17 112.027 159.072 112.543 156.998 113.031C155.75 113.325 154.426 113.451 153.142 113.417C149.894 113.331 146.761 112.646 143.763 111.356C140.563 109.979 137.761 108.044 135.372 105.532C132.595 102.611 130.656 99.2099 129.837 95.2562C129.511 93.6814 129.252 92.0538 129.274 90.4544C129.343 85.4576 130.812 80.8509 133.721 76.7606C134.514 75.6461 135.58 74.7201 136.548 73.7329C137.004 73.268 139.029 73.0439 139.395 73.4149ZM143.479 73.4634C143.527 73.469 143.569 73.5275 143.614 73.5618C143.531 73.5912 143.449 73.6242 143.365 73.6497C140.104 74.6455 137.781 76.7862 136.229 79.7506C135.278 81.5672 134.763 83.5414 134.472 85.6006C133.882 89.7862 134.849 93.6398 136.858 97.2313C139.34 101.669 142.851 105.045 147.711 106.794C149.26 107.351 150.862 107.95 152.479 108.096C156.362 108.446 160.091 107.75 163.548 105.805C166.124 104.355 168.242 102.414 170.141 100.161C172.344 97.5476 173.596 94.5017 174.375 91.2465C174.648 90.1051 174.531 88.871 174.603 87.6798C174.616 87.4566 174.678 87.2365 174.718 87.015C174.979 87.1498 175.382 87.2209 175.476 87.4306C175.81 88.179 176.326 89.004 176.25 89.7455C176.091 91.2691 175.709 92.797 175.214 94.253C173.929 98.0321 171.659 101.185 168.712 103.839C165.971 106.309 162.811 108.034 159.214 108.9C157.997 109.193 156.765 109.53 155.525 109.601C154.378 109.668 153.202 109.467 152.057 109.274C150.53 109.017 148.972 108.803 147.516 108.307C143.495 106.94 140.122 104.616 137.403 101.283C135.23 98.6214 133.975 95.5968 133.373 92.2796C132.665 88.3766 133.299 84.5953 134.743 80.944C135.72 78.4736 137.145 76.2844 139.097 74.4596C139.245 74.3214 139.327 74.1121 139.439 73.8408C139.503 73.7139 139.566 73.6822 139.629 73.6502C140.881 72.936 142.186 73.313 143.479 73.4634ZM286.793 107.499C288.1 107.513 289.406 107.691 290.713 107.793C292.304 107.918 293.894 108.075 295.488 108.136C297.013 108.195 298.544 108.111 300.069 108.165C300.821 108.191 301.587 108.324 302.302 108.536C302.545 108.608 302.651 109.073 302.819 109.357C302.587 109.426 302.36 109.515 302.122 109.559C301.846 109.611 301.562 109.623 301.233 109.609C298.062 109.505 294.938 109.423 291.814 109.399C290.55 109.389 289.283 109.552 288.018 109.544C287.397 109.541 286.776 109.338 286.159 109.208C285.516 109.071 285.324 108.538 285.564 108.149C285.77 107.814 286.37 107.494 286.793 107.499ZM152.895 76.1011C153.61 79.5101 154.272 82.9309 154.973 86.3434C155.333 88.0953 154.905 88.8225 153.399 89.6727C151.408 90.7967 149.483 92.0486 147.58 93.3257C146.627 93.9648 145.845 94.1876 145.324 93.6823C144.831 93.2052 144.75 92.7849 145.408 92.3372C147.465 90.9367 149.532 89.5457 151.521 88.0477C151.955 87.7214 152.345 86.9427 152.3 86.4127C152.137 84.477 151.792 82.5565 151.494 80.6338C151.37 79.8317 151.191 79.0382 151.037 78.1447C150.963 77.3565 150.752 76.6393 150.867 75.9815C150.938 75.569 151.458 75.0061 151.849 74.9354C152.544 74.8102 152.779 75.546 152.895 76.1011ZM284.06 68.1351C284.176 68.2565 284.24 68.5867 284.158 68.7076C283.766 69.2856 283.316 69.8251 282.838 70.4257C281.298 72.5252 279.825 74.5914 278.291 76.612C278.091 76.8763 277.441 77.1285 277.236 77.0037C276.715 76.6861 277.184 76.3472 277.4 75.9876C278.834 73.5986 280.221 71.1828 281.642 68.7869C282.296 67.6836 283.36 67.4032 284.06 68.1351ZM240.373 37.2674C240.624 37.2884 240.906 37.5913 241.075 37.8411C241.696 38.7578 241.37 39.7882 241.247 40.7405C241.031 42.4021 240.64 44.0401 240.336 45.6902C240.194 46.4611 240.082 47.2376 239.957 48.1069C239.706 49.4004 239.434 50.5942 239.21 51.7976C238.803 53.9829 238.439 56.1764 238.03 58.3617C237.689 60.1848 237.321 62.0022 236.945 63.8178C236.327 66.7992 235.714 69.7818 235.053 72.7532C234.871 73.5683 234.237 73.8738 233.716 73.4838C233.54 73.352 233.365 73.0149 233.407 72.8195C234.381 68.2742 235.425 63.7446 236.369 59.1933C237.064 55.8471 237.561 52.4576 238.286 49.1187C238.976 45.9381 239.331 42.7492 239.229 39.4942C239.212 38.9312 239.476 38.3366 239.705 37.7983C239.809 37.5544 240.159 37.2494 240.373 37.2674ZM188.782 59.8398C188.965 60.1492 189.153 60.456 189.338 60.8612C189.648 62.5079 189.968 64.0553 190.264 65.6075C190.413 66.3901 190.528 67.1801 190.64 67.9696C190.668 68.1655 190.623 68.3726 190.612 68.575C190.339 68.529 189.898 68.5758 189.821 68.422C189.423 67.6303 189.065 66.8057 188.795 65.9568C188.487 64.9848 188.357 63.9461 188.009 62.9932C187.818 62.4715 187.299 62.0914 186.997 61.6009C186.736 61.1771 186.429 60.6918 186.416 60.2251C186.408 59.9261 186.856 59.423 187.173 59.3463C187.729 59.2124 188.388 59.1751 188.782 59.8398Z" fill="black"/>
<path d="M125.47 154.856C126.599 154.554 127.417 153.942 127.296 153.491C127.175 153.04 126.162 152.919 125.032 153.222C123.904 153.524 123.086 154.135 123.207 154.587C123.328 155.038 124.342 155.159 125.47 154.856Z" fill="#FFB61D"/>
<path fill-rule="evenodd" clip-rule="evenodd" d="M133.241 151.186C134.047 150.883 134.512 150.272 134.346 149.821C134.19 149.37 133.593 149.249 132.947 149.551C132.237 149.854 131.604 150.465 131.601 150.916C131.607 151.367 132.371 151.488 133.241 151.186Z" fill="#FFB61D"/>
</g>
<defs>
<clipPath id="clip0_1260_3262">
<rect width="325" height="325" fill="white"/>
</clipPath>
</defs>
</svg>
