<svg width="325" height="325" viewBox="0 0 325 325" fill="none" xmlns="http://www.w3.org/2000/svg">
<g clip-path="url(#clip0_1260_3437)">
<path d="M325 0H0V325H325V0Z" fill="#414141"/>
<path d="M236.982 282.1C262.959 284.367 309.998 248.733 273.815 196.083C236.368 135.078 300.3 91.4328 247.65 57.6328C209.486 33.1327 163.612 86.069 132.899 75.5598C67.3829 57.6328 25.9232 123.86 54.8163 165.967C76.4067 197.43 24.0429 219.05 45.0663 243.967C68.4663 271.7 87.009 241.719 121.333 247.996C171.166 257.109 206.883 279.473 236.982 282.1Z" fill="#FADEB4"/>
<path d="M187.593 66.8929L188.006 67.1394L188.415 67.3882C194.182 70.9337 192.701 76.6086 200.281 85.0409C216.698 103.305 232.395 122.256 247.324 141.832L248.501 143.379L248.843 143.83C254.399 151.183 256.843 155.908 256.981 161.578C257.082 165.772 261.385 168.589 258.265 171.838L258.096 172.011L258.08 172.026L258.028 172.083C257.286 172.88 256.455 173.588 255.549 174.191L255.306 174.348L255.23 174.402C251.41 177.006 246.912 178.088 242.718 177.289L242.494 177.244L242.311 177.205L242.288 177.366C238.037 205.395 229.372 232.751 216.712 258.118L216.327 258.886L215.932 259.669L215.705 260.113L215.473 260.558C214.299 262.793 213.447 264.028 212.176 265.162C210.397 266.748 208.143 267.632 205.362 267.991C203.393 268.246 201.539 268.243 198.411 268.064L197.862 268.032C185.305 267.27 172.697 267.275 160.133 268.045L158.955 268.119L157.982 268.183L157.84 268.199C155.938 268.401 154.215 268.545 152.565 268.636L152.154 268.657L151.694 268.678L151.61 268.685C149.653 268.86 147.698 269.052 145.746 269.263L142.417 269.64L139.614 269.961L138.381 270.096C138 270.136 137.643 270.173 137.295 270.207L135.977 270.329L135.884 270.4C135.837 270.433 135.79 270.466 135.742 270.498L135.594 270.592L135.441 270.683L134.944 270.952L134.611 270.703L134.515 270.627L134.424 270.546L134.338 270.461L134.118 270.477C129.328 270.81 125.351 270.687 121.599 269.97L121.258 269.903L120.928 269.835C112.426 268.035 105.375 262.455 103.527 255.177C96.5675 227.753 86.8305 201.033 74.5151 175.56L74.3474 175.215L74.266 175.264C71.3453 176.919 67.6754 176.513 64.4432 174.415L64.2763 174.305L64.1069 174.19L64.0679 174.173C63.0543 173.724 62.1539 172.917 61.5121 171.902L61.4224 171.756L61.3587 171.615L61.3344 171.625C60.2879 170.341 59.5136 168.9 59.0807 167.4L59.0183 167.174L58.9611 166.948C57.5748 161.191 59.358 155.259 63.723 147.733C64.9913 145.546 72.7016 132.652 83.0414 126.533C94.416 119.801 92.2983 120.397 94.7414 118.299C96.6333 115.916 89.0392 102.236 82.3333 95.333C75.6275 88.4304 102.023 81.4087 104.075 82.1674C104.613 82.3663 105.11 82.6125 105.569 82.9063L105.763 83.035L105.784 83.0497L105.836 82.9162L105.989 83.197L106.064 83.2534C106.993 83.961 107.754 84.8879 108.388 86.0349L108.505 86.2525L108.602 86.4414C109.315 87.8571 110.705 88.5734 111.367 91.2163L111.816 93.045L111.945 93.5593L112.07 94.0499C112.59 96.0454 113.533 97.4567 114.113 98.6566L114.183 98.7996L114.219 98.8707L114.381 98.6562C123.955 86.0531 134.993 76.3096 149.08 69.1016L148.977 69.1037C147.42 69.1037 151.492 67.2694 161.793 63.6238L162.377 63.4188L162.981 63.2113C170.591 60.6225 179.601 62.1765 187.593 66.8929Z" fill="#F5F5F5"/>
<path d="M244.392 176.207L244.168 176.162L243.986 176.123L243.962 176.283C239.711 204.313 231.047 231.669 218.386 257.036L218.001 257.804L217.606 258.586L217.379 259.031C216.081 261.551 215.204 262.873 213.85 264.08C212.072 265.666 209.818 266.55 207.036 266.909C205.067 267.163 203.693 266.362 198.671 265.908C215.759 256.587 218.407 238.963 224.384 227.5C241.744 194.205 230.971 185.145 244.392 176.207Z" fill="#E7EAEE"/>
<path d="M167.962 298.875C167.738 299.406 167.017 299.608 166.576 299.262C166.844 298.888 167.124 298.503 167.516 298.285C167.907 298.066 168.443 298.065 168.743 298.411C168.512 298.58 168.281 298.75 168.05 298.92L167.962 298.875Z" fill="#00160A"/>
<path d="M168.12 300.595C167.605 300.642 167.091 300.688 166.576 300.733C166.802 300.447 167.027 300.16 167.252 299.873C167.547 299.86 167.869 299.853 168.108 300.005C168.346 300.156 168.397 300.53 168.131 300.642L168.12 300.595Z" fill="#00160A"/>
<path d="M184.96 279.5C184.722 279.389 184.737 279.075 184.881 278.876C185.024 278.677 185.255 278.533 185.388 278.329C185.531 278.11 185.547 277.848 185.56 277.597C185.602 276.787 185.644 275.977 185.685 275.167C186.097 275.835 186.178 276.652 185.902 277.372C186.32 277.309 186.771 277.52 186.943 277.858C186.325 278.443 185.662 278.992 184.96 279.5Z" fill="#00160A"/>
<path d="M184.289 279.067C183.621 278.933 183.083 278.315 183.043 277.638C183.503 277.811 184.021 277.471 184.243 277.034C184.466 276.598 184.48 276.091 184.547 275.606C184.7 274.503 185.151 273.443 185.841 272.567C186.264 273.246 186.101 274.227 185.48 274.735C184.526 275.515 185.382 277.24 184.624 278.211C184.419 278.474 184.09 278.8 184.289 279.067Z" fill="#00160A"/>
<path d="M108.943 115.827C106.056 118.942 101.002 120.295 97.3865 118.059C94.4281 116.229 93.1498 112.68 91.7484 109.504C90.3084 106.242 88.5374 103.125 86.4708 100.217C85.0963 98.2825 83.1328 96.2428 80.7764 96.5687C81.2218 95.7956 82.3125 95.5989 83.1532 95.9031C83.9939 96.2069 84.6356 96.8846 85.2232 97.5567C88.1807 100.942 90.6126 104.782 92.407 108.899C93.2897 110.924 94.0294 113.036 95.2779 114.86C96.5263 116.684 98.4039 118.229 100.607 118.459C102.522 118.659 104.384 117.858 106.142 117.075C107.076 116.659 108.01 116.243 108.943 115.827Z" fill="#00160A"/>
<path d="M141.218 295.119C144.15 293.711 147.493 293.578 150.732 293.469C154.977 293.326 159.276 293.188 163.42 294.134C164.846 294.46 166.521 295.256 166.571 296.745C166.621 298.234 166.371 299.732 165.843 301.121C165.204 299.94 163.553 299.984 162.244 300.174C155.266 301.188 148.089 301.782 141.224 300.158C140.415 299.967 139.537 299.69 139.099 298.97C138.668 298.261 138.818 297.299 139.285 296.614C139.751 295.928 140.478 295.474 141.218 295.119ZM149.396 299.862C147.172 299.691 144.953 299.459 142.741 299.166C142.091 299.079 141.419 298.979 140.87 298.615C140.32 298.251 139.933 297.544 140.137 296.909C139.492 297.041 139.331 298.001 139.718 298.542C140.106 299.083 140.792 299.29 141.432 299.442C148.346 301.087 155.565 300.288 162.619 299.469C164.033 299.304 165.813 298.782 165.941 297.337C166.074 295.838 164.288 295.013 162.837 294.741C156.939 293.636 150.874 294.066 144.917 294.759C144.005 294.864 143.073 294.983 142.256 295.409C141.44 295.835 140.75 296.636 140.707 297.571C142.787 299.179 145.715 298.618 148.284 299.089C148.754 299.175 149.302 299.384 149.396 299.862Z" fill="#00160A"/>
<path d="M142.633 237.124C143.105 237.621 143.311 238.353 143.086 238.985C142.861 239.617 142.179 240.101 141.47 240.065C140.761 240.028 140.117 239.424 140.144 238.758C140.181 237.886 140.418 236.781 141.331 236.617C141.814 236.531 142.305 236.78 142.633 237.124ZM141.092 238.383C140.733 238.846 141.457 239.53 142.023 239.317C142.59 239.104 142.754 238.368 142.497 237.848C142.416 237.685 142.298 237.531 142.136 237.435C141.605 237.12 140.81 237.754 141.056 238.296L141.092 238.383Z" fill="#00160A"/>
<path d="M165.001 286.444C164.804 286.31 164.607 286.175 164.41 286.041C164.989 284.669 165.08 283.097 164.663 281.667C166.466 282.454 164.687 286.058 166.462 286.907C166.569 285.258 167.868 283.879 169.368 283.195C170.869 282.512 172.555 282.392 174.199 282.282C180.481 281.862 186.913 281.457 192.964 283.202C194.126 283.537 195.458 284.175 195.599 285.38C195.739 286.581 194.581 287.524 193.466 287.981C191.673 288.715 189.702 288.861 187.767 288.943C182.327 289.173 176.868 288.966 171.46 288.325C169.955 288.146 168.314 287.862 167.322 286.712C166.619 287.489 165.363 287.688 164.455 287.167C164.637 286.926 164.819 286.685 165.001 286.444ZM170.251 283.648C169.816 283.733 169.34 283.851 169.09 284.217C168.756 284.709 169.027 285.426 169.509 285.774C169.99 286.122 170.609 286.198 171.199 286.262C175.563 286.743 179.927 287.222 184.291 287.702C180.132 288.035 175.929 287.796 171.835 286.992C170.567 286.743 169.245 286.407 168.303 285.52C167.962 285.843 168.084 286.452 168.43 286.77C168.776 287.088 169.263 287.189 169.725 287.274C176.824 288.57 184.122 288.766 191.28 287.853C192.353 287.716 193.516 287.506 194.233 286.694C194.949 285.881 194.78 284.283 193.726 284.041C186.043 282.272 177.989 282.137 170.251 283.648Z" fill="#00160A"/>
<path d="M140.506 222.912C140.265 223.182 140.433 223.611 140.558 223.956C140.822 224.69 140.825 225.494 140.825 226.278C140.825 228.292 140.825 230.306 140.825 232.321C140.825 232.69 140.721 233.181 140.367 233.196C140.354 230.761 140.342 228.326 140.329 225.891C140.325 224.961 140.301 223.965 139.788 223.205C139.471 222.736 140.189 222.123 140.694 222.349C141.199 222.575 141.405 223.198 141.511 223.76C141.738 224.964 141.763 226.199 141.787 227.426C141.817 228.958 141.846 230.49 141.876 232.022C141.888 232.643 141.768 233.446 141.184 233.567C141.459 231.554 141.449 229.512 141.438 227.479C141.43 225.896 141.388 224.2 140.506 222.912Z" fill="#00160A"/>
<path d="M139.079 271.326C139.451 271.928 139.824 272.531 140.196 273.134C140.175 271.961 140.689 270.789 141.57 269.999C141.144 270.95 141.018 272.029 141.212 273.05C141.777 272.103 142.161 271.051 142.34 269.967C142.414 270.762 142.489 271.558 142.564 272.354C144.431 271.458 146.566 271.317 148.64 271.192C150.617 271.073 152.595 270.953 154.573 270.834C160.69 270.464 166.832 270.095 172.941 270.576C174.791 270.723 176.714 270.974 178.254 271.992C179.35 272.716 180.23 273.982 179.962 275.253C179.586 277.037 177.385 277.688 175.558 277.979C170.127 278.844 164.665 279.517 159.185 279.995C152.548 280.573 145.589 280.815 139.517 278.113C138.59 277.7 137.626 277.153 137.235 276.228C136.844 275.303 137.411 273.972 138.429 273.974C138.242 273.31 137.748 272.735 137.113 272.442C137.871 272.013 138.992 272.563 139.101 273.417C139.093 272.72 139.086 272.023 139.079 271.326ZM142.175 277.351C145.368 277.804 148.561 278.256 151.755 278.708C147.704 278.986 143.604 278.538 139.713 277.393C141.862 278.499 144.219 279.208 146.628 279.472C148.436 279.671 150.262 279.622 152.08 279.547C160.582 279.197 169.062 278.301 177.446 276.865C179.051 276.591 179.377 274.204 178.298 273.003C177.22 271.801 175.451 271.522 173.829 271.374C166.082 270.67 158.281 271.269 150.525 271.867C147.436 272.105 144.31 272.351 141.372 273.318C140.379 273.645 139.252 274.271 139.232 275.301C139.209 276.6 140.868 277.166 142.175 277.351ZM138.311 274.646C137.687 274.876 137.652 275.805 138.07 276.316C138.357 276.666 138.794 276.894 139.25 276.931C138.63 276.451 138.377 275.562 138.652 274.834C138.607 274.701 138.45 274.615 138.311 274.646Z" fill="#00160A"/>
<path d="M208.318 226.608C206.424 225.352 205.811 222.888 205.467 220.642C204.544 214.622 204.464 208.473 205.232 202.431C205.347 201.531 205.501 200.586 206.076 199.885C207.132 198.599 209.076 198.667 210.739 198.745C215.13 198.95 219.555 198.431 223.779 197.213C224.484 197.011 225.241 197.494 225.596 198.136C225.951 198.778 226 199.539 226.041 200.271C226.263 204.243 226.485 208.214 226.707 212.185C226.895 215.568 227.024 219.199 225.214 222.062C222.868 225.775 218.056 226.987 213.683 227.402C211.846 227.575 209.855 227.628 208.318 226.608ZM208.849 199.41C208.361 199.445 207.859 199.507 207.435 199.752C206.648 200.208 206.327 201.168 206.115 202.053C205.333 205.305 205.149 208.699 205.576 212.017C208.913 212.177 212.265 212.042 215.579 211.613C215.764 211.59 215.957 211.561 216.105 211.448C216.375 211.243 216.391 210.849 216.381 210.509C216.299 207.922 216.091 205.339 215.757 202.772C215.654 201.975 215.512 201.124 214.958 200.54C214.464 200.019 213.728 199.809 213.023 199.67C211.651 199.4 210.244 199.312 208.849 199.41ZM212.521 225.312C213.466 225.245 214.578 225.072 215.001 224.225C215.151 223.927 215.186 223.586 215.22 223.255C215.463 220.822 215.706 218.389 215.949 215.957C215.988 215.568 216.019 215.145 215.804 214.82C215.394 214.197 214.455 214.356 213.738 214.563C211.198 215.297 208.563 215.704 205.919 215.771C205.215 217.553 206.222 219.502 206.477 221.401C206.559 222.016 206.563 222.65 206.784 223.229C207.174 224.252 208.193 224.929 209.254 225.198C210.315 225.467 211.429 225.39 212.521 225.312ZM221.202 222.173C219.862 223.736 217.484 224.369 216.658 226.255C221.914 225.855 226.367 220.801 226.1 215.538C225.838 210.362 225.576 205.185 225.313 200.009C225.293 199.606 225.267 199.186 225.07 198.834C224.634 198.057 223.553 197.927 222.686 198.127C221.819 198.328 220.997 198.764 220.107 198.786C222.667 200.284 222.957 203.803 222.949 206.769C222.946 208.114 222.942 209.46 222.939 210.805C223.593 210.17 224.856 210.652 225.08 211.535C225.305 212.419 224.64 213.365 223.772 213.646C222.456 214.074 222.46 215.893 222.526 217.275C222.609 219.006 222.331 220.858 221.202 222.173ZM218.793 199.134C218.345 199.078 217.891 199.144 217.444 199.21C216.977 199.279 216.509 199.347 216.042 199.416C217.521 200.771 218.286 202.752 218.614 204.73C218.942 206.708 218.88 208.727 218.977 210.729C218.985 210.904 219.009 211.104 219.154 211.201C219.267 211.278 219.416 211.263 219.551 211.246C220.16 211.168 220.769 211.089 221.377 211.011C221.526 210.992 221.686 210.969 221.798 210.869C221.939 210.745 221.968 210.54 221.988 210.353C222.273 207.658 222.55 204.876 221.753 202.287C221.304 200.829 220.307 199.325 218.793 199.134ZM215.049 226.216C215.888 225.86 216.698 225.312 217.09 224.489C217.372 223.897 217.412 223.223 217.446 222.568C217.643 218.794 217.841 215.019 218.039 211.245C218.246 207.297 218.313 202.916 215.729 199.925C217.777 207.011 216.977 214.568 216.16 221.899C215.964 223.654 215.372 225.843 213.624 226.092C211.913 226.036 210.203 225.981 208.492 225.925C210.488 226.989 212.967 227.099 215.049 226.216ZM221.904 216.677C221.93 215.95 221.956 215.223 221.982 214.496C220.835 214.438 219.678 214.575 218.576 214.899C218.319 217.623 218.192 220.36 218.198 223.097C218.198 223.153 218.198 223.211 218.222 223.262C218.316 223.458 218.613 223.365 218.794 223.246C219.408 222.841 220.031 222.429 220.513 221.873C221.713 220.491 221.838 218.506 221.904 216.677ZM206.105 215.285C208.773 214.796 211.441 214.308 214.109 213.82C214.756 213.701 215.503 213.608 215.999 214.04C216.138 213.684 216.278 213.307 216.216 212.93C216.155 212.554 215.808 212.195 215.433 212.267C212.688 212.792 209.867 212.924 207.085 212.657C206.454 212.596 205.807 213.001 205.586 213.595C205.364 214.188 205.588 214.918 206.105 215.285ZM223.103 211.306C221.871 211.573 220.639 211.84 219.407 212.107C219.222 212.146 219.026 212.194 218.9 212.334C218.744 212.509 218.747 212.77 218.759 213.004C218.78 213.404 218.801 213.804 218.821 214.203C220.104 213.92 221.387 213.637 222.67 213.354C223.19 213.239 223.744 213.106 224.107 212.716C224.471 212.327 224.505 211.592 224.041 211.331C223.762 211.174 223.416 211.238 223.103 211.306Z" fill="#00160A"/>
<path d="M189.326 66.0267L189.739 66.2732C195.701 69.8638 200.323 74.2439 208.081 82.8746C224.498 101.138 240.195 120.09 255.124 139.666L256.301 141.213L256.643 141.664C262.199 149.016 264.643 153.742 264.781 159.412C264.882 163.606 263.119 167.723 259.998 170.971L259.829 171.145L259.813 171.159L259.761 171.217C259.019 172.013 258.188 172.722 257.282 173.325L257.039 173.482L256.964 173.535C253.144 176.14 248.646 177.222 244.452 176.423L244.227 176.378L244.045 176.339L244.021 176.499C239.771 204.529 231.106 231.885 218.446 257.252L218.06 258.02L217.665 258.802L217.439 259.247C216.14 261.767 215.263 263.089 213.909 264.296C212.131 265.882 209.877 266.766 207.095 267.125C205.126 267.379 203.273 267.377 200.145 267.198L199.596 267.166C187.038 266.404 174.431 266.409 161.866 267.179L160.688 267.253L159.715 267.317L159.573 267.333C157.672 267.534 155.948 267.679 154.298 267.77L153.888 267.791L153.427 267.812L153.343 267.819C151.386 267.993 149.432 268.186 147.479 268.397L144.15 268.774L141.347 269.095C140.455 269.195 139.724 269.273 139.029 269.341C131.066 269.661 125.833 269.582 123.332 269.104L122.991 269.037L122.662 268.969C114.159 267.169 107.108 261.589 105.261 254.311C98.3009 226.886 88.5643 200.167 76.2485 174.694L76.0808 174.349L75.9994 174.398C73.0787 176.053 69.4088 175.647 66.1766 173.549L66.0097 173.439L65.8403 173.323L65.8013 173.307C64.7877 172.858 63.8873 172.05 63.2455 171.036L63.1558 170.889L63.1073 170.807L63.0678 170.759C62.0213 169.475 61.247 168.034 60.8141 166.534L60.7517 166.308L60.6945 166.082C59.3082 160.325 61.0914 154.393 65.4564 146.867C73.402 133.168 83.1658 122.88 94.8091 117.115L95.1622 116.942L95.7975 118.073C85.5154 124.673 76.6026 133.397 69.7849 143.535C65.1097 150.487 62.5396 156.875 62.5318 162.953L62.5331 163.229L62.5366 163.458L62.5483 163.436C65.4806 157.668 70.3812 152.857 78.2042 147.149L78.5413 146.904L78.855 146.677C87.4034 140.512 96.7144 134.697 107.475 128.686L108.919 127.884C116.875 123.479 123.643 119.968 136.839 113.325L150.61 106.393C154.392 104.478 157.225 103.023 160.4 101.368L161.199 100.949C167.665 97.53 172.569 94.3129 176.443 90.6734C181.432 85.986 184.276 80.906 184.698 75.2129C185.038 70.6139 183.335 66.2563 180.079 64.2179C176.915 62.2367 172.851 62.3828 167.191 64.0498C146.787 70.0601 128.513 83.0749 116.163 100.392C115.403 101.458 115.921 102.426 116.163 103.003C117.749 106.774 116.779 111.014 114.905 114.65L114.802 114.847L113.331 117.586L114.518 111.033C114.412 100.392 112.419 94.5296 108.01 85.6584L107.825 85.2892L107.716 85.0773L107.644 85.219C105.594 89.1602 101.656 92.2316 96.8518 93.9212L96.6026 94.0074L96.3639 94.0872C92.3798 95.395 88.9426 95.7798 81.9651 95.9687L80.3141 96.0086L80.1165 95.7048C78.9192 93.8614 80.087 91.5652 82.3239 89.753C87.0767 85.9024 92.6454 83.0662 98.5548 81.4863C101.537 80.6885 103.757 80.5425 105.809 81.3012C106.347 81.5001 106.843 81.7463 107.302 82.0401L107.496 82.1688L107.517 82.1835L107.569 82.05L107.722 82.3308L107.798 82.3871C108.726 83.0948 109.488 84.0217 110.121 85.1687L110.238 85.3863L110.335 85.5752C111.049 86.9909 111.487 88.3468 112.149 90.9897L112.599 92.8179L112.727 93.3327C113.299 95.593 113.786 97.1244 114.412 98.4205L114.482 98.5635L114.518 98.6341L114.68 98.4196C127.048 82.1393 144.252 69.5791 163.526 62.7576L164.111 62.5526L164.715 62.3451C172.325 59.7563 181.334 61.3103 189.326 66.0267ZM156.459 176.585C148.454 177.008 140.606 180.59 134.885 186.388C132.294 189.014 130.626 191.635 130.011 194.402L129.957 194.655C129.598 196.42 129.623 198.039 129.93 201.222L136.506 267.028C136.558 267.541 136.619 267.902 136.712 268.175L136.736 268.241L137.192 268.203L137.255 268.145C138.036 267.389 138.557 266.235 138.714 264.97L138.737 264.761L138.742 264.71C138.849 263.483 138.724 262.449 138.292 260.277L138.17 259.668L137.987 258.732C136.675 251.898 136.046 245.624 135.266 233.887L135.021 230.177C134.011 215.173 133.181 208.198 131.022 199.781C130.048 195.982 131.178 191.673 133.822 188.253C136.062 185.355 139.244 183.081 143.365 181.164C148.365 178.838 153.57 177.544 158.659 177.459C162.768 177.391 166.845 178.036 172.509 179.442L173.056 179.58C177.717 180.77 180.473 181.93 182.813 184.064C185.166 186.208 186.685 189.084 188.088 193.344C191.195 202.778 192.386 213.177 192.213 225.705L192.188 227.157C192.104 231.173 191.917 234.922 191.527 240.986L190.962 249.567C190.695 253.755 190.559 256.332 190.449 259.367L190.437 259.734C190.392 261.392 190.484 262.276 190.87 263.155C191.252 264.022 191.996 264.667 192.759 264.836L192.865 264.855L193.329 233.398C193.499 220.593 193.385 214.412 192.649 206.969L192.625 206.731C192.228 202.771 191.706 199.507 190.923 196.453C190.526 194.906 190.051 193.379 189.501 191.879C187.944 187.64 186.042 184.525 183.424 182.41C180.476 180.031 177.295 179.03 170.745 177.932L170.158 177.835C163.352 176.721 160.261 176.385 156.459 176.585ZM139.814 266.124L139.81 266.14C139.629 266.823 139.355 267.466 138.993 268.038L140.379 267.894C140.778 267.851 141.207 267.803 141.683 267.749L144.007 267.482C143.833 267.459 143.66 267.436 143.487 267.412L143.068 267.35L142.526 267.268L142.514 266.675L142.456 266.709C141.936 266.997 141.361 267.186 140.771 267.256L140.622 267.271L140.036 267.321L139.814 266.124ZM120.368 266.642L120.325 266.7C120.259 266.787 120.184 266.865 120.102 266.934C121.02 267.237 121.966 267.492 122.931 267.697C123.242 267.763 123.554 267.824 123.869 267.882C122.734 267.572 121.621 267.183 120.541 266.718L120.368 266.642ZM156.691 147.557C129.637 149.045 101.891 156.192 73.8409 168.289L72.8716 168.708L73.8656 169.176C76.1341 170.242 77.4185 172.065 79.1094 175.772L81.777 181.689C86.7044 192.658 89.5822 199.333 92.5302 206.778C96.6893 217.281 99.8882 226.82 102.269 236.146L103.563 241.312C103.728 241.96 103.878 242.543 104.027 243.11L104.225 243.855C105.603 248.995 106.913 252.738 108.622 256.053C110.811 260.296 113.541 263.478 117.068 265.643C118.045 266.244 119.238 266.208 119.357 265.737L119.365 265.694L119.466 264.788L120.29 265.178C124.593 267.216 129.51 267.936 134.218 267.231L134.475 267.19L128.011 202.862L127.95 202.247C127.537 198.053 127.541 195.671 128.213 193.13C129.104 189.766 131.247 186.681 134.403 183.791C139.903 178.757 147.029 175.532 154.442 174.723C159.407 174.181 164.424 174.61 171.389 175.891L171.996 176.004C177.386 177.028 180.707 178.112 183.726 180.174C187.587 182.81 190.248 186.772 191.973 191.963C193.344 196.088 194.077 200.71 194.516 206.735C195.874 225.353 195.874 244.069 194.516 262.687C194.388 264.447 196.707 265.635 199.806 265.779L199.962 265.786L200.398 265.801L200.925 265.815C206.3 265.949 209.374 265.397 211.83 263.358C213.174 262.241 214.071 260.915 215.458 258.272L215.569 258.061C228.094 234.025 236.706 207.954 240.966 181.187L241.094 180.376C241.558 177.396 242.057 175.302 242.872 173.435C243.917 171.039 245.398 169.362 247.451 168.515L247.618 168.448L247.816 168.372L247.729 168.305C246.025 167.007 243.988 165.792 241.328 164.41L240.737 164.105C215.971 151.44 186.785 145.903 156.691 147.557ZM157.93 179.51C153.597 179.682 149.128 180.86 144.593 182.911C138.058 185.866 133.652 190.189 132.995 195.335C132.952 195.666 132.925 196.003 132.913 196.348L132.906 196.6C132.877 198.064 133.065 199.387 133.583 201.797L133.985 203.621C135.303 209.679 136.013 215.595 136.718 224.875L137.256 232.181C138.402 247.517 139.325 256.171 141.035 265.574L141.089 265.871L141.178 265.847C141.698 265.688 142.181 265.401 142.564 265.016L142.657 264.918L143.755 263.715L143.803 266.143L144.079 266.18C146.812 266.54 149.673 266.647 152.794 266.536L153.315 266.517L154.281 266.432C155.597 266.319 156.914 266.215 158.23 266.12L159.575 266.025L160.641 265.907C162.036 265.75 163.37 265.582 165.92 265.252L168.135 264.968C175.192 264.077 178.866 263.775 183.121 263.863L183.696 263.878L185.324 263.933L185.761 263.942C186.892 263.957 187.743 263.898 188.517 263.723L188.59 263.706L188.577 262.786C188.529 258.317 188.676 253.798 189.026 247.523L189.324 242.478L189.606 237.78C189.824 234.043 189.935 231.742 190.026 229.036C190.494 215.059 189.498 204.292 186.256 194.475C184.782 190.011 183.102 187 180.584 184.968C178.403 183.209 175.93 182.305 171.303 181.24L170.628 181.086C165.191 179.859 161.629 179.364 157.93 179.51ZM194.161 265.142L194.155 265.582L194.698 265.606C194.502 265.462 194.322 265.308 194.161 265.142ZM189.898 264.109L189.909 264.677L189.441 264.822C188.358 265.156 187.266 265.262 185.738 265.242L185.163 265.229L183.851 265.183L183.659 265.177C181.467 265.114 179.468 265.153 177.119 265.32C181.78 265.264 186.443 265.313 191.101 265.467C190.623 265.115 190.207 264.649 189.898 264.109ZM248.791 169.161L248.243 169.574C246.787 170.67 245.619 172.144 244.876 173.808L244.821 173.934L244.845 173.94C246.763 174.342 247.88 174.368 248.94 173.931L249.039 173.889C250.424 173.278 251.089 171.38 250.231 170.505C249.821 170.087 249.397 169.687 248.951 169.3L248.791 169.161ZM73.6208 173.652L72.9578 173.881C72.68 173.975 72.4278 174.053 72.1951 174.116C73.2707 174.093 74.3042 173.835 75.2419 173.33C74.8666 173.289 74.3848 173.395 73.6208 173.652ZM184.668 65.9681L184.684 66.005C187.324 72.1843 187.024 79.5761 183.787 85.4803C180.667 91.1717 175.868 94.998 166.938 100.014L165.371 100.886C158.72 104.566 152.721 107.681 141.919 113.121L130.955 118.633C119.631 124.346 113.541 127.538 106.38 131.564C95.4136 137.728 86.0817 143.721 77.6356 150.183L77.029 150.65C71.8428 154.661 68.533 157.82 65.9495 161.565C64.198 164.104 63.3668 166.353 63.6481 168.471C63.7105 168.939 63.8565 169.411 64.0736 169.857L64.1581 170.023L64.1811 170.065L64.198 170.085C64.7938 170.793 65.4746 171.436 66.2099 171.988L66.4318 172.15L66.4691 172.176L66.5419 172.205C66.9206 172.345 67.3037 172.41 67.6828 172.4L67.7054 172.398L67.6967 172.3C67.5091 169.869 69.7264 167.77 73.0644 166.31L73.2239 166.241C103.104 153.488 132.524 146.232 161.086 145.311C192.745 144.291 223.261 151.3 248.415 166.088C249.183 166.539 249.838 166.961 250.393 167.381L250.767 167.676C251.805 168.533 252.441 169.406 252.788 170.524C253.143 171.672 252.857 172.97 252.185 173.926L252.143 173.983C253.468 173.791 254.782 173.316 256.017 172.585L256.211 172.468L256.312 172.405L256.471 172.296C257.166 171.805 257.826 171.265 258.44 170.686L258.7 170.435L258.855 170.281L258.919 170.212C259.83 169.209 260.573 168.072 261.099 166.868C262.97 162.594 262.696 157.289 260.618 152.188L260.467 151.823C258.869 148.02 256.783 144.934 252.334 139.231C240.175 123.648 227.331 108.042 213.734 92.291L212.415 90.7665C206.694 84.1578 203.09 80.2513 199.049 76.4899L198.856 76.311C194.205 72.0015 189.641 68.6171 184.862 66.0708L184.668 65.9681ZM72.1033 169.062L71.9919 169.118C71.1278 169.553 70.6386 169.93 70.2664 170.462C69.713 171.252 69.8014 172.401 70.4323 172.791C70.9016 173.082 71.4052 173.035 72.6046 172.628L72.9166 172.52C73.5853 172.285 74.1178 172.125 74.5763 172.052L74.6192 172.045L74.3635 171.713C74.0593 171.324 73.7469 170.942 73.4258 170.567L73.1021 170.194L72.1033 169.062ZM99.4475 83.5845L99.2923 83.6165L99.3097 83.789C99.4401 85.1133 98.6176 86.2135 97.1924 87.2011L97.065 87.2882C94.9833 88.6865 92.6662 89.7322 90.2404 90.3679C88.2631 90.8861 86.701 90.9087 85.3685 90.1863C85.2242 90.1079 84.8918 90.2305 84.4732 90.578C83.5138 91.3745 82.6723 92.3131 81.9841 93.3531L81.842 93.5719L86.7738 93.542C88.433 93.5238 89.3603 93.4831 90.4177 93.3704L90.536 93.3574C96.298 92.7191 101.773 89.746 105.446 85.261L105.6 85.0673C105.935 84.6357 106.091 84.335 106.127 84.0304C106.165 83.7188 105.981 83.4124 105.807 83.3877C103.697 83.087 101.537 83.1611 99.4475 83.5845ZM98.5513 83.844C93.23 84.3016 88.274 86.9922 86.0817 89.7296C86.0817 89.9259 86.2559 90.0485 86.5627 90.1044C87.2769 89.2278 88.274 88.3572 89.4739 87.5651C89.8877 88.791 92.4613 88.2731 94.2509 87.8159C96.646 86.512 98.5513 84.9061 98.5513 83.844ZM182.043 64.0736L182.092 64.1157C182.228 64.2383 182.36 64.3653 182.49 64.4953L182.311 64.1672L182.092 64.0901L182.043 64.0736Z" fill="#00160A"/>
<path d="M179.768 171.239C190.151 176.749 195.617 186.22 194.419 186.766C193.222 187.313 183.484 170.223 159.403 172.22C128.345 173.295 124.504 194.766 123.257 194.343C122.011 193.92 126.845 180.24 138.377 172.941C149.91 165.641 169.386 165.728 179.768 171.239Z" fill="#E7EAEE"/>
<path d="M172.307 217.959C172.357 218.209 172.444 218.278 172.653 218.259C172.661 218.242 172.675 218.216 172.672 218.213C172.558 218.132 172.441 218.052 172.307 217.959Z" fill="#414141"/>
<path d="M172.654 218.26H172.653L172.651 218.264L172.654 218.26Z" fill="#414141"/>
<path d="M171.534 218.746C171.621 218.851 171.707 218.957 171.794 219.062L171.87 218.988L171.604 218.685L171.534 218.746Z" fill="#414141"/>
<path d="M171.899 218.444L172.178 218.695L172.241 218.619L171.958 218.375L171.899 218.444Z" fill="#414141"/>
</g>
<defs>
<clipPath id="clip0_1260_3437">
<rect width="325" height="325" fill="white"/>
</clipPath>
</defs>
</svg>
