<svg width="325" height="325" viewBox="0 0 325 325" fill="none" xmlns="http://www.w3.org/2000/svg">
<g clip-path="url(#clip0_1259_3245)">
<path d="M325 0H0V325H325V0Z" fill="#F5F5F5"/>
<path fill-rule="evenodd" clip-rule="evenodd" d="M51.9857 226.44C76.5583 243.479 104.469 228.32 125.385 222.12C141.998 217.195 197.568 241.504 225.176 241.504C252.784 241.504 318.615 219.56 272.361 148.909C208.589 51.4977 166.417 82.9677 125.385 116.763C84.3518 150.559 84.3518 131.252 58.9385 150.559C33.5251 169.867 27.4133 209.402 51.9857 226.44Z" fill="#FADEB4"/>
<path fill-rule="evenodd" clip-rule="evenodd" d="M34.9287 186.181C36.6269 185.015 38.8915 184.939 40.8702 185.511C42.849 186.083 44.6047 187.231 46.306 188.392C52.8082 192.829 59.0174 197.695 64.8804 202.948C66.0188 203.968 67.1563 205.016 68.0065 206.287C69.6774 208.783 69.9877 212.396 68.0294 214.674C66.6345 216.297 64.3487 216.957 62.2163 216.781C60.0838 216.604 58.0792 215.689 56.2415 214.592C51.2486 211.613 47.2225 207.275 42.5498 203.814C39.5007 201.557 36.0812 199.579 34.001 196.407C31.9207 193.234 31.8009 188.328 34.9287 186.181Z" fill="#F5F5F5"/>
<path d="M216.442 131.051C215.656 130.663 215.365 129.702 215.224 128.838C214.592 124.974 215.378 120.893 217.401 117.541C218.462 115.783 220.089 114.102 222.141 114.011C223.582 113.947 224.974 114.715 225.92 115.804C226.867 116.893 227.417 118.272 227.786 119.667C228.61 122.781 229.264 128.736 227.974 130.915C226.685 133.093 216.882 132.01 216.442 131.051Z" fill="#F5F5F5"/>
<path d="M208.268 155.677C206.666 150.617 206.096 145.233 206.603 139.95C206.651 139.454 206.736 138.906 207.123 138.593C207.51 138.28 235.716 136.211 236.786 136.674C237.471 141.725 237.71 146.837 237.5 151.931C237.426 153.726 236.778 156.054 234.982 156.098C227.309 156.286 219.636 156.474 211.962 156.662C211.529 156.673 208.843 157.492 208.268 155.677Z" fill="#F5F5F5"/>
<path fill-rule="evenodd" clip-rule="evenodd" d="M199.607 191.078C199.365 183.671 198.647 167.245 201.405 165.713C209.408 161.27 207.741 156.138 211.322 155.93C216.811 155.612 231.71 152.637 233.428 157.861C235.145 163.085 233.335 164.127 236.639 165.713C242.097 168.334 243.848 166.234 246.811 173.124C247.658 175.093 247.584 177.352 247.696 179.491C247.956 184.463 247.596 189.457 247.926 194.424C248.254 199.352 249.081 224.652 246.811 232.282C245.726 235.93 229.966 233.786 225.726 233.408C217.832 232.704 209.116 234.114 201.405 232.282C201.405 232.282 200.069 205.193 199.607 191.078Z" fill="#F5F5F5"/>
<path d="M180.083 134.834C181.426 134.548 182.383 136.078 182.877 137.36C186.988 148.023 189.704 159.164 193.216 170.039C199.455 189.357 208.221 207.879 212.927 227.627C213.141 228.523 213.303 229.592 212.666 230.258C212.171 230.775 211.38 230.835 210.664 230.863C193.617 231.525 176.562 231.997 159.503 232.28C159.103 232.287 158.676 232.286 158.342 232.066C157.99 231.834 157.822 231.412 157.675 231.015C148.531 206.362 140.85 181.166 134.685 155.604C134.534 154.981 131.074 138.503 131.264 138.085C131.53 137.503 132.259 137.328 132.892 137.234C148.498 134.9 164.649 138.117 180.083 134.834Z" fill="#F5F5F5"/>
<path d="M131.588 145.317C132.149 145.764 132.251 146.562 132.311 147.276C132.768 152.729 133.225 158.182 133.682 163.635C133.717 164.056 133.743 164.516 133.501 164.862C133.171 165.336 132.505 165.392 131.927 165.402C115.137 165.7 98.3476 165.998 81.5572 166.296C80.7391 166.311 79.8421 166.299 79.2163 165.772C78.6175 165.267 78.4381 164.431 78.3289 163.655C78.1126 162.123 78.0286 160.572 78.0784 159.025C78.0983 158.396 77.9441 155.047 77.083 154.723C75.5846 154.161 74.6551 152.587 74.4059 151.006C74.1567 149.425 74.4687 147.815 74.7799 146.245C74.9701 145.284 75.195 144.258 75.907 143.584C76.6475 142.884 77.7374 142.733 78.7518 142.63C83.0938 142.188 87.4618 141.997 91.8259 142.058C97.0957 142.131 102.353 142.571 107.605 143.011C115.108 143.639 122.611 144.267 130.114 144.894C130.631 144.938 131.182 144.994 131.588 145.317Z" fill="#F5F5F5"/>
<path d="M130.546 168.267C131.856 187.856 131.636 207.546 129.891 227.101C129.821 227.891 129.727 228.732 129.227 229.346C128.474 230.269 127.114 230.342 125.924 230.338C112.549 230.294 99.1753 230.11 85.8044 229.788C85.2493 229.775 84.6036 229.713 84.3016 229.248C84.1365 228.993 84.1174 228.674 84.1035 228.371C83.2191 209.092 82.3351 189.776 83.3582 170.505C83.415 169.435 83.9904 167.975 85.014 168.289C85.7324 168.51 119.558 167.975 130.546 168.267Z" fill="#F5F5F5"/>
<path fill-rule="evenodd" clip-rule="evenodd" d="M226.521 129.23C225.835 128.956 225.732 128.043 225.747 127.304C225.753 126.972 225.761 126.639 225.768 126.306C225.843 123.057 225.918 119.754 224.836 116.705C224.532 115.848 224.058 114.945 223.203 114.635C221.814 114.132 220.465 115.465 219.718 116.739C218.103 119.492 217.238 122.68 217.241 125.872V125.926C217.242 126.95 217.244 128.13 216.442 128.757C215.656 128.369 215.365 127.408 215.224 126.544C214.591 122.68 215.378 118.599 217.401 115.247C218.462 113.489 220.089 111.809 222.14 111.717C223.582 111.653 224.974 112.421 225.92 113.51C226.866 114.599 227.417 115.979 227.786 117.373C228.61 120.487 228.604 123.761 228.371 126.973C228.33 127.542 228.274 128.136 227.974 128.621C227.673 129.106 227.051 129.442 226.521 129.23ZM199.927 174.939L200.436 183.424C199.29 179.798 198.133 176.113 198.042 172.311C197.951 168.51 199.069 164.508 201.858 161.922C202.556 161.275 203.34 160.731 204.124 160.187L204.125 160.187C204.908 159.644 205.691 159.1 206.389 158.453C207.785 157.159 208.842 155.197 208.267 153.382C206.665 148.323 206.095 142.938 206.602 137.655C206.65 137.159 206.735 136.612 207.122 136.298C207.509 135.985 208.267 136.19 208.238 136.688C207.961 141.436 208.386 146.225 209.498 150.85C209.589 151.228 209.701 151.631 210.005 151.874C210.297 152.106 210.697 152.134 211.07 152.15C218.217 152.47 225.379 152.459 232.525 152.119C233.775 152.059 235.419 151.595 235.391 150.344L235.092 136.752C235.066 135.586 235.715 133.916 236.785 134.379C237.47 139.431 237.709 144.543 237.499 149.636C237.425 151.431 236.777 153.759 234.981 153.803L211.962 154.368C211.528 154.378 210.964 154.501 210.921 154.933C210.674 157.403 208.741 159.351 206.758 160.844C206.39 161.121 206.014 161.392 205.637 161.664C203.983 162.859 202.316 164.063 201.253 165.782C199.605 168.45 199.739 171.808 199.927 174.939ZM220.836 180.069C220.881 179.115 220.949 178.102 221.509 177.329C222.4 176.098 224.142 175.945 225.66 175.904L240.229 175.509C240.971 175.489 241.781 175.49 242.362 175.953C243.129 176.564 243.169 177.694 243.144 178.674C243.114 179.805 243.076 180.971 242.598 181.995C242.121 183.02 241.081 183.871 239.956 183.763C235.043 183.293 230.116 182.987 225.183 182.846C224.238 182.818 222.936 183.153 223.03 184.093C223.894 192.721 223.816 201.444 222.798 210.055C222.664 211.187 224.188 211.664 225.326 211.72L235.953 212.242C236.791 212.283 237.873 212.542 237.948 213.378C238.04 214.385 236.627 214.703 235.618 214.639L223.961 213.906C222.987 213.845 221.924 213.746 221.223 213.067C220.446 212.315 220.376 211.113 220.359 210.032C220.203 200.043 220.362 190.048 220.836 180.069ZM247.473 227.051C247.977 210.115 247.936 193.162 247.352 176.228C247.268 173.797 247.167 171.33 246.426 169.013C245.685 166.695 244.214 164.506 242.028 163.437C241.312 163.087 240.502 162.829 239.695 162.573C237.8 161.971 235.926 161.376 235.339 159.599C235.186 159.133 235.152 158.637 235.119 158.142C235.079 157.54 235.038 156.94 234.781 156.402C234.313 155.42 232.461 155.206 232.394 156.291C232.137 160.513 235.474 164.651 239.656 165.293C241.852 165.629 243.561 167.507 244.342 169.588C245.123 171.669 245.145 173.946 245.154 176.168C245.227 193.446 245.127 210.725 244.856 228.001C244.848 228.487 244.818 229.027 244.47 229.365C244.14 229.686 243.633 229.718 243.172 229.725C239.034 229.797 234.894 229.461 230.758 229.125C225.144 228.669 219.536 228.214 213.946 228.778C212.968 228.877 211.673 229.821 212.384 230.499C212.607 230.713 212.944 230.742 213.253 230.759L242.54 232.369C243.578 232.426 244.684 232.468 245.586 231.95C247.175 231.037 247.418 228.884 247.473 227.051ZM219.956 131.336C215.836 131.039 211.55 131.084 207.771 132.754C207.17 133.02 206.495 133.73 206.946 134.209C211.344 132.017 216.547 132.413 221.416 133.083C221.806 133.136 222.196 133.191 222.587 133.246C227.088 133.88 231.696 134.528 236.043 133.283C236.708 133.093 237.506 132.621 237.356 131.945C237.201 131.246 236.236 131.185 235.529 131.298C235.265 131.34 235.001 131.383 234.737 131.426C233.934 131.559 233.129 131.691 232.32 131.782C229.141 132.14 225.943 131.855 222.748 131.569C221.817 131.487 220.886 131.403 219.956 131.336ZM228.11 194.605C227.285 194.593 226.406 194.565 225.725 194.099C225.965 193.671 226.538 193.595 227.029 193.569L236.106 193.083C236.561 193.059 237.119 193.089 237.329 193.494C237.518 193.858 237.271 194.326 236.911 194.524C236.551 194.721 236.12 194.72 235.709 194.714L228.11 194.605ZM238.374 186.97L227.039 187.532C226.415 187.563 225.614 187.75 225.546 188.37L238.878 188.848C239.418 188.868 240.083 188.817 240.314 188.327C240.519 187.895 240.212 187.358 239.784 187.143C239.356 186.928 238.852 186.946 238.374 186.97ZM88.806 207.386C94.6859 206.134 100.754 205.769 106.742 206.307L106.832 206.315C108.784 206.491 110.934 206.684 112.491 205.505C114.661 203.86 114.446 200.605 114.149 197.899C113.467 191.697 113.485 185.417 114.201 179.219C114.311 178.272 113.617 177.379 112.765 176.952C111.913 176.525 110.931 176.464 109.98 176.413C103.123 176.053 96.2563 175.878 89.3901 175.889C88.9455 175.889 88.7999 175.206 89.0955 174.874C89.391 174.542 89.8811 174.486 90.3244 174.455C97.1108 173.977 103.933 174.008 110.715 174.547C112.637 174.7 114.859 175.083 115.786 176.775C116.261 177.644 116.276 178.682 116.279 179.673L116.344 200.98C116.349 202.526 116.335 204.147 115.592 205.503C113.922 208.551 109.685 208.725 106.216 208.502L88.806 207.386ZM132.892 134.939C140.081 133.865 147.384 133.967 154.681 134.07C163.225 134.19 171.759 134.31 180.083 132.539C181.426 132.253 182.383 133.784 182.877 135.065C185.496 141.858 187.548 148.844 189.601 155.833C190.771 159.815 191.941 163.797 193.216 167.744C195.616 175.175 198.39 182.487 201.162 189.798L201.163 189.798V189.799C205.599 201.493 210.032 213.181 212.927 225.332C213.141 226.228 213.304 227.298 212.667 227.963C212.171 228.48 211.38 228.541 210.665 228.568C193.617 229.231 176.562 229.703 159.503 229.986C159.103 229.992 158.676 229.991 158.343 229.771C157.99 229.539 157.822 229.117 157.676 228.721C148.532 204.067 140.85 178.872 134.685 153.31C134.535 152.687 134.492 151.838 135.089 151.603C135.798 151.323 136.34 152.265 136.526 153.005C142.734 177.69 150.212 202.056 158.921 225.974C159.086 226.427 159.27 226.906 159.658 227.192C160.088 227.509 160.666 227.513 161.201 227.506L209.416 226.765C209.785 226.76 210.223 226.716 210.404 226.394C210.528 226.173 210.481 225.899 210.429 225.651C208.07 214.332 204.067 203.456 200.07 192.591L200.069 192.591L200.069 192.589C199.043 189.801 198.017 187.013 197.019 184.219C191.411 168.511 186.665 152.51 181.923 136.519C181.528 135.186 179.731 135.026 178.344 135.122C163.247 136.169 148.081 136.239 132.975 135.333C134.205 139.785 135.301 144.275 136.26 148.794C135.215 149.257 134.352 147.869 134.042 146.769L131.321 137.138C131.196 136.696 131.074 136.209 131.265 135.791C131.53 135.209 132.26 135.034 132.892 134.939ZM147.992 143.383C146.05 144.517 144.762 146.922 145.395 149.08C145.741 150.26 146.595 151.235 147.572 151.982C149.776 153.669 152.73 154.336 155.446 153.762C158.162 153.187 160.592 151.38 161.924 148.944C162.293 148.27 161.912 147.434 161.452 146.819C160.349 145.345 158.779 144.265 157.09 143.533C156.269 143.177 155.415 142.898 154.544 142.699C152.351 142.199 149.934 142.248 147.992 143.383ZM159.686 148.752C157.352 152.053 152.314 153.045 148.904 150.876C148.072 150.347 147.312 149.619 147.017 148.679C146.552 147.194 147.414 145.525 148.724 144.685C150.034 143.844 151.677 143.695 153.227 143.829C155.64 144.039 158.025 144.907 159.864 146.483C160.498 147.027 160.168 148.07 159.686 148.752ZM155.769 176.215C157.656 176.205 159.607 176.084 161.291 175.234C162.976 174.384 164.336 172.633 164.183 170.753C164.077 169.44 163.257 168.263 162.213 167.461C160.392 166.061 157.828 165.697 155.69 166.535C154.577 166.97 153.555 167.748 153.052 168.831C152.548 169.915 152.662 171.32 153.504 172.168C154.226 172.896 155.287 173.093 156.311 173.285H156.311C156.461 173.312 156.611 173.341 156.759 173.37C157.062 173.431 157.382 173.51 157.6 173.731C157.817 173.952 157.872 174.36 157.631 174.556C155.67 176.154 152.411 175.457 150.986 173.367C149.561 171.276 149.918 168.267 151.518 166.307C153.117 164.347 155.74 163.394 158.27 163.453C160.867 163.514 163.504 164.641 165.043 166.734C166.582 168.827 166.814 171.91 165.3 174.021C164.301 175.415 162.684 176.269 161.014 176.66C159.345 177.052 157.609 177.024 155.896 176.953L155.769 176.215ZM196.276 191.618C196.059 191.366 195.733 191.243 195.416 191.143C193.126 190.412 190.631 190.337 188.301 190.929C186.909 191.282 185.544 191.892 184.544 192.923C183.546 193.955 182.963 195.457 183.279 196.858C183.635 198.44 185.022 199.591 186.483 200.293C188.65 201.337 191.184 201.651 193.51 201.035C195.835 200.42 197.918 198.849 199.032 196.718C199.262 196.278 199.456 195.793 199.412 195.298C199.368 194.804 199.023 194.306 198.531 194.236C197.856 194.14 197.362 194.804 196.951 195.358L196.917 195.403C194.785 198.269 190.385 199.131 187.329 197.282C186.768 196.943 186.214 196.46 186.135 195.81C186.03 194.942 186.801 194.231 187.548 193.777C190.14 192.201 193.384 191.736 196.316 192.521C196.551 192.287 196.492 191.869 196.276 191.618ZM177.091 211.911C178.677 212.244 180.397 213.002 180.912 214.538C181.341 215.813 180.752 217.264 179.768 218.183C178.785 219.102 177.476 219.583 176.179 219.945C174.983 220.28 173.763 220.532 172.531 220.7L172.655 221.364C174.905 221.501 177.19 220.994 179.17 219.918C180.756 219.056 182.232 217.682 182.504 215.897C182.761 214.203 181.836 212.48 180.475 211.439C179.114 210.398 177.385 209.951 175.68 209.785C171.954 209.421 167.848 210.49 165.587 213.472C165.085 214.134 164.677 214.9 164.611 215.728C164.498 217.132 165.409 218.468 166.598 219.225C167.786 219.983 169.212 220.261 170.608 220.447C171.083 220.51 171.609 220.552 171.995 220.271C172.382 219.99 172.417 219.257 171.961 219.113L168.831 218.12C168.114 217.893 167.339 217.622 166.938 216.987C166.247 215.893 167.077 214.451 168.08 213.633C170.53 211.634 173.996 211.262 177.091 211.911ZM172.911 193.215C173.112 192.829 173.286 192.406 173.253 191.972C173.189 191.129 172.395 190.544 171.634 190.176C168.32 188.575 164.135 188.959 161.167 191.135C160.69 191.485 160.228 191.896 159.997 192.441C159.766 192.985 159.826 193.691 160.275 194.076C160.541 194.304 160.905 194.401 161.262 194.495C161.737 194.622 162.198 194.744 162.393 195.168C162.692 195.816 162.003 196.524 161.309 196.69C159.92 197.022 158.421 196.079 157.89 194.755C157.358 193.429 157.688 191.864 158.5 190.69C159.313 189.517 160.551 188.695 161.857 188.12C164.784 186.83 168.196 186.681 171.224 187.712C172.337 188.09 173.424 188.642 174.209 189.517C174.995 190.392 175.436 191.635 175.137 192.773C174.95 193.486 174.497 194.099 174.011 194.653C171.326 197.716 166.813 199.53 163.064 197.941C163.381 197.294 164.302 197.368 165.018 197.444C168.171 197.78 171.444 196.026 172.911 193.215ZM168.573 151.634C169.199 152.411 170.137 152.874 171.088 153.177C175.283 154.511 180.249 152.856 182.804 149.272C183.697 148.02 184.301 146.307 183.54 144.97C182.871 143.795 181.404 143.358 180.063 143.186C177.899 142.907 175.682 143.049 173.571 143.601C171.752 144.077 169.94 144.913 168.801 146.408C167.661 147.903 167.393 150.171 168.573 151.634ZM173.615 144.832C174.879 144.446 176.185 144.199 177.502 144.097C179.101 143.973 181.09 144.323 181.599 145.844C181.978 146.977 181.297 148.194 180.476 149.063C178.366 151.297 175.109 152.385 172.08 151.867C171.345 151.742 170.595 151.511 170.057 150.994C169.019 149.997 169.141 148.202 169.995 147.044C170.849 145.886 172.238 145.252 173.615 144.832ZM189.39 217.228C191.404 218.862 194.117 219.39 196.711 219.364C198.333 219.347 199.995 219.122 201.42 218.345C202.844 217.568 203.998 216.16 204.134 214.544C204.278 212.85 203.3 211.226 202.013 210.115C201.032 209.269 199.57 208.648 198.474 209.338C198.087 209.582 197.597 209.526 197.139 209.473L197.058 209.464C194.285 209.151 191.399 210.017 189.257 211.805C188.582 212.368 187.951 213.07 187.792 213.935C187.56 215.195 188.395 216.42 189.39 217.228ZM200.505 210.975C201.61 211.533 202.508 212.633 202.527 213.871C202.547 215.189 201.568 216.365 200.38 216.938C199.192 217.51 197.831 217.585 196.513 217.567C194.737 217.544 192.929 217.362 191.301 216.652C190.251 216.194 189.184 215.313 189.243 214.169C189.287 213.304 189.97 212.609 190.685 212.12C192.482 210.89 194.706 210.416 196.883 210.354C198.12 210.318 199.4 210.417 200.505 210.975ZM189.983 169.376C190.412 169.434 190.67 169.879 190.803 170.291C191.639 172.893 189.846 175.851 187.313 176.879C184.78 177.907 181.813 177.301 179.458 175.913C178.402 175.291 177.399 174.473 176.904 173.351C175.865 170.997 177.555 168.135 179.899 167.071C182.242 166.007 184.966 166.304 187.483 166.842C188.516 167.063 189.758 167.564 189.827 168.619C188.119 167.921 186.29 167.521 184.447 167.44C182.687 167.364 180.807 167.623 179.453 168.749C178.099 169.875 177.539 172.074 178.645 173.445C179.092 174 179.739 174.353 180.385 174.654C182.053 175.428 183.938 175.946 185.729 175.528C187.52 175.111 189.13 173.528 189.076 171.69C189.071 171.526 189.054 171.362 189.036 171.197C189.003 170.882 188.969 170.567 189.026 170.257C189.111 169.786 189.508 169.313 189.983 169.376ZM127.5 227.487C127.337 220.217 127.691 212.936 128.56 205.716C129.171 200.642 129.015 195.481 128.859 190.334C128.632 182.846 128.407 175.386 130.544 168.266C131.854 187.854 131.635 207.545 129.89 227.1C129.82 227.89 129.727 228.731 129.226 229.345C128.473 230.268 127.114 230.34 125.923 230.336C112.548 230.293 99.1744 230.109 85.8034 229.787C85.2483 229.774 84.6027 229.712 84.3002 229.246C84.1351 228.992 84.1165 228.673 84.1026 228.37C83.2182 209.091 82.3342 189.775 83.3568 170.504C83.4136 169.435 83.9895 167.974 85.013 168.288C85.7315 168.509 85.8654 169.452 85.8667 170.204L85.9594 225.994C85.9607 226.797 87.0228 227.069 87.8258 227.092C101.046 227.481 114.275 227.613 127.5 227.487ZM132.311 147.276C132.251 146.562 132.149 145.764 131.588 145.317C131.182 144.994 130.631 144.938 130.114 144.894L107.605 143.011C102.353 142.571 97.0957 142.131 91.8259 142.058C87.4618 141.997 83.0938 142.188 78.7518 142.63C77.7374 142.733 76.6475 142.884 75.907 143.584C75.195 144.258 74.9701 145.284 74.7799 146.245C74.4687 147.815 74.1567 149.425 74.4059 151.006C74.6551 152.587 75.5846 154.161 77.083 154.723C77.9441 155.047 78.8926 155.01 79.8113 154.969L120.586 153.133C121.107 153.109 121.826 152.814 121.646 152.325C107.221 152.314 92.7957 152.803 78.4047 153.792C76.7134 153.908 75.998 151.673 76.0001 149.977C76.0014 148.562 76.1163 147.104 76.7502 145.839C77.3842 144.574 78.6422 143.536 80.0574 143.532C96.9306 143.486 113.807 144.407 130.575 146.289C130.947 146.331 131.066 146.806 131.092 147.18L132.247 163.444C132.258 163.601 132.265 163.774 132.172 163.901C132.049 164.069 131.81 164.086 131.603 164.088L81.6352 164.687C81.23 164.692 80.7919 164.686 80.4695 164.441C80.0665 164.135 79.9872 163.569 79.9552 163.064C79.8785 161.869 79.8828 160.67 79.9682 159.476C80.0297 158.61 79.7593 157.361 78.9026 157.5C78.2816 157.601 78.0983 158.396 78.0784 159.025C78.0286 160.572 78.1126 162.123 78.3289 163.655C78.4381 164.431 78.6175 165.267 79.2163 165.772C79.8421 166.299 80.7391 166.311 81.5572 166.296L131.927 165.402C132.505 165.392 133.171 165.336 133.501 164.862C133.743 164.516 133.717 164.056 133.682 163.635L132.311 147.276ZM109.318 182.381C109.696 182.342 109.852 182.935 109.599 183.218C109.346 183.501 108.923 183.536 108.543 183.551L95.4863 184.076C94.9546 184.098 94.3951 184.113 93.9228 183.868C93.4505 183.623 93.119 183.021 93.3573 182.545C93.6485 181.963 94.4705 181.983 95.114 182.077C99.8122 182.765 104.595 182.867 109.318 182.381ZM94.8631 189.125C94.1152 188.931 93.0141 188.908 92.8962 189.672C92.7901 190.36 93.6719 190.73 94.3609 190.827C98.8892 191.465 103.557 191.095 107.928 189.752C108.245 189.655 108.179 189.13 107.885 188.976C107.592 188.821 107.236 188.915 106.917 189.005C103.004 190.105 98.7978 190.147 94.8631 189.125Z" fill="#00160A"/>
<path fill-rule="evenodd" clip-rule="evenodd" d="M34.9287 186.181C36.6269 185.015 38.8915 184.939 40.8702 185.511C42.849 186.083 44.6047 187.231 46.306 188.392C52.8082 192.829 59.0174 197.695 64.8804 202.948C66.0188 203.968 67.1563 205.016 68.0065 206.287C69.6774 208.783 69.9877 212.396 68.0294 214.674C66.6345 216.297 64.3487 216.957 62.2163 216.781C60.0838 216.604 58.0792 215.689 56.2415 214.592C51.2486 211.613 47.2225 207.275 42.5498 203.814C39.5007 201.557 36.0812 199.579 34.001 196.407C31.9207 193.234 31.8009 188.328 34.9287 186.181ZM43.3472 188.777C41.2306 187.765 38.5945 186.988 36.6523 188.304C34.8318 189.538 34.477 192.209 35.2892 194.253C36.1013 196.297 37.8001 197.841 39.496 199.242C41.2649 200.703 43.0924 202.094 44.9726 203.409C45.2989 203.637 45.8683 203.794 45.9931 203.416C47.1332 199.962 49.5972 196.964 52.7644 195.177C49.9711 192.586 46.7844 190.42 43.3472 188.777ZM57.5293 210.1C55.1937 208.625 52.8584 207.151 50.5232 205.676C50.053 205.38 49.2722 205.173 49.0789 205.695C51.945 207.726 54.9055 209.624 57.9484 211.38C58.204 211.27 58.2612 210.907 58.1364 210.658C58.0116 210.409 57.7646 210.249 57.5293 210.1Z" fill="#00160A"/>
<path fill-rule="evenodd" clip-rule="evenodd" d="M264.55 101.833C264.79 101.833 264.984 102.028 264.984 102.267V106.383H269.1C269.34 106.383 269.534 106.578 269.534 106.817V108.983C269.534 109.223 269.34 109.417 269.1 109.417H264.984V113.533C264.984 113.773 264.79 113.967 264.55 113.967H262.384C262.145 113.967 261.95 113.773 261.95 113.533V109.417H257.834C257.595 109.417 257.4 109.223 257.4 108.983V106.817C257.4 106.578 257.595 106.383 257.834 106.383H261.95V102.267C261.95 102.028 262.145 101.833 262.384 101.833H264.55Z" fill="#FFB61D"/>
<path fill-rule="evenodd" clip-rule="evenodd" d="M281.45 85.3667C281.689 85.3667 281.883 85.5608 281.883 85.8V89.9167H286C286.239 89.9167 286.433 90.1108 286.433 90.35V92.5167C286.433 92.7559 286.239 92.95 286 92.95H281.883V97.0667C281.883 97.3059 281.689 97.5 281.45 97.5H279.283C279.044 97.5 278.85 97.3059 278.85 97.0667V92.95H274.733C274.494 92.95 274.3 92.7559 274.3 92.5167V90.35C274.3 90.1108 274.494 89.9167 274.733 89.9167H278.85V85.8C278.85 85.5608 279.044 85.3667 279.283 85.3667H281.45Z" fill="#FFB61D"/>
<path fill-rule="evenodd" clip-rule="evenodd" d="M301.383 112.667C301.623 112.667 301.817 112.861 301.817 113.1V117.217H305.933C306.173 117.217 306.367 117.411 306.367 117.65V119.817C306.367 120.056 306.173 120.25 305.933 120.25H301.817V124.367C301.817 124.606 301.623 124.8 301.383 124.8H299.217C298.978 124.8 298.783 124.606 298.783 124.367V120.25H294.667C294.428 120.25 294.233 120.056 294.233 119.817V117.65C294.233 117.411 294.428 117.217 294.667 117.217H298.783V113.1C298.783 112.861 298.978 112.667 299.217 112.667H301.383Z" fill="#FFB61D"/>
<path fill-rule="evenodd" clip-rule="evenodd" d="M48.793 65C49.3568 65 49.8135 65.0329 50.155 65.1005L50.2382 65.1205L50.8609 65.3272C51.195 65.4411 51.4277 65.7375 51.4615 66.0816L51.4658 66.1683V70.4522L51.6994 70.3036C52.0339 70.0843 52.4114 69.8139 52.8867 69.459L54.1295 68.5234C54.4281 68.3024 54.6495 68.146 54.9022 67.9766C55.1006 67.8422 55.345 67.7933 55.5795 67.8405C55.7831 67.8808 55.9651 67.9904 56.096 68.149L56.1489 68.2201L56.4292 68.6417L59.0474 73.086C59.1683 73.2901 59.2021 73.5336 59.1419 73.759C59.0821 73.9891 58.9317 74.1854 58.725 74.3041C58.3537 74.5182 57.9507 74.7825 57.4588 75.1296L56.8539 75.5655L55.8039 76.3321C55.6029 76.4773 55.4235 76.6051 55.2584 76.7204L55.0482 76.8647L55.3026 76.9938C56.4877 77.6083 57.6339 78.3358 58.579 79.1054L58.8316 79.3165L59.0739 79.5288C59.3867 79.8113 59.4578 80.2728 59.2446 80.6342L58.7679 81.4363C58.5807 81.7483 58.3688 82.0976 58.1448 82.4633L57.7171 83.1549C57.1655 84.0394 56.6888 84.7674 56.3244 85.2705C56.0964 85.5838 55.6926 85.7125 55.3294 85.5972L55.2462 85.566L54.7908 85.371C54.7453 85.3506 54.721 85.3385 54.6955 85.3238L54.669 85.3077C54.4303 85.1595 54.1772 85.0087 53.889 84.8423L52.9305 84.3007L52.2055 83.8925C52.0448 83.801 51.8979 83.7161 51.7605 83.6364L51.4689 83.4643L51.4654 84.8016C51.4585 85.9577 51.442 86.967 51.413 87.6859L51.3991 87.9892C51.3774 88.4321 51.0312 88.7865 50.5957 88.829L50.4995 88.8333L47.8696 88.7549L46.4474 88.7198L45.4828 88.7033L45.1691 88.7562C44.9602 88.7909 44.7479 88.7501 44.5689 88.6457L44.4944 88.5967L44.4246 88.5404C44.2222 88.3597 44.1139 88.0975 44.1299 87.8293C44.201 86.6073 44.2032 85.5881 44.1551 84.2435L44.1213 83.4219L40.1064 85.6544C39.7408 85.8598 39.2909 85.7805 39.0147 85.4871L38.9582 85.4208L38.9077 85.348C37.9397 83.7937 37.1203 82.1973 36.1707 80.018C36.0085 79.6462 36.1211 79.2159 36.436 78.9685L36.5065 78.9182L37.511 78.2769L37.7898 78.1361C38.3819 77.8332 39.2507 77.3517 40.2278 76.794L40.4634 76.6584L39.7483 76.3291L38.9768 75.9802C38.8937 75.9417 38.8069 75.8992 38.6942 75.8424L38.016 75.4988C37.6476 75.3159 37.4153 75.2137 37.2072 75.1465L37.0843 75.1101C37.035 75.0971 36.9873 75.0798 36.9409 75.0581L36.8725 75.023L36.4152 74.7621C36.1605 74.6165 35.9938 74.3561 35.97 74.0671C35.9452 73.7767 36.0649 73.4925 36.291 73.3074C36.6667 72.9989 36.9229 72.5946 37.3845 71.6218L37.7241 70.8972C38.324 69.638 38.7154 69.0317 39.4066 68.4333C39.6803 68.1954 40.0676 68.1486 40.3893 68.3055L40.4683 68.3488L44.087 70.5952L44.0875 70.4834C44.0862 70.2208 44.0758 69.917 44.058 69.5435L44.016 68.7132C43.9557 67.4132 43.9778 66.7524 44.1499 65.9772C44.2305 65.6123 44.5334 65.3358 44.9073 65.2873L45.4156 65.2266C45.6609 65.1989 45.946 65.169 46.2628 65.1395C47.1971 65.052 48.065 65 48.793 65ZM48.7337 66.7333C47.9376 66.7333 46.9557 66.804 45.9959 66.9045L45.764 66.9296L45.7601 66.9725L45.7458 67.1879C45.7272 67.5593 45.7359 68 45.7649 68.6244L45.813 69.5816C45.8169 69.6666 45.8199 69.7441 45.823 69.8269C45.8594 70.8348 45.8217 71.581 45.6609 72.2874C45.5972 72.5682 45.4026 72.8017 45.1396 72.9118C44.9034 73.0119 44.6374 73.0032 44.4094 72.8923L44.3258 72.8459L40.1471 70.2182L40.1004 70.281C39.8655 70.6052 39.6417 71.0164 39.3672 71.6001L39.01 72.3736C38.7791 72.8676 38.5942 73.2342 38.412 73.5367L38.3287 73.6688L38.394 73.6979C38.5198 73.7551 38.6481 73.817 38.7919 73.889L39.6257 74.3158L39.8424 74.4189L40.833 74.8726L41.3241 75.1058L41.4772 75.1799C42.0736 75.4706 42.5143 75.7077 42.7895 75.8966C43.0403 76.0691 43.1858 76.3577 43.1761 76.6627C43.1665 76.9678 43.0028 77.2473 42.7405 77.4033L42.0408 77.8163C41.7944 77.961 41.5355 78.1122 41.266 78.2682L40.2641 78.8428C39.5984 79.2207 39.0388 79.5292 38.6133 79.7494L38.4053 79.8551L38.1335 80.0315L38.2454 80.2824C38.777 81.4649 39.2749 82.4638 39.7996 83.398L39.9926 83.7365L44.4944 81.2015C44.737 81.0645 45.0265 81.0511 45.2787 81.1599L45.371 81.2062C45.6405 81.3622 45.8087 81.6491 45.8156 81.9624L45.8273 82.3901L45.9014 84.1915C45.9365 85.1673 45.9465 85.9703 45.9257 86.8114L45.9196 87.0034L46.5791 87.0168C47.2369 87.0315 48.0252 87.0528 48.8706 87.0783L49.5817 87.1L49.5973 86.3399C49.6025 86.0123 49.6068 85.6574 49.6099 85.2796L49.6164 84.1074C49.619 83.1835 49.6168 82.3429 49.6138 81.8627C49.612 81.5278 49.7962 81.2197 50.0952 81.0637C50.3929 80.9098 50.7508 80.9371 51.0225 81.1352C51.4966 81.4823 52.0105 81.812 52.6636 82.1968L53.1316 82.4685L54.5477 83.2763L54.7535 83.3963L55.1977 83.6624L55.2458 83.5909C55.7554 82.8152 56.3816 81.7934 57.0056 80.7426L57.2001 80.4132L57.1759 80.3937C56.0609 79.5076 54.5477 78.608 53.0939 77.9744L52.8872 77.8865L52.8681 77.8843C52.5535 77.8258 52.2918 77.5996 52.1882 77.2902L52.1657 77.2113C52.0716 76.8109 52.2614 76.3967 52.6272 76.2095C53.0761 75.9802 53.5666 75.6704 54.1716 75.2436L54.3778 75.0971C54.5486 74.9745 54.7228 74.8471 54.9394 74.6867L56.0297 73.8807C56.3651 73.6359 56.6325 73.4461 56.8795 73.2793L56.9484 73.2329L55.0439 69.9578L54.5152 70.3612L53.9952 70.7594C52.5739 71.8393 51.8246 72.3203 50.8271 72.722C50.5537 72.8303 50.2443 72.7965 50.0007 72.6293C49.7854 72.4811 49.6471 72.2462 49.619 71.9888L49.6138 71.8913L49.6133 66.7793L49.5475 66.7706C49.3741 66.7502 49.1553 66.7381 48.8949 66.7342L48.7337 66.7333Z" fill="#FFB61D"/>
</g>
<defs>
<clipPath id="clip0_1259_3245">
<rect width="325" height="325" fill="white"/>
</clipPath>
</defs>
</svg>
