<svg width="325" height="325" viewBox="0 0 325 325" fill="none" xmlns="http://www.w3.org/2000/svg">
<g clip-path="url(#clip0_1260_3332)">
<path d="M325 0H0V325H325V0Z" fill="#F5F5F5"/>
<path fill-rule="evenodd" clip-rule="evenodd" d="M63.4711 235.204C24.5762 208.22 71.1589 172.465 59.7796 129.71C48.4007 86.9552 20.8365 23.2065 129.58 45.9216C239.759 68.9372 309.639 98.5729 293.124 190.37C276.61 282.168 102.366 262.187 63.4711 235.204Z" fill="#FADEB4"/>
<path fill-rule="evenodd" clip-rule="evenodd" d="M232.291 272.164C229.853 269.733 228.697 266.333 227.62 263.063C224.796 267.152 218.491 267.283 214.162 264.843C209.833 262.403 206.911 258.143 203.803 254.265C198.237 247.323 174.396 230.18 174.004 225.008C173.796 222.265 181.773 217.271 181.773 217.271L167.439 208.837C167.439 208.837 160.004 214.541 155.73 215.218C143.839 217.104 135.428 215.981 135.418 218.122C135.382 225.865 182.232 265.151 167.292 264.843C144.87 264.381 103.918 220.739 90.6525 217.271C85.0971 215.819 46.9941 218.122 46.9941 208.899C46.9941 196.512 81.0277 187.989 81.0277 187.989C81.0277 187.989 72.1578 158.078 82.8936 133.618C85.3524 128.016 88.3965 121.507 88.6929 116.003C88.7744 114.493 131.696 73.8372 137.21 71.8062C150.067 67.0707 163.742 64.5678 177.443 64.4434C179.269 64.4269 231.345 71.8062 254.762 110.459C258.994 117.445 278.219 169.321 258.7 201.862C255.621 206.997 255.998 213.368 258.127 219.02C260.256 224.672 262.874 230.959 260.461 236.496C259.144 227.625 256.83 218.902 253.577 210.545C249.041 213.842 251.338 220.937 254.042 225.85C257.45 232.041 260.858 238.232 264.265 244.423C265.682 246.998 267.147 249.835 266.638 252.73C266.055 256.04 263.105 258.329 260.374 260.287C254.137 264.756 247.9 269.225 241.663 273.695C238.864 275.701 234.73 274.596 232.291 272.164Z" fill="#F5F5F5"/>
<path fill-rule="evenodd" clip-rule="evenodd" d="M148.04 135.174C148.518 133.882 150.238 133.347 151.506 133.887C152.775 134.425 153.563 135.773 153.761 137.137C153.96 138.501 153.658 139.887 153.27 141.209C152.916 142.415 152.489 143.6 151.991 144.755C151.945 144.862 151.883 144.982 151.769 145.007C151.648 145.034 151.536 144.94 151.448 144.852C149.293 142.668 147.993 139.659 147.88 136.593C147.863 136.114 147.875 135.624 148.04 135.174ZM151.767 135.49C151.413 135.187 150.957 134.988 150.491 135.002C149.404 135.035 148.645 136.221 148.669 137.309C148.694 138.396 149.273 139.383 149.835 140.314C150.238 140.981 150.64 141.648 151.043 142.315C151.18 142.542 151.45 142.802 151.664 142.644C151.75 142.581 151.783 142.469 151.812 142.366C151.976 141.76 152.141 141.154 152.306 140.549C152.542 139.682 152.779 138.802 152.764 137.905C152.75 137.007 152.449 136.074 151.767 135.49Z" fill="#FFB61D"/>
<path fill-rule="evenodd" clip-rule="evenodd" d="M151.056 138.971C150.791 139.045 150.502 139.031 150.245 138.931C149.748 138.738 149.405 138.205 149.433 137.672C149.462 137.138 149.861 136.645 150.377 136.506C151.158 136.296 152.037 137.015 151.985 137.822C151.951 138.346 151.561 138.829 151.056 138.971Z" fill="#FFB61D"/>
<path fill-rule="evenodd" clip-rule="evenodd" d="M165.289 265.715C166.181 265.833 165.852 267.217 165.273 267.906C159.747 274.485 152.531 279.633 144.512 282.719C142.714 283.411 140.853 284.006 138.931 284.138C135.366 284.384 131.815 282.991 128.996 280.796C126.177 278.599 124.028 275.648 122.278 272.533C117.491 264.014 115.483 253.961 116.633 244.257C116.741 243.344 117.364 242.132 118.205 242.503C117.961 245.748 117.923 249.008 118.092 252.257C118.258 255.448 118.626 258.648 119.542 261.71C120.391 264.544 121.696 267.218 123.058 269.846C124.456 272.546 125.939 275.238 127.959 277.512C129.98 279.785 132.603 281.632 135.586 282.222C139.327 282.96 143.166 281.672 146.614 280.046C153.766 276.674 160.182 271.751 165.289 265.715Z" fill="black"/>
<path fill-rule="evenodd" clip-rule="evenodd" d="M191.164 228.738C197.66 222.348 204.155 215.958 210.65 209.568C211.014 209.21 211.552 208.828 211.982 209.102C212.556 209.468 212.097 210.349 211.613 210.827C204.623 217.741 197.632 224.655 190.641 231.569C190.137 231.313 189.991 230.624 190.168 230.088C190.345 229.552 190.762 229.134 191.164 228.738Z" fill="black"/>
<path fill-rule="evenodd" clip-rule="evenodd" d="M141.441 191.986C141.045 192.055 140.649 192.123 140.253 192.192C139.485 191.038 138.698 189.841 138.457 188.477C138.216 187.112 138.667 185.523 139.879 184.85C141.25 184.088 141.663 182.214 141.226 180.708C140.789 179.202 139.708 177.981 138.648 176.825C137.572 175.651 135.846 174.404 134.568 175.355C133.735 175.975 132.488 175.625 131.743 174.902C130.998 174.179 130.603 173.18 130.121 172.261C129.209 170.521 127.879 168.951 126.139 168.039C124.399 167.127 122.222 166.946 120.471 167.837C118.734 168.72 117.638 170.477 116.157 171.744C114.676 173.011 112.231 173.683 110.897 172.263C110.557 171.902 110.33 171.366 110.523 170.91C110.716 170.453 111.464 170.296 111.703 170.73C112.312 171.837 113.995 171.821 115.047 171.123C116.1 170.425 116.758 169.284 117.622 168.362C119.31 166.56 121.877 165.621 124.331 165.91C126.784 166.198 129.063 167.706 130.288 169.851C130.878 170.884 131.242 172.059 132.013 172.966C132.784 173.873 134.184 174.429 135.173 173.766C136.289 173.018 137.746 173.948 138.726 174.868C140.052 176.114 141.344 177.46 142.091 179.119C142.838 180.778 142.956 182.819 141.981 184.354C141.168 185.632 139.613 186.667 139.748 188.176C139.874 189.583 141.492 190.575 141.441 191.986Z" fill="black"/>
<path fill-rule="evenodd" clip-rule="evenodd" d="M158.587 128.647C160.965 129.761 163.081 131.541 164.303 133.865C165.526 136.188 165.774 139.074 164.678 141.46C162.411 146.396 155.202 148.317 154.407 153.69C154.204 155.059 154.48 156.482 154.142 157.823C153.908 158.75 153.396 159.578 152.987 160.442C152.108 162.295 151.693 164.366 151.79 166.415C150.873 166.91 149.796 165.854 149.679 164.819C149.562 163.784 149.976 162.756 149.954 161.714C149.913 159.756 148.398 158.197 147.105 156.725C145.168 154.517 143.484 151.918 143.169 148.997C143.067 148.056 143.11 147.096 142.899 146.173C142.671 145.181 142.161 144.281 141.71 143.368C140.495 140.907 139.673 138.065 140.42 135.423C141.169 132.782 143.958 130.596 146.606 131.323C147.358 131.53 148.093 131.952 148.865 131.837C150.22 131.635 150.766 130.018 151.711 129.026C153.404 127.248 156.363 127.606 158.587 128.647ZM147.073 154.319C148.574 156.294 150.076 158.269 151.577 160.245C153.299 158.431 152.587 155.498 153.11 153.053C153.823 149.722 156.803 147.461 159.384 145.238C161.966 143.016 164.529 139.975 163.95 136.618C163.484 133.921 161.13 132.004 158.873 130.455C157.601 129.582 156.132 128.704 154.615 128.984C153.08 129.268 152.029 130.628 150.924 131.73C149.818 132.831 148.151 133.787 146.767 133.066C144.821 132.051 142.342 133.783 141.792 135.909C141.243 138.035 142.033 140.259 142.9 142.277C143.768 144.294 144.746 146.385 144.581 148.575C144.421 150.706 145.78 152.618 147.073 154.319Z" fill="black"/>
<path fill-rule="evenodd" clip-rule="evenodd" d="M27.3131 108.947C27.2156 108.683 27.6786 108.608 27.9269 108.741C27.9162 109.016 27.494 109.155 27.3224 108.94L27.3131 108.947Z" fill="black"/>
<path fill-rule="evenodd" clip-rule="evenodd" d="M207.391 217.124C207.9 217.195 208.171 217.822 208.055 218.324C207.939 218.825 207.562 219.218 207.2 219.584C204.274 222.541 201.348 225.499 198.421 228.457C198.206 228.675 197.952 228.909 197.645 228.9C197.232 228.887 196.962 228.409 197.012 227.999C197.063 227.589 197.332 227.244 197.593 226.924C200.284 223.632 203.204 220.528 206.325 217.64C206.625 217.362 206.986 217.067 207.391 217.124Z" fill="black"/>
<path fill-rule="evenodd" clip-rule="evenodd" d="M121.353 174.35C122.965 174.496 124.204 176.011 124.481 177.606C124.758 179.202 124.261 180.832 123.586 182.304C123.215 183.115 122.788 183.9 122.309 184.652C121.965 185.194 121.526 185.763 120.893 185.868C119.836 186.043 119.094 184.88 118.686 183.889C118.112 182.495 117.586 181.081 117.107 179.651C116.872 178.949 116.647 178.21 116.767 177.479C116.95 176.362 117.899 175.527 118.894 174.987C119.649 174.576 120.497 174.273 121.353 174.35ZM119.838 182.563C119.962 182.756 120.093 182.954 120.288 183.076C120.446 183.177 120.641 183.219 120.827 183.193C121.307 183.126 121.615 182.664 121.86 182.247C122.501 181.154 123.159 180.008 123.231 178.743C123.303 177.478 122.584 176.071 121.344 175.81C119.894 175.505 118.542 176.958 118.419 178.435C118.296 179.913 119.038 181.316 119.838 182.563Z" fill="#FFB61D"/>
<path fill-rule="evenodd" clip-rule="evenodd" d="M121.283 177.348C121.681 177.476 122.024 177.767 122.217 178.138C122.388 178.468 122.44 178.86 122.36 179.223C122.176 180.063 121.227 180.648 120.393 180.437C119.56 180.226 119.005 179.259 119.243 178.433C119.481 177.607 120.465 177.083 121.283 177.348ZM121.099 179.09C121.402 178.931 121.131 178.349 120.814 178.479C120.568 178.511 120.405 178.821 120.517 179.042C120.63 179.263 120.976 179.314 121.147 179.135L121.099 179.09Z" fill="#FFB61D"/>
<path fill-rule="evenodd" clip-rule="evenodd" d="M206.608 193.238C205.709 192.267 204.901 191.213 204.198 190.092C203.974 189.734 204.439 189.268 204.858 189.323C205.278 189.379 205.586 189.731 205.853 190.059C206.784 191.201 207.715 192.343 208.647 193.485C208.54 193.893 208.025 194.077 207.618 193.969C207.211 193.861 206.894 193.548 206.608 193.238Z" fill="black"/>
<path fill-rule="evenodd" clip-rule="evenodd" d="M237.291 246.162C237.301 246.295 237.252 246.425 237.201 246.548C236.69 247.794 235.928 248.936 234.976 249.887C233.46 251.4 231.406 252.521 230.595 254.503C230.403 254.972 229.686 255.04 229.313 254.696C228.94 254.352 228.889 253.762 229.054 253.282C229.219 252.802 229.56 252.407 229.894 252.025C230.98 250.779 232.066 249.534 233.153 248.288C233.985 247.334 234.854 246.351 236.007 245.827C236.482 245.612 237.251 245.642 237.291 246.162Z" fill="black"/>
<path fill-rule="evenodd" clip-rule="evenodd" d="M207.715 188.052C208.787 189.312 209.859 190.572 210.931 191.832C211.111 192.043 211.302 192.284 211.29 192.562C211.271 192.993 210.741 193.251 210.32 193.15C209.901 193.05 209.583 192.714 209.301 192.387C208.393 191.333 207.579 190.197 206.873 188.998C206.598 188.531 206.491 187.714 207.028 187.644C207.304 187.608 207.534 187.841 207.715 188.052Z" fill="black"/>
<path fill-rule="evenodd" clip-rule="evenodd" d="M195.366 195.074C195.203 194.845 195.034 194.547 195.172 194.302C195.4 193.897 196.017 194.211 196.325 194.558C197.415 195.787 198.342 197.159 199.076 198.628C198.377 198.982 197.634 198.262 197.18 197.624C196.575 196.774 195.97 195.924 195.366 195.074Z" fill="black"/>
<path fill-rule="evenodd" clip-rule="evenodd" d="M196.332 198.692C196.769 199.146 197.21 199.892 196.756 200.327C196.293 200.77 195.554 200.27 195.145 199.777C194.157 198.584 193.299 197.285 192.588 195.909C193.044 195.517 193.719 195.973 194.136 196.406C194.868 197.168 195.6 197.93 196.332 198.692Z" fill="black"/>
<path fill-rule="evenodd" clip-rule="evenodd" d="M197.52 194.225C197.323 193.935 197.137 193.536 197.351 193.258C197.657 192.861 198.278 193.225 198.62 193.592C199.612 194.655 200.604 195.719 201.596 196.782C201.552 197.166 201.101 197.396 200.718 197.339C200.336 197.283 200.017 197.025 199.73 196.765C198.896 196.01 198.153 195.155 197.52 194.225Z" fill="black"/>
<path fill-rule="evenodd" clip-rule="evenodd" d="M203.775 191.867C204.393 192.655 205.011 193.443 205.629 194.231C205.873 194.544 206.132 194.945 205.972 195.309C205.818 195.659 205.332 195.751 204.98 195.601C204.628 195.45 204.381 195.132 204.152 194.825C203.507 193.965 202.868 193.099 202.236 192.229C202.096 192.038 201.95 191.822 201.971 191.586C202.006 191.191 202.51 190.987 202.887 191.107C203.264 191.228 203.531 191.555 203.775 191.867Z" fill="black"/>
<path fill-rule="evenodd" clip-rule="evenodd" d="M203.309 195.502C203.437 195.641 203.574 195.804 203.56 195.993C203.542 196.245 203.246 196.401 202.997 196.363C202.747 196.326 202.54 196.155 202.353 195.986C201.119 194.878 200.08 193.554 199.296 192.093C199.45 191.691 200.057 191.964 200.348 192.281C201.335 193.355 202.322 194.428 203.309 195.502Z" fill="black"/>
<path fill-rule="evenodd" clip-rule="evenodd" d="M215.283 188.395C215.379 188.506 215.481 188.632 215.475 188.779C215.466 189 215.203 189.138 214.985 189.101C214.767 189.064 214.59 188.908 214.428 188.758C213.267 187.685 212.157 186.558 211.102 185.381C211.475 184.88 212.262 185.282 212.715 185.712C213.613 186.565 214.47 187.461 215.283 188.395Z" fill="black"/>
<path fill-rule="evenodd" clip-rule="evenodd" d="M211.605 189.466C210.956 188.576 210.307 187.688 209.658 186.798C209.538 186.635 209.413 186.437 209.477 186.245C209.603 185.869 210.175 186.037 210.483 186.288C211.459 187.084 212.288 188.061 212.915 189.154C213.036 189.366 213.153 189.618 213.067 189.846C212.957 190.137 212.558 190.223 212.272 190.101C211.986 189.98 211.789 189.717 211.605 189.466Z" fill="black"/>
<path fill-rule="evenodd" clip-rule="evenodd" d="M216.786 186.198C216.145 185.509 215.503 184.819 214.862 184.13C214.634 183.884 214.91 183.448 215.244 183.412C215.577 183.377 215.882 183.587 216.147 183.794C216.633 184.174 217.102 184.576 217.553 184.999C217.801 185.233 218.054 185.488 218.148 185.816C218.242 186.145 218.113 186.562 217.79 186.673C217.419 186.801 217.053 186.486 216.786 186.198Z" fill="black"/>
<path fill-rule="evenodd" clip-rule="evenodd" d="M215.541 187.563C214.653 186.653 213.803 185.706 212.993 184.726C212.852 184.556 212.704 184.345 212.764 184.132C212.832 183.892 213.146 183.798 213.383 183.878C213.619 183.959 213.793 184.158 213.954 184.349C214.696 185.226 215.438 186.104 216.18 186.982C216.38 187.22 216.578 187.593 216.35 187.805C216.12 188.018 215.76 187.788 215.541 187.563Z" fill="black"/>
<path fill-rule="evenodd" clip-rule="evenodd" d="M257.763 243.832C258.765 243.523 261.301 242.834 262.303 242.526C262.752 242.387 263.42 242.369 263.504 242.831C263.573 243.212 263.136 243.471 262.769 243.594C261.757 243.934 259.176 244.549 258.117 244.677C257.739 244.723 257.192 244.582 257.268 244.21C257.312 243.996 257.554 243.896 257.763 243.832Z" fill="black"/>
<path fill-rule="evenodd" clip-rule="evenodd" d="M145.826 201.935C147.412 201.958 149.287 202.327 149.92 203.782C150.514 205.148 149.58 206.791 148.269 207.5C146.959 208.209 145.398 208.226 143.908 208.224C123.58 208.198 103.254 207.708 82.9481 206.753C81.6827 206.693 81.5632 204.868 81.8522 203.634C82.0247 202.898 82.2188 202.123 82.7496 201.584C83.5136 200.81 84.7252 200.757 85.8129 200.754C100.41 200.706 115.034 200.66 129.57 202.004C131.872 202.217 134.177 202.464 136.489 202.442C139.606 202.412 142.708 201.89 145.826 201.935ZM148.102 205.625C148.443 204.96 147.942 204.115 147.26 203.809C146.578 203.504 145.794 203.584 145.051 203.657C135.522 204.594 125.928 203.512 116.37 202.954C109.422 202.548 102.462 202.418 95.5035 202.289C92.6027 202.235 89.702 202.181 86.8013 202.127C85.8761 202.11 84.8621 202.123 84.1515 202.715C83.4404 203.308 83.4165 204.704 84.2988 204.984C84.4582 205.035 84.6277 205.043 84.795 205.051C105.217 206.044 125.666 206.49 146.112 206.387C146.861 206.383 147.76 206.292 148.102 205.625Z" fill="black"/>
<path fill-rule="evenodd" clip-rule="evenodd" d="M132.849 218.366C134.662 222.334 138.567 225.272 142.882 225.913C144.913 226.215 146.299 228.061 147.455 229.758C148.657 231.52 149.538 234.508 147.552 235.286C155.261 243.788 162.97 252.289 170.68 260.79C171.575 261.778 172.445 263.426 171.407 264.263C171.021 264.573 170.493 264.622 169.998 264.638C163.646 264.851 157.653 261.878 152.156 258.689C144.24 254.095 136.68 248.89 129.566 243.134C124.368 238.928 116.9 237.725 110.645 240.086C107.399 241.31 103.331 238.814 102.952 235.366C102.573 231.918 106.003 228.598 109.436 229.089C104.274 221.429 95.0411 216.695 85.808 216.974C74.6644 217.311 63.4758 216.142 52.6424 213.508C51.6908 213.277 50.669 212.988 50.0723 212.212C48.882 210.664 50.1304 208.463 51.4386 207.013C61.0764 196.333 75.9055 190.57 90.2263 191.942C90.8364 192 91.1684 191.259 91.3114 190.663C94.9518 175.492 98.5922 160.321 102.232 145.149C102.671 143.32 105.456 143.067 106.836 144.346C108.215 145.625 108.519 147.664 108.678 149.539C109.863 163.513 107.793 178.557 114.74 190.741C115.063 191.308 115.429 191.889 115.997 192.211C116.557 192.529 117.231 192.548 117.875 192.56C130.737 192.788 143.6 193.016 156.462 193.244C158.064 193.272 160.032 193.081 160.679 191.615C162.338 187.858 163.997 184.101 165.656 180.343C166.184 179.148 166.912 177.792 168.204 177.595C170.054 177.313 171.225 179.637 171.164 181.507C171.104 183.378 170.475 185.365 171.299 187.046C174.321 183.834 177.394 180.581 181.173 178.307C184.951 176.033 189.592 174.825 193.829 176.047C190.084 182.003 186.337 187.959 182.592 193.915C185.72 195.985 185.967 201.221 183.047 203.576C181.8 204.582 182.789 206.566 183.822 207.791C187.058 211.626 190.294 215.461 193.53 219.297C190.768 220.578 187.551 219.26 184.836 217.884C179.982 215.425 175.244 212.737 170.643 209.833C168.41 208.424 165.949 211.066 163.922 212.758C160.705 215.445 156.263 215.98 152.093 216.405C145.679 217.059 139.264 217.713 132.849 218.366ZM144.038 210.029C147.979 210.245 151.995 210.518 155.819 209.541C159.734 208.54 163.298 206.211 165.785 203.027C166.389 202.254 167.448 202.035 168.415 201.869C171.754 201.294 175.27 200.732 178.459 201.875C179.898 202.39 181.654 201.8 182.49 200.521C183.326 199.241 183.16 197.396 182.11 196.286C180.974 196.254 180.767 197.867 180.164 198.831C179.372 200.098 177.644 200.304 176.152 200.379C170.679 200.654 165.206 200.929 159.733 201.204C158.404 201.271 156.574 200.885 156.613 199.555C156.631 198.97 157.058 198.486 157.477 198.077C158.947 196.643 160.624 195.421 162.44 194.463C140.217 194.632 117.99 194.382 95.7764 193.714C84.853 193.386 73.2045 193.137 63.897 198.863C63.0281 199.398 62.3487 200.975 63.3566 201.13C66.3258 201.588 69.295 202.046 72.2642 202.505C72.6178 202.559 72.9961 202.626 73.2522 202.876C74.0192 203.625 72.9445 204.83 71.9561 205.246C67.8771 206.963 63.0173 206.702 59.1468 204.556C58.2697 204.07 57.2288 203.478 56.3353 203.933C55.2559 204.483 55.4041 206.219 56.3197 207.012C57.2358 207.806 58.5401 207.917 59.7491 207.992C70.6128 208.662 81.4764 209.333 92.3397 210.003C95.3934 210.192 98.4566 210.38 101.51 210.189C115.667 209.307 129.875 209.253 144.038 210.029ZM159.896 252.143C156.094 246.912 151.763 242.065 146.991 237.701C145.428 236.272 144.052 234.654 142.68 233.041C136.681 225.989 130.683 218.937 124.685 211.886C124.086 211.181 123.05 211.089 122.127 211.06C114.248 210.81 106.344 211.395 98.5879 212.803C98.0146 212.907 97.3958 213.041 97.0171 213.485C96.1391 214.512 97.2363 216.013 98.2655 216.889C108.563 225.657 119.24 233.981 130.255 241.829C132.282 243.274 134.339 244.713 136.628 245.69C140.948 247.535 145.267 249.379 149.585 251.223C152.89 252.634 156.829 254.014 159.896 252.143ZM108.321 174.284C108.162 172.224 108.162 170.128 107.595 168.141C106.575 164.561 103.855 161.75 101.148 159.196C100.938 158.998 100.661 158.784 100.39 158.884C100.143 158.974 100.054 159.27 99.9975 159.526C97.9799 168.714 95.9623 177.902 93.9447 187.09C93.5643 188.824 93.1812 190.582 93.2635 192.356C100.337 192.445 107.41 192.535 114.484 192.623C110.96 187.144 108.821 180.78 108.321 174.284ZM191.431 177.335C187.037 176.96 182.512 178.575 179.349 181.647C173.555 187.274 167.367 192.497 160.847 197.264C159.954 197.916 158.997 198.639 158.694 199.703C164.157 199.457 169.62 199.21 175.083 198.964C176.524 198.899 178.22 198.683 178.909 197.416C182.678 190.481 186.863 183.772 191.431 177.335ZM51.2103 209.865C51.0616 210.184 50.9295 210.538 51.0122 210.88C51.1583 211.484 51.8637 211.735 52.4678 211.882C64.6822 214.846 77.3541 215.227 89.9178 215.595C91.1679 215.632 92.4649 215.66 93.6128 215.163C94.7607 214.667 95.7149 213.486 95.5281 212.25C87.3615 211.118 79.1187 210.538 70.8741 210.515C65.9349 210.501 60.8554 210.665 56.2252 208.946C55.1081 208.532 53.8441 207.7 53.9862 206.517C52.7967 207.373 51.8312 208.538 51.2103 209.865ZM167.683 207.66C167.245 206.709 166.01 206.357 164.986 206.577C163.963 206.796 163.093 207.445 162.235 208.044C160.253 209.428 158.111 210.648 155.759 211.206C153.709 211.691 151.575 211.657 149.469 211.619C141.778 211.483 134.087 211.347 126.397 211.211C128.109 213.766 130.457 216.637 133.515 216.301C139.497 215.644 145.556 215.801 151.51 214.923C157.464 214.044 163.496 211.983 167.683 207.66ZM185.477 214.239C185.757 214.201 186.083 214.107 186.171 213.839C186.245 213.614 186.11 213.378 185.979 213.181C183.763 209.848 181.035 206.892 178.319 203.953C177.905 203.504 177.473 203.043 176.91 202.806C176.328 202.562 175.671 202.585 175.041 202.632C172.466 202.825 169.915 203.35 167.471 204.191C167.272 204.259 167.04 204.37 167.018 204.58C167 204.742 167.122 204.884 167.237 205.001C169.804 207.61 173.014 209.474 176.183 211.306C179.05 212.964 182.195 214.681 185.477 214.239ZM112.443 230.999C112.204 230.814 111.949 230.622 111.649 230.583C111.405 230.551 111.162 230.625 110.927 230.698C110.385 230.866 109.842 231.035 109.299 231.203C108.767 231.368 108.103 231.857 108.409 232.322C109.367 233.772 109.755 235.586 109.475 237.301C109.385 237.857 110.185 238.056 110.747 238.016C113.653 237.811 116.558 237.606 119.464 237.401C119.767 237.379 120.176 237.226 120.105 236.93C117.551 234.953 114.997 232.976 112.443 230.999ZM162.232 191.702C162.028 192.236 162.573 192.815 163.141 192.874C163.71 192.933 164.25 192.646 164.75 192.368C166.551 191.366 168.492 190.202 169.172 188.257C169.394 187.623 169.463 186.948 169.529 186.279C169.644 185.133 169.759 183.987 169.873 182.84C169.899 182.586 169.919 182.31 169.785 182.093C169.65 181.875 169.292 181.787 169.143 181.995C168.539 182.834 167.652 183.465 166.662 183.762C166.233 183.89 165.773 183.964 165.412 184.228C164.982 184.542 164.771 185.067 164.58 185.565C163.798 187.611 163.015 189.656 162.232 191.702ZM144.328 228.44C143.544 226.977 141.383 226.485 140.042 227.466C141.77 228.815 142.745 230.898 144.211 232.529C144.715 233.09 145.371 233.632 146.125 233.583C146.878 233.533 147.5 232.527 146.967 231.993C145.92 230.946 145.028 229.745 144.328 228.44ZM105.916 232.431C104.749 233.57 105.147 235.498 105.628 237.055C105.79 237.58 106.308 238.233 106.737 237.89C106.883 237.773 106.935 237.578 106.979 237.397C107.194 236.502 107.411 235.586 107.314 234.671C107.218 233.756 106.747 232.826 105.916 232.431Z" fill="black"/>
<path fill-rule="evenodd" clip-rule="evenodd" d="M234.891 274.331C232.452 271.9 231.297 268.5 230.219 265.229C227.395 269.318 223.732 272.221 219.403 269.781C215.074 267.341 209.511 260.309 206.402 256.432C200.837 249.49 194.225 243.388 186.859 238.396C190.793 242.712 193.145 248.438 193.381 254.272C196.365 254.242 199.349 254.211 202.333 254.179C192.301 257.598 181.554 258.901 170.996 257.978C176.732 253.154 181.219 246.854 183.902 239.855C183.304 237.961 180.458 238.4 178.796 239.488C177.135 240.576 174.984 241.957 173.384 240.781C171.413 239.333 171.549 234.799 169.209 235.508C163.134 237.349 155.932 233.692 153.834 227.701C152.401 228.597 150.968 229.493 149.535 230.388C148.845 228.169 152.04 226.454 154.193 227.33C156.346 228.205 157.608 230.382 159.101 232.164C160.593 233.945 162.989 235.517 165.12 234.589C169.091 232.86 174.313 235.983 174.668 240.3C177.747 237.829 181.97 236.849 185.822 237.712C183.365 234.152 180.622 230.789 177.629 227.666C179.905 224.634 182.718 222.007 185.899 219.945C184.338 222.896 182.174 225.526 179.579 227.628C192.886 240.674 206.193 253.72 219.5 266.766C220.338 267.587 221.298 268.462 222.471 268.478C223.756 268.496 224.793 267.484 225.669 266.544C231.914 259.841 238.16 253.139 244.406 246.437C246.032 244.691 247.744 242.766 247.989 240.392C248.295 237.41 246.214 234.766 244.226 232.522C236.229 223.494 227.721 214.919 218.755 206.852C214.822 203.314 209.638 199.635 204.691 201.509C198.722 203.769 197.301 212.753 191.17 214.527C193.003 212.007 194.837 209.487 196.67 206.968C193.035 204.338 188.489 198.47 188.252 193.99C191.17 191.332 194.767 189.319 197.751 187.776C194.767 180.751 195.121 179.29 199.112 178.331C203.102 177.371 206.559 176.421 210.226 175.194C220.392 171.794 225.245 155.672 216.711 148.976C212.017 145.292 176.831 109.131 161.724 95.7986C162.868 100.902 156.145 105.713 151.684 102.984C152.54 105.925 150.482 109.485 147.444 109.873C144.405 110.261 141.44 106.891 142.504 104.018C143.42 101.546 146.349 100.523 148.05 98.5078C149.751 96.4932 148.267 92.065 145.955 93.3333C144.735 98.2473 137.548 100.341 133.879 96.8516C132.587 95.6231 130.895 95.321 129.165 95.6114C127.046 95.9667 123.38 96.7896 121.812 98.3093C119.356 100.69 118.801 104.168 115.877 105.784C115.411 106.042 114.922 106.263 114.406 106.439C110.652 107.718 105.396 104.003 107.345 100.549C96.6637 110.398 89.3313 123.815 86.8106 138.124C92.3854 139.713 93.4441 147.035 93.4285 152.832C87.1391 154.428 93.0553 166.433 87.6162 169.971C81.4152 174.004 83.1394 183.381 85.5947 190.358C79.3092 176.831 78.553 160.831 83.5346 146.772C83.0423 155.691 82.5501 164.611 82.0574 173.531C86.275 172.914 87.9784 167.774 88.3273 163.526C88.6761 159.278 88.9413 154.279 92.5128 151.953C91.1795 148.554 90.6326 144.85 90.9264 141.211C89.3742 140.709 87.822 140.208 86.2698 139.707C85.3373 146.275 78.043 149.505 72.0279 152.301C65.5339 155.32 59.4248 159.165 53.8937 163.713C47.961 168.592 42.3112 175.3 42.9682 182.952C43.5999 190.311 49.9409 195.938 56.5977 199.136C49.4694 199.12 43.3507 192.779 42.2016 185.743C41.0525 178.708 44.1182 171.47 48.9108 166.193C53.7031 160.916 60.0583 157.329 66.5029 154.281C74.942 150.29 85.1782 145.114 85.4933 135.784C85.7554 128.007 94.286 120.384 90.1992 113.762C84.4593 104.459 81.2579 93.6076 81.0291 82.6794C80.916 77.2883 81.9001 71.1852 86.3196 68.0951C88.5201 66.5568 91.2574 66.0199 93.9246 65.7135C103.816 64.5778 114.006 66.1625 123.085 70.2492C128.444 72.6607 134.296 76.0039 139.81 73.9729C152.666 69.237 166.342 66.7345 180.043 66.6101C181.869 66.5932 183.385 65.2525 184.656 63.9412C189.661 58.7824 193.836 52.8128 199.282 48.1224C204.727 43.432 211.971 40.0553 219.01 41.5068C226.379 43.0265 231.88 49.5888 234.287 56.7171C236.695 63.8459 236.558 71.5471 236.396 79.0689C236.104 92.5403 253.001 99.8767 257.362 112.626C259.933 120.142 268.415 123.626 276.044 125.844C283.673 128.061 292.218 130.518 296.15 137.422C299.812 143.851 298.001 152.274 293.678 158.28C289.355 164.285 282.954 168.4 276.709 172.369C266.599 178.797 269.437 195.236 261.3 204.029C257.198 208.462 258.598 215.535 260.727 221.187C262.856 226.839 265.473 233.125 263.061 238.663C261.743 229.791 259.43 221.069 256.177 212.711C251.641 216.009 253.938 223.104 256.642 228.017C260.049 234.208 263.457 240.399 266.864 246.59C268.282 249.164 269.747 252.002 269.237 254.896C268.654 258.206 265.705 260.496 262.973 262.453C256.737 266.923 250.5 271.392 244.263 275.862C241.464 277.867 237.33 276.762 234.891 274.331ZM248.202 217.27C247.654 216.654 246.653 216.955 245.906 217.3C245.157 217.646 244.407 217.992 243.659 218.338C243.494 218.414 243.313 218.491 243.139 218.444C242.81 218.354 242.755 217.867 242.961 217.596C243.168 217.326 243.517 217.217 243.841 217.112C244.532 216.888 245.205 216.612 245.855 216.289C246.227 216.104 246.625 215.86 246.726 215.457C246.827 215.055 246.365 214.566 246.024 214.801C245.018 215.494 243.887 216.004 242.702 216.299C242.346 216.387 241.792 216.276 241.876 215.919C241.908 215.783 242.035 215.693 242.154 215.618C243.211 214.954 244.365 214.443 245.568 214.106C246.001 213.985 245.893 213.257 245.481 213.078C245.068 212.899 244.596 213.08 244.184 213.26C243.187 213.694 242.19 214.129 241.193 214.564C240.978 214.657 240.738 214.779 240.681 215.006C240.63 215.209 240.747 215.412 240.86 215.589C241.585 216.724 242.31 217.858 243.035 218.993C243.145 219.166 243.27 219.351 243.465 219.414C243.677 219.483 243.904 219.388 244.106 219.293C245.486 218.649 246.851 217.974 248.202 217.27ZM180.075 93.8295C177.728 93.8698 175.965 91.2013 176.402 88.8951C176.839 86.5885 178.913 84.8625 181.158 84.1787C184.21 83.2497 187.853 83.7935 190.285 81.7295C191.378 80.8026 192.045 79.471 193.04 78.4401C195.209 76.1928 198.982 75.717 201.64 77.3563C202.237 75.7898 200.471 74.2753 198.818 73.9963C197.165 73.7172 195.383 74.0504 193.86 73.3493C191.185 72.1178 188.036 73.6999 185.894 75.7218C183.754 77.7442 181.998 80.2913 179.36 81.5987C176.721 82.906 172.729 82.1767 172.003 79.3228C171.777 78.4336 171.75 77.2554 170.882 76.9555C169.514 76.4823 168.802 74.8855 168.884 73.4403C168.965 71.9951 169.658 70.6652 170.336 69.386C167.655 69.2513 164.963 69.3345 162.296 69.6348C161.656 69.7067 160.843 69.9771 160.844 70.6206C160.847 71.9514 159.611 72.906 158.502 73.6396C156.152 75.1927 153.803 76.7458 151.453 78.2988C151.527 79.8497 153.814 80.2211 155.153 79.4355C156.493 78.6498 157.437 77.2454 158.881 76.6747C159.652 76.3696 160.499 76.3324 161.328 76.2986C162.743 76.2409 164.159 76.1833 165.574 76.1257C167.388 76.052 169.835 76.5126 169.931 78.3253C170.01 79.812 168.359 80.6804 167.302 81.7295C164.897 84.1163 164.905 88.7365 161.749 89.9689C160.627 90.4066 160.325 91.9605 160.817 93.0599C161.309 94.1588 162.335 94.9059 163.306 95.6183C180.253 108.053 209.775 140.111 210.422 140.196C211.067 140.282 211.825 139.818 211.789 139.168C211.696 137.486 211.605 135.773 212.017 134.139C212.428 132.505 213.427 130.933 214.967 130.249C216.386 129.62 218.452 129.478 218.759 127.955C219.446 124.551 222.855 121.918 226.323 122.112C228.027 122.208 229.907 122.859 231.326 121.909C230.182 120.824 228.492 120.6 227.074 119.911C225.656 119.223 224.409 117.48 225.256 116.15C226.507 114.187 224.684 111.62 225.059 109.322C225.218 108.347 225.769 107.484 226.351 106.686C228.325 103.98 230.818 101.655 233.655 99.8745C234.315 99.4607 234.48 98.5888 234.584 97.817C234.835 95.9541 235.085 94.0908 235.336 92.2275C235.511 90.9275 235.629 89.4359 234.738 88.4744C231.835 85.3453 227.002 85.2426 222.736 85.3821C218.469 85.5212 213.649 85.4662 210.694 82.3865C209.776 81.4305 208.101 81.7555 207.107 82.6304C206.112 83.5053 205.562 84.765 204.821 85.8635C202.508 89.2951 198.029 91.1138 193.977 90.2666C191.808 89.8129 189.62 88.6694 187.49 89.2817C184.65 90.0981 183.03 93.7792 180.075 93.8295ZM261.606 178.293C261.737 178.766 261.928 179.307 262.392 179.467C262.765 179.594 263.166 179.42 263.521 179.249C264.7 178.681 265.878 178.114 267.057 177.546C267.662 177.254 268.341 176.868 268.449 176.205C270.631 162.765 269.999 148.876 266.605 135.69C265.803 132.572 264.846 129.486 263.57 126.53C261.94 122.753 259.805 119.218 257.614 115.738C254.459 110.728 251.172 105.801 247.757 100.965C247.123 101.954 246.934 103.151 246.612 104.279C246.29 105.408 245.749 106.578 244.712 107.129C243.676 107.679 242.083 107.212 241.899 106.053C241.502 103.546 238.812 101.651 236.318 102.12C235.782 102.221 235.604 102.888 235.537 103.43C234.93 108.353 234.323 113.276 233.717 118.199C233.672 118.557 233.654 118.983 233.935 119.209C234.17 119.396 234.504 119.355 234.804 119.35C236.502 119.325 237.982 121.097 237.654 122.763C237.326 124.429 235.284 125.508 233.723 124.841C233.049 124.553 232.521 125.467 232.353 126.18C231.333 130.483 230.314 134.787 229.294 139.091C228.993 140.361 230.09 141.559 231.269 142.117C232.448 142.674 233.796 142.876 234.878 143.605C237.588 145.43 237.471 149.582 239.662 152.005C241.448 153.98 244.751 154.338 246.919 152.794C248.859 151.412 249.702 148.888 249.703 146.506C249.704 144.882 250.712 143.301 252.185 142.616C253.657 141.931 255.517 142.177 256.76 143.223C257.97 144.241 258.519 145.823 259.015 147.325C259.233 147.988 259.452 148.71 259.217 149.367C258.833 150.441 257.513 150.76 256.434 151.128C254.451 151.806 252.714 153.178 251.594 154.949C251.048 155.814 250.678 157.026 251.354 157.793C253.006 159.668 254.658 161.542 256.31 163.417C257.174 164.397 258.064 165.424 258.411 166.684C259.476 170.554 260.541 174.423 261.606 178.293ZM93.311 116.669C95.9002 111.837 98.5145 106.966 102.032 102.761C105.112 99.0789 108.822 95.9823 112.527 92.9286C117.408 88.9055 122.318 84.9184 127.258 80.9677C129.314 79.3232 131.402 77.6683 133.8 76.5794C126.613 73.4126 119.38 70.2297 111.75 68.3694C104.12 66.5096 95.9929 66.0242 88.4642 68.2598C87.7388 68.4752 87.0104 68.72 86.3842 69.1447C85.3269 69.8623 84.6591 71.024 84.1582 72.1997C82.1891 76.819 82.2996 82.0532 82.9401 87.034C84.2847 97.4899 87.8423 107.656 93.311 116.669ZM255.578 260.074C255.51 260.776 254.753 261.436 254.118 261.131C253.817 260.987 253.634 260.681 253.469 260.392C250.934 255.967 248.399 251.542 245.865 247.116C244.229 247.732 243.443 249.703 243.627 251.442C243.81 253.179 244.737 254.738 245.642 256.233C247.025 258.52 248.409 260.807 249.792 263.094C249.065 263.844 247.894 262.848 247.355 261.953C245.435 258.766 243.515 255.578 241.595 252.391C237.928 256.163 234.261 259.934 230.594 263.706C232.982 267.439 235.37 271.172 237.758 274.905C238.321 275.785 239.526 276.066 240.547 275.845C241.567 275.624 242.45 275.004 243.301 274.399C249.701 269.847 256.1 265.295 262.501 260.743C262.987 260.397 263.508 260.002 263.651 259.423C263.8 258.816 263.49 258.201 263.189 257.654C248.712 231.317 233.26 205.515 216.877 180.319C216.395 179.578 215.785 178.758 214.902 178.7C214.314 178.661 213.768 178.981 213.266 179.29C206.768 183.289 200.271 187.287 193.773 191.286C192.57 192.026 191.367 192.766 190.164 193.507C189.85 193.699 189.513 193.923 189.408 194.275C189.284 194.691 189.531 195.119 189.768 195.483C192.134 199.12 194.633 202.67 197.257 206.126C200.358 202.788 204.047 199.194 208.601 199.307C212.533 199.404 215.777 202.264 218.641 204.96C220.316 206.537 221.991 208.114 223.666 209.691C221.019 204.73 217.888 200.028 214.334 195.672C214.18 194.938 215.472 195.139 215.97 195.699C220.93 201.279 223.661 208.612 228.884 213.946C234.222 219.397 239.56 224.848 244.898 230.299C247.165 232.614 249.571 235.231 249.75 238.466C249.913 241.421 248.161 244.109 246.4 246.487C249.505 250.152 252.345 254.042 254.891 258.116C255.265 258.714 255.646 259.372 255.578 260.074ZM199.046 69.9944C201.294 70.4399 203.545 70.8858 205.75 71.5085C211.43 73.1127 216.711 75.857 221.946 78.5831C226.515 80.9621 231.109 83.3571 235.21 86.4745C235.656 75.3305 235.214 64.2649 231.506 53.7462C230.437 50.7128 227.854 47.442 225.342 45.434C222.392 43.0764 218.297 42.6615 214.559 43.1963C208.028 44.1305 202.081 47.6279 197.182 52.0458C192.283 56.4636 188.311 61.794 184.373 67.0863C189.264 68.0557 194.155 69.0251 199.046 69.9944ZM264.647 124.087C270.956 140.184 273.017 157.926 270.565 175.041C278.572 170.452 285.728 164.384 291.566 157.236C294.474 153.674 297.17 149.481 296.981 144.886C296.825 141.11 294.677 137.624 291.84 135.127C289.004 132.629 285.52 130.996 282.019 129.573C276.388 127.282 270.572 125.446 264.647 124.087ZM252.273 151.61C253.756 150.522 255.342 149.576 257.004 148.789C257 147.728 256.988 146.633 256.563 145.662C256.137 144.691 255.182 143.869 254.124 143.941C253.013 144.018 252.174 145.034 251.82 146.091C251.468 147.149 251.461 148.288 251.217 149.376C250.542 152.384 247.876 154.839 244.823 155.265C241.771 155.692 238.534 154.061 237.061 151.353C235.873 149.171 235.695 146.348 233.802 144.738C232.754 143.846 231.359 143.504 230.02 143.189C229.709 143.116 229.378 143.043 229.076 143.147C228.589 143.313 228.361 143.856 228.19 144.34C227.043 147.584 225.896 150.827 224.749 154.07C224.325 155.27 223.976 156.803 224.924 157.652C233.68 165.489 237.244 177.953 246.15 185.619C246.413 185.847 246.738 186.084 247.077 186.003C251.325 184.995 255.444 183.442 259.299 181.394C259.606 181.231 259.926 181.05 260.102 180.751C260.281 180.447 260.28 180.073 260.262 179.721C260.135 177.298 259.414 174.908 258.181 172.818C257.598 171.83 256.882 170.854 256.77 169.711C256.676 168.736 257.038 167.736 256.806 166.784C256.617 166.006 256.06 165.379 255.522 164.787C254.001 163.113 252.481 161.439 250.96 159.766C250.208 158.938 249.427 158.055 249.196 156.961C248.747 154.828 250.516 152.899 252.273 151.61ZM156.968 102.336C158.762 101.257 159.849 99.1045 159.653 97.0201C159.367 93.979 156.748 91.7625 154.33 89.8953C150.368 86.8364 141.309 79.4038 137.326 77.8061C133.343 76.2084 115.721 91.9276 109.597 97.9544C109.288 98.2586 108.966 98.5905 108.879 99.0161C108.793 99.4412 106.922 104.018 110.689 105.13C114.457 106.242 114.861 105.385 116.4 104.018C117.94 102.65 118.836 100.71 119.559 98.7825C120.176 97.1358 122.044 96.348 123.767 95.997C125.49 95.646 127.347 95.5152 128.772 94.4851C130.257 93.4126 132.33 93.475 134.021 94.1762C135.713 94.8773 137.11 96.1249 138.472 97.3499C139.61 98.373 141.449 97.229 142.15 95.8688C142.851 94.509 143.146 92.8311 144.372 91.9163C146.126 90.6081 148.817 91.779 149.897 93.6817C151.432 96.3875 150.346 100.251 147.626 101.761C146.05 102.636 143.743 103.223 143.68 105.025C143.649 105.92 144.274 106.708 144.971 107.272C146.221 108.283 148.257 108.763 149.322 107.559C150.84 105.842 149.145 102.214 151.248 101.302C153.104 100.497 155.234 103.379 156.968 102.336ZM204.905 83.1301C205.534 82.1546 206.164 81.086 207.213 80.5886C208.553 79.9533 210.164 80.4581 211.435 81.2221C212.707 81.9861 213.843 83.0087 215.238 83.514C216.657 84.0284 218.213 83.959 219.721 83.8828C222.229 83.7562 224.738 83.6297 227.246 83.5032C212.084 74.7182 195.03 68.5575 177.508 68.3842C176.03 68.3699 174.52 68.4032 173.134 68.9141C171.748 69.4255 170.489 70.501 170.134 71.9345C169.593 74.118 171.579 76.4515 173.827 76.5213C172.653 77.381 172.834 79.3778 173.953 80.3091C175.071 81.2399 176.746 81.2325 178.089 80.6722C179.432 80.1115 180.521 79.0892 181.577 78.0878C183.543 76.2249 185.51 74.3616 187.476 72.4982C188.712 71.3274 190.636 71.2775 192.306 71.6082C193.976 71.9388 195.611 72.5784 197.313 72.5368C200.887 72.4501 204.052 76.1192 203.443 79.6417C201.839 78.129 199.505 77.4278 197.334 77.8061C195.161 78.184 193.202 79.6322 192.203 81.5982C191.394 83.1916 189.587 84.034 187.83 84.3616C186.073 84.6896 184.257 84.6212 182.507 84.983C180.756 85.3444 178.971 86.2661 178.256 87.9037C177.539 89.5417 178.475 91.8773 180.255 92.0424C182.328 92.2348 183.538 89.8004 185.282 88.6629C186.942 87.5804 189.108 87.7221 191.044 88.1429C192.981 88.5636 194.916 89.2275 196.891 89.0568C200.321 88.7599 203.039 86.0247 204.905 83.1301ZM260.428 182.96C256.455 184.492 252.483 186.023 248.51 187.555C247.957 187.768 247.285 188.313 247.617 188.803C251.406 194.396 254.323 200.579 256.23 207.059C256.415 207.69 257.373 207.218 257.747 206.677C261.222 201.654 263.992 196.144 265.952 190.359C266.306 189.312 266.637 188.18 266.333 187.118C265.855 185.448 264.06 184.606 262.737 183.48C262.371 183.169 262.002 182.809 261.527 182.74C261.153 182.685 260.781 182.824 260.428 182.96ZM214.598 133.283C212.773 135.221 214.306 138.504 213.369 140.995C213.161 141.547 212.825 142.13 213.017 142.688C213.112 142.966 213.326 143.184 213.534 143.392C214.182 144.042 214.832 144.692 215.48 145.343C215.99 145.853 216.816 146.382 217.347 145.894C219.529 143.887 222.174 142.384 225.015 141.536C225.833 141.292 226.718 141.072 227.289 140.437C227.793 139.877 227.955 139.098 228.099 138.359C228.901 134.22 229.698 130.08 230.489 125.939C230.551 125.615 230.611 125.269 230.479 124.968C230.339 124.648 230.016 124.452 229.701 124.302C226.505 122.779 222.207 124.339 220.731 127.558C220.23 128.65 219.999 129.914 219.158 130.772C217.932 132.023 215.798 132.009 214.598 133.283ZM150.87 80.3385C150.252 79.7778 149.613 79.0741 149.674 78.2416C149.738 77.3546 150.56 76.7432 151.304 76.2561C153.942 74.531 156.579 72.8059 159.217 71.0812C159.153 70.569 158.435 70.5149 157.927 70.6072C151.097 71.8491 144.407 73.8507 138.018 76.5638C145.142 80.956 151.978 85.818 158.465 91.1077C159.252 89.3207 161.278 88.441 162.478 86.9001C163.993 84.9535 164.106 82.0628 165.97 80.4464C166.885 79.653 168.243 79.1031 168.426 77.9067C166.826 77.9179 165.226 77.9292 163.626 77.94C161.68 77.9539 159.608 78.0042 157.991 79.0871C156.58 80.0322 155.496 81.7512 153.798 81.7997C152.679 81.8318 151.698 81.0908 150.87 80.3385ZM230.629 186.77C231.871 188.996 233.113 191.222 234.355 193.449C232.08 186.211 229.367 179.111 226.236 172.201C226.125 171.955 225.998 171.693 225.759 171.567C225.466 171.411 225.108 171.514 224.793 171.619C215.973 174.569 207.152 177.517 198.332 180.467C198.064 180.556 197.773 180.663 197.63 180.907C197.457 181.199 197.56 181.57 197.676 181.889C198.193 183.315 198.869 184.683 199.689 185.96C205.22 182.742 210.752 179.523 216.284 176.304C217.135 175.809 218.032 175.3 219.016 175.262C219.83 175.232 220.622 175.531 221.35 175.898C225.672 178.077 228.271 182.543 230.629 186.77ZM190.583 247C189.471 244.626 187.563 242.681 185.373 241.24C182.683 246.236 179.596 251.019 176.151 255.529C175.888 255.874 175.791 256.58 176.224 256.549C180.424 256.254 184.625 255.959 188.825 255.663C189.668 255.604 190.681 255.427 190.991 254.64C191.952 252.201 191.695 249.375 190.583 247ZM254 211.967C254.339 211.446 254.686 210.911 254.824 210.304C255.006 209.501 254.805 208.666 254.588 207.872C252.922 201.767 250.301 195.94 247.03 190.523C246.649 189.893 246.239 189.246 245.619 188.849C244.999 188.451 244.108 188.378 243.567 188.878C242.844 189.546 243.118 190.725 243.448 191.653C246.055 199 248.663 206.348 251.271 213.695C251.427 214.132 251.78 214.671 252.213 214.503C252.382 214.437 252.492 214.277 252.591 214.126C253.06 213.406 253.53 212.686 254 211.967ZM227.826 118.519C228.581 119.156 229.583 119.397 230.545 119.618C231.317 119.796 231.773 118.79 231.907 118.009C232.799 112.796 233.372 107.535 233.945 102.276C233.507 102.091 233.042 102.448 232.701 102.779C231.474 103.97 230.247 105.16 229.02 106.35C228.166 107.179 227.273 108.074 227.002 109.233C226.486 111.438 228.366 113.952 227.178 115.88C226.66 116.72 227.071 117.882 227.826 118.519ZM225.154 160.221C224.859 159.89 224.541 159.549 224.12 159.412C223.698 159.276 223.148 159.431 223.002 159.849C221.696 163.585 220.389 167.322 219.083 171.059C218.959 171.414 219.042 172.012 219.403 171.905C221.606 171.255 223.639 170.104 225.851 169.486C228.063 168.869 230.65 168.876 232.418 170.343C230.357 166.73 227.918 163.331 225.154 160.221ZM244.023 105.582C244.686 103.785 245.349 101.987 246.012 100.19C246.14 99.8416 245.886 99.4789 245.647 99.1946C243.281 96.3766 240.896 93.5392 238.031 91.2295C237.91 91.1311 237.771 91.0289 237.615 91.0371C237.317 91.0531 237.198 91.4232 237.156 91.7183C236.8 94.2243 236.443 96.7307 236.087 99.2371C235.983 99.9672 236.655 100.602 237.361 100.818C238.066 101.034 238.826 100.974 239.551 101.109C240.888 101.358 242.073 102.315 242.597 103.571C242.929 104.367 243.175 105.427 244.023 105.582ZM222.874 153.995C224.127 150.792 225.275 147.548 226.318 144.27C226.388 144.05 226.458 143.81 226.384 143.591C226.185 143.005 225.318 143.157 224.766 143.434C222.593 144.522 220.505 145.776 218.524 147.182C218.278 147.357 218.009 147.577 218 147.878C217.993 148.107 218.14 148.307 218.28 148.487C219.752 150.372 221.284 152.209 222.874 153.995ZM241.248 206.795C241.014 206.539 240.628 206.499 240.281 206.505C239.495 206.518 238.713 206.678 237.985 206.974C237.627 207.12 237.272 207.301 236.886 207.321C236.5 207.341 236.067 207.14 235.972 206.765C236.992 206.036 238.229 205.614 239.483 205.568C240.04 205.548 240.056 204.602 239.567 204.334C239.077 204.066 238.474 204.262 237.954 204.462C237.093 204.793 236.233 205.123 235.372 205.454C235.122 205.55 234.864 205.247 234.9 204.982C234.936 204.716 235.152 204.514 235.365 204.351C236.139 203.759 237.063 203.366 238.026 203.217C238.485 203.147 238.559 202.435 238.223 202.113C237.888 201.792 237.372 201.772 236.909 201.795C235.56 201.866 234.224 202.158 232.97 202.657C234.039 204.577 235.131 206.484 236.246 208.377C236.535 208.867 236.848 209.38 237.348 209.651C238.246 208.517 239.611 207.765 241.05 207.613C241.395 207.576 241.483 207.051 241.248 206.795ZM259.674 241.427C258.85 241.637 258.033 241.877 257.226 242.147C257.005 242.22 256.75 242.335 256.712 242.565C256.69 242.702 256.756 242.836 256.82 242.959C257.294 243.87 257.768 244.782 258.242 245.692C258.434 246.062 258.822 246.496 259.181 246.285C260.364 245.59 261.684 245.13 263.044 244.943C263.418 244.891 263.662 244.49 263.671 244.113C263.679 243.735 263.512 243.379 263.349 243.038C263.069 242.455 262.762 241.84 262.211 241.5C261.471 241.043 260.518 241.212 259.674 241.427ZM262.856 251.442C262.534 251.5 262.161 251.597 262.035 251.9C261.932 252.147 262.041 252.426 262.149 252.67C262.56 253.603 262.971 254.537 263.382 255.47C263.511 255.762 263.681 256.089 263.992 256.158C264.213 256.207 264.437 256.107 264.642 256.009C265.276 255.705 265.91 255.402 266.544 255.098C266.9 254.927 267.278 254.737 267.474 254.393C267.67 254.049 267.566 253.511 267.185 253.406C266.981 253.35 266.766 253.43 266.576 253.522C266.009 253.798 265.497 254.199 264.891 254.376C264.285 254.552 263.513 254.416 263.225 253.855C264.719 253.324 266.146 252.609 267.465 251.73C267.347 250.906 266.192 250.833 265.373 250.982C264.534 251.136 263.695 251.289 262.856 251.442ZM250.656 230.014C250.899 229.75 251.251 229.621 251.589 229.501C252.519 229.17 253.449 228.839 254.379 228.509C254.863 228.337 254.744 227.533 254.288 227.298C253.832 227.063 253.281 227.21 252.791 227.361C251.727 227.688 250.663 228.016 249.599 228.344C249.46 228.386 249.314 228.433 249.217 228.541C248.995 228.788 249.144 229.176 249.302 229.468C249.724 230.247 250.145 231.025 250.567 231.804C250.616 231.895 250.671 231.992 250.765 232.036C250.878 232.088 251.011 232.048 251.129 232.007C252.423 231.56 253.718 231.113 255.012 230.665C255.321 230.558 255.692 230.363 255.666 230.037C255.631 229.593 254.979 229.589 254.554 229.724C253.223 230.147 251.891 230.57 250.559 230.992C250.325 230.721 250.413 230.278 250.656 230.014ZM267.206 179.213C266.06 179.86 264.913 180.508 263.767 181.156C263.629 181.234 263.484 181.319 263.409 181.458C263.209 181.826 263.604 182.225 263.952 182.459C264.665 182.936 265.378 183.414 266.091 183.892C266.231 183.986 266.383 184.083 266.552 184.085C266.936 184.089 267.133 183.637 267.232 183.266C267.548 182.074 267.865 180.883 268.181 179.691C268.22 179.542 268.259 179.378 268.195 179.237C268.04 178.897 267.531 179.029 267.206 179.213ZM252.114 232.683C251.837 232.754 251.522 232.857 251.418 233.124C251.341 233.322 251.411 233.546 251.501 233.739C251.733 234.234 252.101 234.666 252.553 234.974C253.756 234.516 254.958 234.056 256.161 233.597C256.678 233.4 257.29 233.068 257.268 232.515C257.252 232.119 256.878 231.812 256.49 231.736C256.102 231.66 255.703 231.759 255.319 231.858C254.251 232.133 253.182 232.407 252.114 232.683ZM234.689 189.419C235.109 190.24 236.15 190.478 237.061 190.626C238.514 190.861 239.967 191.096 241.42 191.332C241.445 190.507 240.594 189.959 239.838 189.628C238.453 189.022 237.008 188.553 235.531 188.232C235.371 188.197 235.205 188.164 235.047 188.203C234.573 188.317 234.467 188.985 234.689 189.419ZM229.303 188.797C229.417 188.754 229.532 188.71 229.63 188.638C230.064 188.32 229.932 187.571 229.489 187.265C229.047 186.958 228.448 187 227.935 187.161C227.422 187.322 226.943 187.589 226.418 187.708C225.709 187.868 224.782 187.861 224.51 188.535C224.278 189.11 224.81 189.763 225.416 189.896C226.022 190.029 226.644 189.805 227.224 189.585C227.917 189.323 228.61 189.06 229.303 188.797ZM232.092 193.99C232.677 193.608 232.407 192.602 231.784 192.284C231.162 191.967 230.413 192.115 229.732 192.271C229.013 192.435 228.246 192.628 227.756 193.179C227.267 193.73 227.267 194.763 227.935 195.075C228.843 195.499 229.694 194.302 230.685 194.154C231.159 194.083 231.691 194.251 232.092 193.99ZM252.643 226.216C252.84 226.15 253.047 226.077 253.174 225.913C253.315 225.73 253.319 225.47 253.24 225.253C253.053 224.747 252.47 224.478 251.93 224.488C251.391 224.497 250.883 224.727 250.393 224.952C249.768 225.238 249.144 225.525 248.52 225.811C248.177 225.969 247.788 226.183 247.731 226.556C247.674 226.936 248.023 227.281 248.398 227.361C248.774 227.441 249.16 227.329 249.527 227.216C250.57 226.894 251.609 226.561 252.643 226.216ZM255.456 239.435C256.801 238.869 258.145 238.304 259.49 237.739C259.617 237.685 259.748 237.629 259.841 237.527C260.114 237.224 259.864 236.697 259.484 236.552C259.103 236.407 258.678 236.519 258.287 236.632C257.378 236.895 256.47 237.158 255.561 237.421C255.059 237.567 254.497 237.763 254.285 238.241C253.995 238.896 254.797 239.712 255.456 239.435ZM264.532 247.272C265.069 247.065 264.873 246.16 264.339 245.943C263.806 245.726 263.208 245.949 262.668 246.148C261.609 246.538 260.518 246.84 259.409 247.049C259.022 247.569 259.493 248.367 260.117 248.543C260.741 248.72 261.398 248.483 262.003 248.25C262.846 247.924 263.689 247.598 264.532 247.272ZM235.91 187.022C236.994 187.306 238.077 187.59 239.16 187.874C239.572 187.982 240.208 187.922 240.178 187.496C238.307 186.203 236.155 185.319 233.914 184.925C233.796 184.904 233.67 184.885 233.557 184.927C233.168 185.068 233.317 185.67 233.609 185.962C234.215 186.566 235.083 186.806 235.91 187.022ZM240.003 182.837C240.387 183.758 240.77 184.68 241.153 185.601C241.384 186.156 241.643 186.745 242.152 187.065C242.661 187.384 243.489 187.248 243.656 186.671C243.783 186.231 243.486 185.792 243.203 185.431C242.124 184.056 241.014 182.706 239.872 181.382C239.619 181.82 239.809 182.37 240.003 182.837ZM238.148 184.568C238.351 184.638 238.599 184.702 238.763 184.563C238.955 184.4 238.886 184.086 238.755 183.871C238.281 183.089 237.32 182.78 236.44 182.53C235.258 182.194 234.075 181.858 232.892 181.522C232.525 181.418 232.248 181.954 232.42 182.295C232.592 182.636 232.988 182.789 233.349 182.914C234.949 183.465 236.548 184.017 238.148 184.568ZM253.961 235.361C253.629 235.461 253.267 235.584 253.086 235.88C252.763 236.406 253.235 237.093 253.79 237.363C255.045 236.342 256.643 235.752 258.259 235.713C258.81 235.7 258.857 234.778 258.391 234.486C257.924 234.194 257.319 234.345 256.793 234.504C255.849 234.79 254.905 235.075 253.961 235.361ZM248.708 220.963C247.946 221.164 247.183 221.366 246.421 221.568C245.721 221.752 244.845 222.21 245.012 222.913C245.155 223.512 245.992 223.648 246.554 223.396C247.115 223.144 247.544 222.655 248.103 222.397C249.017 221.975 250.303 222.129 250.816 221.263C250.379 220.643 249.441 220.768 248.708 220.963ZM220.129 180.638C219.983 180.701 219.832 180.774 219.735 180.9C219.486 181.228 219.758 181.738 220.143 181.882C220.529 182.025 220.958 181.922 221.358 181.826C222.703 181.504 224.072 181.281 225.45 181.159C225.584 180.403 224.596 179.98 223.829 179.949C222.565 179.899 221.29 180.137 220.129 180.638ZM242.428 209.953C242.824 209.535 242.6 208.602 242.035 208.712C240.536 209.004 239.092 209.571 237.795 210.375C237.491 210.993 238.33 211.633 239.01 211.526C239.689 211.419 240.235 210.921 240.872 210.66C241.405 210.442 242.033 210.372 242.428 209.953ZM243.249 196.414C243.071 196.19 242.788 196.084 242.518 195.987C241.209 195.519 239.899 195.051 238.589 194.583C238.231 194.454 237.83 194.327 237.481 194.48C237.133 194.632 236.994 195.21 237.335 195.379C239.012 196.208 240.796 196.823 242.628 197.205C242.819 197.245 243.032 197.278 243.196 197.173C243.438 197.02 243.426 196.639 243.249 196.414ZM237.084 181.008C237.27 181.118 237.516 180.909 237.521 180.692C237.526 180.475 237.38 180.286 237.233 180.126C235.826 178.591 233.762 177.875 231.787 177.215C231.286 177.047 230.553 176.991 230.407 177.498C232.69 178.554 234.92 179.726 237.084 181.008ZM266.209 249.096C266.091 248.685 265.657 248.429 265.231 248.386C264.805 248.343 264.382 248.469 263.973 248.595C263.259 248.813 262.545 249.031 261.83 249.25C261.336 249.401 260.737 249.697 260.778 250.212C260.812 250.631 261.3 250.881 261.717 250.841C262.136 250.801 262.504 250.564 262.883 250.383C263.709 249.987 264.652 249.839 265.56 249.963C265.984 250.021 266.327 249.508 266.209 249.096ZM221.405 183.768C221.399 184.155 221.701 184.523 222.082 184.593C222.327 184.638 222.578 184.571 222.819 184.504C224.21 184.116 225.6 183.728 226.991 183.341C227.013 182.95 226.675 182.613 226.301 182.499C225.926 182.386 225.524 182.444 225.137 182.503C224.127 182.656 223.116 182.81 222.107 182.964C221.724 183.022 221.411 183.381 221.405 183.768ZM244.374 211.583C244.43 211.22 244.072 210.899 243.708 210.853C243.343 210.808 242.985 210.956 242.648 211.102C241.575 211.566 240.502 212.029 239.428 212.492C239.109 212.897 239.502 213.54 240.005 213.654C240.508 213.768 241.019 213.538 241.483 213.314C242.216 212.96 242.95 212.607 243.682 212.253C243.984 212.108 244.323 211.914 244.374 211.583ZM229.026 174.424C229.15 174.644 229.396 174.761 229.626 174.865C231.539 175.721 233.451 176.578 235.363 177.435C235.702 177.587 236.197 177.69 236.365 177.358C236.545 177.002 236.101 176.661 235.734 176.505C233.677 175.631 231.62 174.757 229.563 173.883C229.459 173.839 229.349 173.794 229.238 173.813C228.989 173.854 228.903 174.204 229.026 174.424ZM238.929 199.092C238.865 199.065 238.796 199.038 238.728 199.051C238.657 199.065 238.598 199.127 238.587 199.199C238.755 200.343 240.039 200.907 241.139 201.264C242.577 201.731 244.014 202.198 245.452 202.664C245.798 202.282 245.233 201.752 244.759 201.552C242.815 200.732 240.872 199.913 238.929 199.092ZM228.297 185.681C228.458 185.379 228.216 185.001 227.912 184.845C227.38 184.571 226.739 184.724 226.163 184.882C225.506 185.062 224.849 185.242 224.193 185.422C223.72 185.552 223.149 185.798 223.132 186.288C223.119 186.655 223.465 186.955 223.826 187.022C224.187 187.089 224.555 186.983 224.907 186.878C225.843 186.599 226.78 186.319 227.717 186.039C227.941 185.973 228.188 185.888 228.297 185.681ZM260.85 238.926C260.459 238.7 259.968 238.832 259.539 238.97C258.172 239.407 256.805 239.843 255.439 240.281C255.137 240.765 255.687 241.408 256.256 241.442C256.826 241.476 257.342 241.144 257.846 240.874C258.76 240.384 259.769 240.069 260.8 239.95C261.248 239.899 261.24 239.152 260.85 238.926ZM234.75 197.437C234.312 197.32 233.848 197.401 233.402 197.484C232.851 197.586 232.3 197.687 231.748 197.789C231.123 197.904 230.33 198.228 230.396 198.86C230.435 199.233 230.804 199.503 231.175 199.557C231.547 199.611 231.92 199.5 232.279 199.391C233.379 199.056 234.48 198.721 235.58 198.386C235.591 197.933 235.187 197.554 234.75 197.437ZM230.996 190.024C230.69 189.711 230.186 189.689 229.766 189.811C229.346 189.932 228.969 190.171 228.559 190.322C228.075 190.499 227.551 190.552 227.069 190.734C226.586 190.917 226.12 191.281 226.037 191.79C226.218 192.214 226.826 192.166 227.271 192.046C228.449 191.729 229.628 191.411 230.806 191.094C231.229 190.98 231.303 190.336 230.996 190.024ZM229.356 195.791C228.865 195.934 228.95 196.745 229.398 196.992C229.845 197.238 230.398 197.102 230.89 196.96C231.92 196.663 232.95 196.365 233.981 196.068C234.056 195.553 233.585 195.087 233.077 194.975C232.569 194.863 232.044 195.009 231.544 195.155C230.815 195.367 230.086 195.579 229.356 195.791ZM235.202 123.304C235.857 122.832 235.756 121.858 235.776 121.051C234.922 120.947 233.987 120.86 233.266 121.331C232.547 121.802 232.354 123.073 233.124 123.454C233.389 123.586 233.698 123.582 233.994 123.576C234.413 123.567 234.861 123.548 235.202 123.304ZM236.853 191.93C236.441 191.887 235.84 192.07 235.957 192.467C236.013 192.659 236.223 192.752 236.41 192.82C238.206 193.469 240.081 193.899 241.979 194.097C242.215 194.043 242.284 193.71 242.161 193.502C242.037 193.295 241.801 193.187 241.577 193.097C240.067 192.49 238.472 192.096 236.853 191.93ZM228.497 171.998C230.05 172.796 231.633 173.536 233.241 174.216C233.553 174.348 233.908 174.479 234.222 174.35C234.536 174.221 234.656 173.695 234.345 173.559C232.516 172.759 230.688 171.959 228.859 171.159C228.569 171.032 228.155 170.941 227.998 171.216C227.825 171.518 228.187 171.839 228.497 171.998ZM243.868 198.766C243.604 198.526 243.248 198.418 242.905 198.317C241.463 197.894 240.02 197.47 238.577 197.046C238.378 196.988 238.156 196.93 237.969 197.022C237.782 197.114 237.715 197.428 237.901 197.52C239.875 198.487 241.959 199.23 244.099 199.731C244.277 199.42 244.133 199.006 243.868 198.766ZM245 221.031C246.029 220.667 247.058 220.303 248.086 219.939C248.539 219.779 249.025 219.593 249.284 219.189C249.217 218.827 248.826 218.599 248.457 218.592C248.089 218.584 247.741 218.744 247.407 218.9C246.506 219.321 245.604 219.742 244.702 220.164C244.377 220.316 244.001 220.54 243.996 220.899C244.165 221.229 244.651 221.154 245 221.031ZM236.826 200.456C237.066 200.189 236.85 199.724 236.516 199.591C236.182 199.458 235.806 199.549 235.458 199.642C234.277 199.958 233.097 200.274 231.916 200.59C231.702 200.838 231.894 201.258 232.196 201.387C232.497 201.517 232.842 201.448 233.162 201.377C234.228 201.141 235.293 200.904 236.358 200.667C236.528 200.63 236.71 200.586 236.826 200.456ZM251.253 222.583C251.01 222.53 250.761 222.626 250.53 222.72C249.272 223.235 248.013 223.749 246.754 224.263C246.389 224.412 246.537 225.031 246.907 225.166C247.276 225.302 247.681 225.126 248.035 224.955C249.117 224.431 250.198 223.908 251.28 223.384C251.403 223.325 251.534 223.257 251.595 223.135C251.705 222.911 251.496 222.637 251.253 222.583ZM242.011 202.594C241.527 202.415 240.828 202.321 240.635 202.8C242.34 203.679 244.15 204.356 246.013 204.814C246.394 204.583 245.918 204.041 245.502 203.887C244.338 203.456 243.175 203.025 242.011 202.594ZM218.546 179.022C218.22 179.392 218.54 180.093 219.034 180.089C220.16 179.353 221.476 178.91 222.818 178.814C222.393 178.281 221.656 178.079 220.977 178.133C220.297 178.186 219.657 178.456 219.03 178.724C218.854 178.799 218.672 178.878 218.546 179.022ZM246.112 206.663C246.48 206.752 247.062 206.649 246.97 206.28C245.429 205.585 243.805 205.074 242.143 204.761C241.96 205.008 242.07 205.382 242.299 205.587C242.529 205.793 242.841 205.872 243.141 205.945C244.131 206.184 245.121 206.424 246.112 206.663ZM244.946 208.594C245.809 208.86 246.702 209.029 247.603 209.094C247.784 208.855 247.68 208.491 247.46 208.289C247.239 208.087 246.937 208.007 246.647 207.933C245.728 207.699 244.809 207.466 243.89 207.232C243.556 207.806 244.312 208.397 244.946 208.594ZM264.594 257.584C264.388 258.089 264.655 258.796 265.197 258.866C265.87 258.22 266.449 257.474 266.907 256.661C266.647 256.378 266.186 256.447 265.825 256.58C265.313 256.768 264.8 257.079 264.594 257.584ZM250.203 215.617C249.765 215.208 249.223 214.911 248.643 214.761C248.55 215.583 249.022 216.439 249.766 216.8C249.945 216.886 250.156 216.946 250.338 216.868C250.799 216.672 250.569 215.958 250.203 215.617ZM248.047 210.452C247.745 210.234 247.355 210.193 246.985 210.158C246.529 210.115 246.073 210.073 245.617 210.03C245.396 210.563 246.022 211.08 246.592 211.164C247.162 211.247 247.786 211.133 248.284 211.423C248.509 211.127 248.348 210.669 248.047 210.452ZM251.581 220.475C251.76 220.627 251.98 220.763 252.213 220.738C252.296 219.618 251.54 218.577 250.598 217.966C250.488 218.895 250.869 219.868 251.581 220.475ZM248.659 212.931C248.131 212.64 247.51 212.52 246.912 212.595C247.129 213.178 247.645 213.64 248.249 213.791C248.572 213.872 248.975 213.836 249.151 213.553C249.327 213.271 248.98 212.803 248.707 212.994M219.086 176.671C218.586 176.76 218.116 177.014 217.768 177.385C218.39 177.56 219.099 177.383 219.566 176.936C219.45 176.782 219.272 176.676 219.081 176.649" fill="black"/>
<path fill-rule="evenodd" clip-rule="evenodd" d="M208.347 226.458C213.453 221.553 220.621 222.244 225.634 227.626C229.993 232.309 228.957 238.495 224.006 243.683C222.139 245.621 218.389 246.906 215.676 246.591C213.379 246.363 209.802 244.671 207.678 243.11C206.695 242.387 205.795 240.898 204.947 238.635L204.822 238.298C203.315 234.119 204.332 229.702 207.746 226.931L207.906 226.804L207.942 226.754C207.972 226.718 208.006 226.683 208.045 226.65L208.107 226.603L208.177 226.558L208.322 226.485L208.347 226.458ZM217.224 243.306L215.679 244.958L215.85 244.972C217.433 245.087 218.982 244.839 220.39 244.241L220.469 244.206L220.359 244.2C219.386 244.13 218.358 243.833 217.289 243.337L217.224 243.306ZM212.718 240.203L212.573 240.071L212.421 240.219C211.822 240.803 211.213 241.401 210.591 242.017L209.886 242.717C210.086 242.862 210.293 243.004 210.51 243.142C211.486 243.779 212.541 244.261 213.633 244.575L213.867 244.64L214.996 243.451L215.841 242.557L215.785 242.524C214.724 241.872 213.68 241.071 212.718 240.203ZM220.085 240.245L218.244 242.215L218.337 242.255C219.769 242.855 221.043 242.969 222.139 242.527L222.254 242.477L222.143 242.352C221.59 241.733 220.994 241.118 220.342 240.491L220.085 240.245ZM208.993 236.088L208.667 236.409C208.196 236.867 207.722 237.322 207.242 237.774L206.489 238.478L206.552 238.629C207.062 239.805 207.773 240.828 208.699 241.723L208.732 241.755L208.837 241.648C209.508 240.968 210.2 240.278 210.922 239.573L211.483 239.026L211.33 238.873C210.491 238.019 209.773 237.183 209.168 236.338L208.993 236.088ZM223.091 237.027L221.083 239.177L221.103 239.196C221.874 239.932 222.578 240.653 223.232 241.382L223.431 241.606L223.437 241.599C224.122 240.668 224.004 239.15 223.181 237.231L223.091 237.027ZM216.062 236.736L215.913 236.876C215.226 237.521 214.53 238.182 213.82 238.865L213.619 239.058L213.806 239.223C214.788 240.081 215.73 240.802 216.67 241.383L216.848 241.49L218.109 240.152L218.977 239.227L218.69 238.972C218.169 238.513 217.607 238.031 216.9 237.437L216.062 236.736ZM226.796 233.065L224.016 236.039L224.106 236.213C224.259 236.515 224.409 236.821 224.557 237.132L224.776 237.602L224.979 238.055C225.187 238.493 225.33 238.929 225.407 239.359L225.418 239.432L225.501 239.283C226.626 237.221 227.087 235.098 226.805 233.127L226.796 233.065ZM220.681 233.033L220.539 232.844L220.032 233.269L218.619 234.437L218.366 234.649C218.107 234.869 217.873 235.07 217.658 235.26L217.408 235.485L217.149 235.724L217.732 236.21C218.382 236.755 218.947 237.239 219.476 237.706L219.979 238.155L221.595 236.425L222.363 235.598L222.357 235.587C221.874 234.735 221.3 233.865 220.681 233.033ZM212.077 233.207L211.956 233.088L211.918 233.129C211.445 233.624 210.969 234.115 210.488 234.602L210.008 235.083L210.108 235.236C210.692 236.112 211.415 236.966 212.258 237.794L212.471 238.001L212.509 238.037L212.575 237.975C213.062 237.51 213.562 237.037 214.078 236.552L214.909 235.773L214.794 235.677C213.858 234.88 212.955 234.059 212.077 233.207ZM206.939 230.052L206.893 230.129C205.75 232.051 205.397 234.441 205.928 236.718L205.976 236.913L206 237.006L206.239 236.782C206.741 236.31 207.238 235.834 207.732 235.353L208.234 234.859L208.187 234.771C207.364 233.24 206.933 231.685 206.939 230.088V230.052ZM216.023 228.613L215.427 229.298C214.75 230.069 214.063 230.831 213.367 231.585L212.958 232.025L213.06 232.124C213.87 232.908 214.71 233.671 215.587 234.421L215.994 234.766L216.383 234.408C216.634 234.181 216.901 233.947 217.204 233.69L217.701 233.273L218.868 232.312C219.078 232.138 219.267 231.981 219.442 231.833L219.613 231.688L219.53 231.592C219.13 231.127 218.753 230.728 218.439 230.435L218.347 230.35C217.711 229.776 217.016 229.251 216.241 228.752L216.023 228.613ZM224.45 228.53L224.387 228.639C223.743 229.732 222.855 230.755 221.647 231.869L221.546 231.96L221.582 232.01C222.11 232.752 222.61 233.527 223.084 234.337L223.256 234.635L224.608 233.176L226.317 231.32L226.277 231.222C225.884 230.289 225.301 229.412 224.524 228.605L224.45 228.53ZM208.453 229.36L208.447 229.423C208.308 230.897 208.596 232.346 209.272 233.771L209.29 233.806L209.47 233.626C209.868 233.222 210.265 232.815 210.658 232.406L210.959 232.091L210.836 231.966C210.144 231.253 209.464 230.516 208.793 229.752L208.453 229.36ZM209.125 227.731L209.022 227.781L209.048 227.813C209.963 228.904 210.895 229.937 211.859 230.928L211.958 231.029L212.361 230.598C213.067 229.832 213.764 229.058 214.45 228.275L214.784 227.891L214.749 227.871C214.579 227.779 214.404 227.687 214.226 227.594L213.955 227.455C212.363 226.674 211.187 226.76 209.285 227.654L209.125 227.731ZM219.079 224.944L218.493 225.671C218.097 226.158 217.697 226.642 217.294 227.122L217.012 227.457L217.084 227.502C218.15 228.19 219.058 228.936 219.805 229.763L219.975 229.956C220.14 230.148 220.303 230.343 220.464 230.54L220.649 230.77L220.674 230.747C221.864 229.639 222.704 228.629 223.28 227.543L223.297 227.51L223.144 227.39C221.602 226.178 220.473 225.457 219.277 225.015L219.079 224.944ZM216.721 224.527C215.21 224.516 213.835 224.786 212.565 225.341L212.493 225.373L212.619 225.389C212.897 225.431 213.17 225.501 213.439 225.602L213.572 225.655C214.292 225.972 214.953 226.289 215.574 226.619L215.781 226.731L216.187 226.252C216.601 225.759 217.011 225.263 217.417 224.764L217.563 224.583L217.386 224.563C217.238 224.548 217.091 224.538 216.943 224.532L216.721 224.527Z" fill="#FFB61D"/>
<path fill-rule="evenodd" clip-rule="evenodd" d="M242.4 121.096C242.877 119.803 244.597 119.269 245.866 119.808C247.134 120.347 247.922 121.694 248.121 123.058C248.32 124.423 248.018 125.809 247.629 127.131C247.275 128.337 246.848 129.522 246.351 130.676C246.305 130.784 246.243 130.904 246.129 130.929C246.007 130.956 245.895 130.862 245.808 130.774C243.652 128.589 242.353 125.581 242.239 122.515C242.222 122.036 242.234 121.546 242.4 121.096ZM246.127 121.412C245.773 121.109 245.316 120.91 244.85 120.924C243.763 120.957 243.005 122.143 243.029 123.231C243.053 124.318 243.632 125.305 244.194 126.236C244.597 126.903 245 127.57 245.402 128.237C245.54 128.464 245.81 128.723 246.023 128.566C246.11 128.502 246.143 128.391 246.171 128.288C246.336 127.682 246.5 127.076 246.665 126.471C246.901 125.604 247.138 124.724 247.124 123.827C247.109 122.929 246.808 121.996 246.127 121.412Z" fill="#FFB61D"/>
<path fill-rule="evenodd" clip-rule="evenodd" d="M245.415 124.893C245.15 124.967 244.861 124.953 244.605 124.853C244.107 124.659 243.764 124.126 243.793 123.593C243.821 123.06 244.22 122.567 244.736 122.428C245.517 122.218 246.396 122.937 246.344 123.744C246.31 124.268 245.92 124.75 245.415 124.893Z" fill="#FFB61D"/>
</g>
<defs>
<clipPath id="clip0_1260_3332">
<rect width="325" height="325" fill="white"/>
</clipPath>
</defs>
</svg>
